<?xml version="1.0" standalone="no"?>
<!DOCTYPE svg PUBLIC "-//W3C//DTD SVG 1.1//EN" "http://www.w3.org/Graphics/SVG/1.1/DTD/svg11.dtd" >
<svg xmlns="http://www.w3.org/2000/svg" xmlns:xlink="http://www.w3.org/1999/xlink" version="1.1">
<metadata>
Created by FontForge 20170731 at Fri Oct 24 19:03:23 2014
 By Aleksey,,,
Copyright (c) 2012 by Fontfabric LLC. All rights reserved.
</metadata>
<defs>
<font id="Panton-ThinItalic" horiz-adv-x="543" >
  <font-face 
    font-family="Panton Thin Italic"
    font-weight="250"
    font-style="italic"
    font-stretch="normal"
    units-per-em="1000"
    panose-1="0 0 3 0 0 0 0 0 0 0"
    ascent="740"
    descent="-260"
    x-height="510"
    cap-height="710"
    bbox="-198.6 -260 1120.27 952.286"
    underline-thickness="50"
    underline-position="-250"
    unicode-range="U+0020-FB02"
  />
<missing-glyph horiz-adv-x="686" 
d="M593 5q0 -5 -5 -5h-485q-5 0 -5 5v700q0 5 5 5h485q5 0 5 -5v-700zM113 696v-682h465v682h-465z" />
    <glyph glyph-name="fi" unicode="fi" horiz-adv-x="518" 
d="M517 740q3 0 3 -4l-1 -5q-1 -4 -5 -4h-123q-103 0 -145.5 -35t-60.5 -140l-7 -42h298q4 0 3 -4l-88 -502q-1 -4 -5 -4h-6q-4 0 -3 4l87 493h-288l-87 -493q-1 -4 -5 -4h-6q-4 0 -3 4l87 493h-121q-4 0 -4 4l1 5q1 4 5 4h121l7 42q20 110 67.5 149t155.5 39h123z" />
    <glyph glyph-name="fl" unicode="fl" horiz-adv-x="519" 
d="M514 740q3 0 3 -4l-129 -732q-1 -4 -5 -4h-6q-4 0 -3 4l127 723h-110q-103 0 -145.5 -35t-60.5 -140l-7 -42h156q4 0 3 -4l-1 -5q0 -4 -4 -4h-156l-87 -493q-1 -4 -5 -4h-6q-4 0 -3 4l87 493h-121q-4 0 -4 4l1 5q1 4 5 4h121l7 42q20 110 67.5 149t155.5 39h120z" />
    <glyph glyph-name=".notdef" horiz-adv-x="686" 
d="M593 5q0 -5 -5 -5h-485q-5 0 -5 5v700q0 5 5 5h485q5 0 5 -5v-700zM113 696v-682h465v682h-465z" />
    <glyph glyph-name=".null" horiz-adv-x="0" 
 />
    <glyph glyph-name="nonmarkingreturn" horiz-adv-x="333" 
 />
    <glyph glyph-name="space" unicode=" " horiz-adv-x="256" 
 />
    <glyph glyph-name="exclam" unicode="!" horiz-adv-x="168" 
d="M167 740q3 0 3 -4l-109 -602q-1 -4 -5 -4h-3q-4 0 -3 4l103 602q0 4 5 4h9zM39 26q13 0 10 -13v-4q-3 -13 -16 -13h-4q-8 0 -9.5 2.5t-0.5 10.5v4q3 13 16 13h4z" />
    <glyph glyph-name="quotedbl" unicode="&#x22;" horiz-adv-x="235" 
d="M115 500q0 -4 -5 -4h-3q-3 0 -3 4l37 206q0 4 4 4h9q4 0 4 -4zM195 500q0 -4 -5 -4h-3q-3 0 -3 4l37 206q0 4 4 4h9q4 0 4 -4z" />
    <glyph glyph-name="numbersign" unicode="#" horiz-adv-x="651" 
d="M633 456q4 0 3 -5l-3 -6q-2 -3 -6 -3h-132l-101 -213h131q4 0 3 -5l-4 -6q-1 -3 -5 -3h-131l-100 -211q-4 -4 -7 -4h-8q-5 0 -2 4l100 211h-197l-100 -211q-1 -4 -6 -4h-8q-5 0 -2 4l100 211h-129q-5 0 -2 4l3 6q1 4 6 4h129l101 213h-129q-5 0 -2 4l3 6q1 4 6 4h129
l85 179q1 4 6 4h8q5 0 2 -4l-85 -179h197l85 179q3 4 5 4h8q6 0 3 -4l-85 -179h131zM282 442l-101 -213h197l101 213h-197z" />
    <glyph glyph-name="dollar" unicode="$" horiz-adv-x="591" 
d="M381 793q4 0 3 -4l-14 -79q89 -3 132.5 -41t72.5 -115q1 -4 -3 -6l-5 -1q-4 -1 -5 1q-29 77 -73 112.5t-138 35.5q-201 0 -232 -179q-8 -47 3.5 -77.5t43.5 -45t62.5 -20.5t79.5 -11h4q42 -4 68.5 -8.5t59.5 -16.5t49.5 -29.5t25.5 -49t1 -73.5q-33 -186 -271 -186
l-14 -79q0 -4 -5 -4h-6q-3 0 -3 4l14 79q-93 4 -138 49t-65 132q-1 5 3 7l6 2q4 1 5 -2q23 -90 67 -132t139 -42q222 0 253 174q9 49 -1 80t-44.5 47t-59.5 21t-80 11q-5 1 -8 1q-54 6 -85 12.5t-66.5 23.5t-48 50.5t-3.5 84.5q34 191 251 191l14 79q1 4 5 4h6z" />
    <glyph glyph-name="percent" unicode="%" horiz-adv-x="801" 
d="M89 582q12 68 56 105.5t117 37.5q72 0 104.5 -40t20.5 -109l-13 -75q-12 -68 -56 -105t-117 -37q-72 0 -104.5 39.5t-20.5 108.5zM374 579q11 62 -18.5 97t-94.5 35t-106.5 -35t-52.5 -97l-13 -75q-11 -62 18 -96.5t95 -34.5q65 0 106.5 34.5t52.5 96.5zM737 710
q6 0 1 -5l-639 -701q-4 -4 -10 -4h-6q-7 0 -2 5l640 701q3 4 8 4h8zM445 210q12 68 56 104.5t117 36.5q72 0 105 -40t21 -109l-13 -75q-12 -68 -57 -105t-118 -37q-72 0 -104 40.5t-20 109.5zM730 205q11 62 -18.5 97t-94.5 35t-106.5 -35t-52.5 -97l-13 -75
q-11 -62 18.5 -96.5t94.5 -34.5q66 0 107 34.5t52 96.5z" />
    <glyph glyph-name="ampersand" unicode="&#x26;" horiz-adv-x="639" 
d="M157 567q12 65 65.5 111t129.5 46q72 0 111.5 -49t27.5 -113q-13 -71 -61.5 -110t-159.5 -83l-10 -4l198 -226l91 74q4 2 6 0l5 -5q2 -2 -1 -6l-92 -74l112 -123q3 -5 -3 -5h-9q-5 0 -8 4l-102 116q-105 -82 -165 -108t-122 -26q-72 0 -115.5 52.5t-30.5 126.5
q8 44 27 77.5t51.5 57.5t60.5 38.5t72 32.5q-43 49 -65 94.5t-13 101.5zM476 564q11 58 -25 102t-102 44q-67 0 -117 -43.5t-61 -102.5q-6 -38 6.5 -75.5t27 -57t44.5 -54.5l15 6q106 41 140 66q59 43 72 115zM246 359q-93 -35 -143 -76t-64 -120q-12 -69 26.5 -116
t106.5 -47q58 0 115 25.5t160 104.5z" />
    <glyph glyph-name="quotesingle" unicode="'" horiz-adv-x="155" 
d="M115 500q0 -4 -5 -4h-3q-3 0 -3 4l37 206q0 4 4 4h9q4 0 4 -4z" />
    <glyph glyph-name="parenleft" unicode="(" horiz-adv-x="220" 
d="M120 611q15 85 57 134t119 81q3 2 5 -1l1 -6q1 -3 -2 -5q-72 -31 -112 -77t-54 -126l-91 -512q-14 -80 10 -126t85 -77q2 -2 1 -5l-4 -6q-3 -3 -5 -1q-65 32 -90 81t-11 134z" />
    <glyph glyph-name="parenright" unicode=")" horiz-adv-x="220" 
d="M105 825q2 3 5 1q64 -33 89.5 -81.5t10.5 -133.5l-91 -512q-14 -85 -56 -134.5t-118 -81.5q-4 -2 -5 1l-3 7q-1 3 3 5q72 31 111.5 77t53.5 126l91 512q14 81 -8.5 127t-85.5 76q-3 2 -2 5z" />
    <glyph glyph-name="asterisk" unicode="*" horiz-adv-x="396" 
d="M264 673q4 0 3 -4l-25 -125l125 41q6 1 7 -2v-8q2 -5 -4 -6l-127 -34l60 -101q2 -4 -2 -6l-8 -5q-5 -2 -6 1l-53 105l-90 -104q-4 -4 -6 -2l-6 6q-4 3 0 6l95 100l-112 35q-6 2 -3 6l4 8q2 4 6 2l110 -42l19 125q1 4 5 4h8z" />
    <glyph glyph-name="plus" unicode="+" horiz-adv-x="590" 
d="M533 334q4 0 3 -4l-1 -6q0 -4 -5 -4h-225l-39 -225q-1 -4 -5 -4h-6q-4 0 -3 4l39 225h-225q-3 0 -3 4l1 6q1 4 5 4h225l40 225q0 4 4 4h6q4 0 4 -4l-40 -225h225z" />
    <glyph glyph-name="comma" unicode="," horiz-adv-x="135" 
d="M-38 -117q-1 -4 -5 -4h-4q-4 0 -3 4l69 145q3 7 10 7h6q8 0 4 -7z" />
    <glyph glyph-name="hyphen" unicode="-" horiz-adv-x="432" 
d="M356 273q4 0 3 -4l-1 -6q0 -4 -4 -4h-290q-4 0 -4 4l1 6q1 4 5 4h290z" />
    <glyph glyph-name="period" unicode="." horiz-adv-x="137" 
d="M31 26q13 0 10 -13l-1 -4q-3 -13 -16 -13h-4q-8 0 -10 2.5t0 10.5l1 4q3 13 16 13h4z" />
    <glyph glyph-name="slash" unicode="/" horiz-adv-x="379" 
d="M-7 -56q-1 -4 -7 -4h-7q-4 0 -2 4l417 762q1 4 6 4h7q5 0 3 -4z" />
    <glyph glyph-name="zero" unicode="0" horiz-adv-x="616" 
d="M100 504q18 103 91.5 161.5t189.5 58.5q115 0 169.5 -61t36.5 -164l-52 -294q-18 -103 -92 -161t-190 -58t-169.5 60t-35.5 164zM573 502q17 97 -33.5 152.5t-159.5 55.5q-110 0 -179.5 -55.5t-86.5 -152.5l-52 -294q-17 -98 33 -153t160 -55q109 0 179 55t87 153z" />
    <glyph glyph-name="one" unicode="1" horiz-adv-x="409" 
d="M379 710q4 0 4 -4l-124 -702q-1 -4 -5 -4h-6q-5 0 -4 4l122 688l-283 -142q-4 -2 -5 1l-3 6q-3 3 2 5l290 146q4 2 6 2h6z" />
    <glyph glyph-name="two" unicode="2" horiz-adv-x="576" 
d="M105 563q51 83 116.5 122t160.5 39q101 0 149 -55t32 -151q-6 -36 -19.5 -65.5t-34.5 -51.5t-42.5 -38.5t-52.5 -31t-55.5 -24t-60.5 -22.5q-13 -5 -20 -7q-44 -15 -69 -25.5t-60 -28.5t-55 -37t-37.5 -47.5t-23.5 -63.5l-10 -62h448q3 0 3 -4l-1 -6q-1 -4 -5 -4h-458
q-6 0 -4 5l12 71q7 38 25.5 69t39.5 51t58 39.5t63 30t73 26.5q119 43 161 69q93 57 111 159q16 89 -29.5 139.5t-138.5 50.5q-90 0 -152 -37t-111 -116q-2 -4 -5 -2l-7 3q-2 2 -1 5z" />
    <glyph glyph-name="three" unicode="3" horiz-adv-x="584" 
d="M549 527q-10 -57 -43 -101.5t-88 -60.5q56 -18 80 -63.5t12 -112.5q-36 -203 -261 -203q-112 0 -160.5 45t-57.5 137q-1 4 4 6l4 1q5 1 6 -3q10 -90 53.5 -131t150.5 -41q215 0 247 189q14 77 -21.5 123t-114.5 46h-191q-4 0 -3 4l1 6q0 4 5 4h191q74 0 117.5 45.5
t55.5 111.5q15 86 -27.5 133.5t-133.5 47.5q-102 0 -159 -37.5t-98 -125.5q-2 -4 -7 -2l-4 1q-4 1 -2 6q40 90 102 131t171 41q97 0 142.5 -52.5t28.5 -144.5z" />
    <glyph glyph-name="four" unicode="4" horiz-adv-x="588" 
d="M544 238q4 0 3 -4l-1 -6q0 -4 -4 -4h-119l-39 -220q-1 -4 -5 -4h-7q-4 0 -3 4l39 220h-386q-4 0 -4 4l1 4q0 2 2 6l471 483q4 3 7 3h7q5 0 4 -5l-85 -481h119zM492 700l-453 -462h371z" />
    <glyph glyph-name="five" unicode="5" horiz-adv-x="579" 
d="M570 710q4 0 4 -4l-2 -6q0 -4 -4 -4h-376l-79 -286h204q108 0 159.5 -56t33.5 -158q-16 -93 -86.5 -152t-181.5 -59q-196 0 -224 153q0 4 2 5l9 3q4 2 4 -3q25 -144 210 -144q104 0 170 56.5t82 143.5q16 95 -30.5 146t-147.5 51h-215q-9 0 -6 8l82 295q4 11 14 11h378z
" />
    <glyph glyph-name="six" unicode="6" horiz-adv-x="608" 
d="M87 351q104 45 248 45q121 0 169.5 -52t30.5 -157q-17 -97 -90 -149t-189 -52q-120 0 -173 64.5t-32 179.5l44 250q42 244 288 244q180 0 211 -148q0 -4 -4 -5l-6 -2q-4 -1 -4 3q-28 138 -199 138q-114 0 -183 -58t-88 -172zM66 230q-20 -109 28.5 -169.5t161.5 -60.5
q110 0 179.5 50t85.5 141q17 97 -29 144t-160 47q-136 0 -248 -47z" />
    <glyph glyph-name="seven" unicode="7" horiz-adv-x="495" 
d="M546 710q4 0 4 -4l-1 -4l-2 -6l-425 -692q-3 -4 -8 -4h-7q-5 0 -1 4l425 692h-437q-4 0 -4 4l2 6q0 4 4 4h450z" />
    <glyph glyph-name="eight" unicode="8" horiz-adv-x="601" 
d="M119 555q14 83 81 126t175 43q112 0 162 -44.5t36 -129.5q-9 -49 -34.5 -86t-61 -58t-63 -31.5t-57.5 -16.5q44 -13 72.5 -26t55.5 -35t36.5 -55.5t1.5 -78.5q-31 -177 -278 -177q-130 0 -181 45t-36 128q7 42 29.5 77t48.5 56.5t60 38.5t58 24.5t48 12.5
q-39 12 -66.5 25.5t-52 35t-33.5 53.5t-1 73zM559 553q14 77 -34 117t-153 40q-101 0 -163.5 -40.5t-75.5 -116.5q-8 -44 2.5 -75.5t45 -52.5t59.5 -30.5t80 -25.5q2 -1 3 -1l5 -2q16 2 33 5.5t52 17t61.5 32t51.5 53.5t33 79zM509 165q2 19 3 34.5t-3.5 29.5t-9 25t-14 21
t-19 18t-23.5 15t-27 13t-30 12t-32.5 10.5t-34.5 10.5q-13 4 -20 6q-12 -2 -26.5 -5.5t-44.5 -12t-56.5 -23.5t-54.5 -35.5t-47.5 -53t-26.5 -71.5q-13 -77 34 -118t170 -41q234 0 262 165z" />
    <glyph glyph-name="nine" unicode="9" horiz-adv-x="608" 
d="M540 359q-104 -45 -248 -45q-121 0 -169.5 52t-30.5 157q17 97 90 149t189 52q120 0 173 -64.5t32 -179.5l-44 -250q-42 -244 -288 -244q-180 0 -211 148q0 4 4 5l6 2q4 1 4 -3q28 -138 199 -138q114 0 183 58t88 172zM561 480q20 109 -28.5 169.5t-161.5 60.5
q-110 0 -179.5 -50t-85.5 -141q-17 -97 29 -144t160 -47q136 0 248 47z" />
    <glyph glyph-name="colon" unicode=":" horiz-adv-x="175" 
d="M117 476q13 0 10 -13l-1 -4q-3 -13 -16 -13h-4q-8 0 -10 2.5t0 10.5l1 4q3 13 16 13h4zM47 26q13 0 10 -13l-1 -4q-3 -13 -16 -13h-4q-8 0 -10 2.5t0 10.5l1 4q3 13 16 13h4z" />
    <glyph glyph-name="semicolon" unicode=";" horiz-adv-x="179" 
d="M108 476q13 0 10 -13l-1 -4q-3 -13 -16 -13h-4q-8 0 -10 2.5t0 10.5l1 4q3 13 16 13h4zM-17 -117q-1 -4 -5 -4h-3q-4 0 -3 4l69 145q3 7 10 7h6q8 0 4 -7z" />
    <glyph glyph-name="less" unicode="&#x3c;" horiz-adv-x="510" 
d="M478 545q3 2 5 1t1 -4l-3 -9q-2 -5 -7 -8l-407 -200v-1l336 -201q6 -4 5 -8l-1 -5q-1 -5 -6 -3l-352 210q-5 3 -4 7l1 4q1 5 6 7z" />
    <glyph glyph-name="equal" unicode="=" horiz-adv-x="612" 
d="M559 433q4 0 4 -4l-1 -6q-1 -4 -5 -4h-464q-4 0 -3 4l1 6q0 4 4 4h464zM524 235q4 0 4 -4l-1 -6q-1 -4 -5 -4h-464q-4 0 -3 4l1 6q0 4 4 4h464z" />
    <glyph glyph-name="greater" unicode="&#x3e;" horiz-adv-x="509" 
d="M111 542q1 5 6 3l352 -210q5 -3 4 -7l-1 -4q-1 -5 -6 -7l-426 -210q-3 -2 -5 -1t-1 4l3 8q2 5 7 8l407 200l1 1l-337 201q-6 4 -5 8z" />
    <glyph glyph-name="question" unicode="?" horiz-adv-x="549" 
d="M82 575q92 165 273 165q106 0 159 -58.5t37 -146.5q-8 -46 -25.5 -82.5t-45 -64t-49 -43.5t-56.5 -37q-34 -21 -50 -32t-40.5 -34t-38.5 -51t-21 -64q-1 -4 -4 -4h-6q-4 0 -4 4q7 39 21.5 68.5t40 53.5t43.5 36.5t53 34.5q35 21 55 35.5t46.5 40.5t42.5 60.5t23 78.5
q15 82 -32.5 136.5t-147.5 54.5q-175 0 -260 -155q-3 -4 -6 -3l-6 2q-3 1 -2 5zM203 26q13 0 10 -13v-4q-3 -13 -16 -13h-4q-8 0 -9.5 2.5t-0.5 10.5v4q3 13 16 13h4z" />
    <glyph glyph-name="at" unicode="@" horiz-adv-x="899" 
d="M57 325q33 185 157 292t308 107q189 0 273 -108.5t52 -290.5l-11 -67q-18 -102 -79.5 -155.5t-134.5 -53.5q-49 0 -45 45q-86 -45 -199 -45q-85 0 -119.5 41.5t-20.5 118.5l29 163q13 77 62.5 119.5t133.5 42.5q99 0 166 -30q19 -9 24.5 -18.5t1.5 -29.5l-62 -354
q-7 -39 31 -39q67 0 123.5 49.5t73.5 145.5l11 67q32 178 -49 281.5t-264 103.5q-176 0 -296 -103t-151 -282l-11 -67q-32 -181 51 -278.5t261 -97.5q53 0 107.5 7t82.5 15l28 7q4 0 4 -1l-1 -9q-1 -4 -5 -5q-96 -28 -218 -28q-186 0 -272 101t-53 289zM621 492
q-58 28 -160 28q-153 0 -179 -148l-29 -163q-25 -146 127 -146q53 0 101 11t68 20t31 17l60 345q3 16 -1 22.5t-18 13.5z" />
    <glyph glyph-name="A" unicode="A" horiz-adv-x="620" 
d="M556 4q0 -4 -5 -4h-4q-6 0 -6 4l-60 257h-354l-150 -257q-3 -4 -8 -4h-6q-7 0 -3 4l412 707q3 5 8 5h6q6 0 6 -5zM383 686q0 1 -1 5t-1 7h-1q-3 -9 -5 -12l-240 -411h344z" />
    <glyph glyph-name="B" unicode="B" horiz-adv-x="636" 
d="M448 710q87 0 127 -45.5t25 -130.5q-24 -138 -144 -169v-1q64 -13 92.5 -61.5t14.5 -119.5q-17 -89 -74.5 -136t-147.5 -47h-303q-4 0 -3 4l124 702q0 4 4 4h285zM585 534q14 80 -21.5 121t-116.5 41h-275l-58 -326h275q81 0 131.5 42t64.5 122zM548 186q14 81 -24 125.5
t-121 44.5h-291l-60 -342h291q84 0 137 44t68 128z" />
    <glyph glyph-name="C" unicode="C" horiz-adv-x="631" 
d="M97 483q20 114 97.5 177.5t205.5 63.5q115 0 167.5 -43.5t61.5 -133.5q1 -5 -4 -6l-4 -1q-5 -2 -5 2q-10 88 -59 128t-157 40q-122 0 -196 -60t-92 -166l-44 -254q-19 -108 34 -168t173 -60q111 0 174.5 41.5t104.5 130.5q2 4 6 3l5 -2q4 -1 2 -6q-43 -94 -107.5 -138.5
t-183.5 -44.5q-127 0 -185.5 64.5t-38.5 177.5z" />
    <glyph glyph-name="D" unicode="D" horiz-adv-x="638" 
d="M360 710q138 0 201.5 -71t41.5 -195l-32 -182q-22 -123 -110 -192.5t-226 -69.5h-197q-4 0 -3 4l124 702q0 4 4 4h197zM589 446q20 118 -39.5 184t-191.5 66h-186l-120 -682h186q132 0 215 66t104 184z" />
    <glyph glyph-name="E" unicode="E" horiz-adv-x="565" 
d="M576 710q4 0 4 -4l-2 -6q0 -4 -4 -4h-402l-58 -329h360q4 0 3 -4l-1 -6q-1 -4 -5 -4h-360l-59 -339h417q3 0 3 -4l-1 -6q-1 -4 -5 -4h-428q-4 0 -3 4l124 702q0 4 4 4h413z" />
    <glyph glyph-name="F" unicode="F" horiz-adv-x="554" 
d="M576 710q4 0 4 -4l-2 -6q0 -4 -4 -4h-402l-60 -340h353q4 0 3 -4l-1 -6q0 -4 -5 -4h-353l-59 -338q-1 -4 -5 -4h-7q-4 0 -3 4l124 702q0 4 4 4h413z" />
    <glyph glyph-name="G" unicode="G" horiz-adv-x="647" 
d="M594 345q5 0 4 -5l-20 -111q-20 -114 -98 -178.5t-204 -64.5q-128 0 -186 64.5t-38 178.5l45 254q20 114 97.5 177.5t205.5 63.5q115 0 168 -44t62 -133q0 -5 -4 -6l-5 -1q-5 -2 -5 2q-10 88 -59 128t-157 40q-123 0 -196 -59.5t-92 -166.5l-44 -254q-19 -109 33 -169.5
t175 -60.5q119 0 194 61t94 169l17 101h-239q-3 0 -3 4l1 6q1 4 5 4h249z" />
    <glyph glyph-name="H" unicode="H" horiz-adv-x="678" 
d="M657 710q4 0 4 -4l-124 -702q-1 -4 -5 -4h-7q-4 0 -3 4l61 349h-472l-61 -349q-1 -4 -5 -4h-7q-4 0 -3 4l124 702q0 4 4 4h7q4 0 4 -4l-60 -339h472l60 339q0 4 4 4h7z" />
    <glyph glyph-name="I" unicode="I" horiz-adv-x="191" 
d="M159 706q0 4 4 4h7q4 0 4 -4l-124 -702q-1 -4 -5 -4h-7q-4 0 -3 4z" />
    <glyph glyph-name="J" unicode="J" horiz-adv-x="562" 
d="M547 710q5 0 4 -4l-88 -499q-18 -104 -87.5 -163t-178.5 -59q-198 0 -193 209q0 5 3 6l7 2q2 1 4 0t1 -3q-2 -98 40 -148.5t139 -50.5q102 0 167 56t83 154l88 496q0 4 4 4h7z" />
    <glyph glyph-name="K" unicode="K" horiz-adv-x="588" 
d="M514 5q2 -5 -4 -5h-4q-6 0 -7 4l-80 244q-19 56 -50 80.5t-96 24.5h-162l-61 -349q-1 -4 -5 -4h-7q-4 0 -3 4l124 702q0 4 4 4h7q4 0 4 -4l-60 -339h157q20 0 30 -1l309 340q3 4 9 4h7q7 0 2 -5l-311 -342q47 -8 73.5 -34.5t41.5 -72.5z" />
    <glyph glyph-name="L" unicode="L" horiz-adv-x="503" 
d="M170 710q4 0 4 -4l-122 -692h394q3 0 3 -4l-1 -6q-1 -4 -5 -4h-405q-4 0 -3 4l124 702q0 4 4 4h7z" />
    <glyph glyph-name="M" unicode="M" horiz-adv-x="791" 
d="M770 710q4 0 4 -4l-124 -702q-1 -4 -5 -4h-7q-4 0 -3 4l92 520l28 154h-1q-16 -21 -47 -63t-47 -63l-275 -373q-4 -5 -8 -5h-6q-6 0 -7 5l-147 378q-8 20 -23.5 61t-23.5 61h-1l-28 -155l-91 -520q-1 -4 -5 -4h-7q-4 0 -3 4l124 702q0 4 4 4h5q4 0 6 -5l202 -513l378 512
q4 6 9 6h7z" />
    <glyph glyph-name="N" unicode="N" horiz-adv-x="685" 
d="M664 710q4 0 4 -4l-124 -702q-1 -4 -5 -4h-6q-4 0 -6 4l-297 563q-5 10 -26.5 51.5t-33.5 63.5h-1q-17 -92 -26 -151l-93 -527q-1 -4 -5 -4h-7q-4 0 -3 4l124 702q0 4 4 4h4l6 -3l289 -546q48 -88 71 -132h1q5 28 14.5 85t14.5 86l90 507q0 3 4 3h7z" />
    <glyph glyph-name="O" unicode="O" horiz-adv-x="660" 
d="M99 485q20 114 98.5 176.5t206.5 62.5q127 0 184.5 -65.5t36.5 -179.5l-45 -254q-20 -114 -97.5 -176.5t-204.5 -62.5q-128 0 -186.5 65.5t-37.5 179.5zM610 481q19 108 -34.5 168.5t-172.5 60.5q-121 0 -195.5 -59.5t-93.5 -169.5l-45 -252q-19 -108 34.5 -168.5
t174.5 -60.5q119 0 193.5 60.5t93.5 168.5z" />
    <glyph glyph-name="P" unicode="P" horiz-adv-x="612" 
d="M434 710q99 0 147.5 -59t29.5 -158q-19 -98 -85 -151.5t-166 -53.5h-260l-50 -284q-1 -4 -5 -4h-7q-4 0 -3 4l124 702q0 4 4 4h271zM361 302q94 0 157 52t79 144q16 93 -28 145.5t-138 52.5h-259l-70 -394h259z" />
    <glyph glyph-name="Q" unicode="Q" horiz-adv-x="670" 
d="M99 485q20 114 98.5 176.5t206.5 62.5q127 0 184.5 -65.5t36.5 -179.5l-45 -254q-20 -114 -97 -176l61 -92q3 -3 -1 -6l-5 -4q-4 -3 -6 0l-62 92q-76 -53 -192 -53q-128 0 -186.5 65.5t-37.5 179.5zM403 710q-121 0 -195.5 -59.5t-93.5 -169.5l-45 -252
q-19 -108 34.5 -168.5t174.5 -60.5q119 0 193.5 60.5t93.5 168.5l45 252q19 108 -34.5 168.5t-172.5 60.5z" />
    <glyph glyph-name="R" unicode="R" horiz-adv-x="633" 
d="M454 710q92 0 134 -51.5t26 -143.5q-15 -89 -75.5 -137t-150.5 -50q60 -23 85 -97l74 -226q2 -5 -4 -5h-5q-6 0 -7 4l-73 219q-18 55 -51.5 80t-98.5 25h-201l-57 -324q-1 -4 -5 -4h-7q-4 0 -3 4l124 702q0 4 4 4h291zM600 518q15 85 -24 131.5t-125 46.5h-279l-63 -354
h279q85 0 141 46t71 130z" />
    <glyph glyph-name="S" unicode="S" horiz-adv-x="609" 
d="M102 545q16 88 87 133.5t185 45.5q94 0 147 -39t77 -114q2 -5 -3 -6l-3 -2q-5 -1 -6 1q-23 72 -73.5 108.5t-140.5 36.5q-107 0 -174.5 -43t-81.5 -124q-9 -49 5 -83t49 -53t70.5 -28t87.5 -15q43 -5 72 -10.5t62 -19t51 -32t27 -51t1 -75.5q-17 -96 -87.5 -142.5
t-198.5 -46.5q-100 0 -158 43.5t-80 135.5q-1 5 3 7l6 2q4 1 5 -2q23 -90 76.5 -130.5t147.5 -40.5q241 0 272 177q7 40 -2 69.5t-25 46t-49 28.5t-59 16.5t-69 9.5q-53 7 -91 17t-74 31t-50.5 58.5t-5.5 90.5z" />
    <glyph glyph-name="T" unicode="T" horiz-adv-x="516" 
d="M571 710q4 0 4 -4l-2 -6q0 -4 -4 -4h-235l-122 -692q-1 -4 -5 -4h-7q-4 0 -3 4l122 692h-235q-4 0 -4 4l2 6q0 4 4 4h485z" />
    <glyph glyph-name="U" unicode="U" horiz-adv-x="678" 
d="M86 239q-19 -112 30.5 -176t169.5 -64t192.5 64t91.5 176l83 467q0 4 4 4h7q5 0 4 -4l-83 -470q-21 -119 -97 -185t-203 -66t-181 68.5t-33 187.5l83 465q1 4 4 4h7q4 0 4 -4z" />
    <glyph glyph-name="V" unicode="V" horiz-adv-x="601" 
d="M658 710q4 0 2 -4l-402 -701q-3 -5 -8 -5h-6q-6 0 -6 5l-154 701q-2 4 3 4h7q5 0 6 -4l138 -633l12 -52h1q5 8 14.5 25.5t14.5 26.5l363 633q3 4 6 4h9z" />
    <glyph glyph-name="W" unicode="W" horiz-adv-x="857" 
d="M901 710q4 0 3 -4l-318 -701q-2 -5 -8 -5h-6q-6 0 -6 5l-63 578q0 2 -3.5 34t-5.5 48h-1q-18 -40 -38 -82l-269 -578q-2 -5 -8 -5h-6q-6 0 -6 5l-70 701q-1 4 3 4h7q5 0 6 -4l59 -603q3 -24 7 -79h1l36 78l272 584q3 4 7 4h7q5 0 5 -4l64 -586q1 -12 4 -37.5t4 -38.5h1
q22 50 32 75l277 607q1 4 6 4h7z" />
    <glyph glyph-name="X" unicode="X" horiz-adv-x="594" 
d="M641 710q5 0 3 -4l-326 -347l208 -352q5 -7 -2 -7h-8q-5 0 -6 4l-203 343l-322 -343q-4 -4 -8 -4h-11q-5 0 0 7l333 354l-203 345q-2 4 3 4h8q4 0 7 -4l196 -333l313 333q3 4 7 4h11z" />
    <glyph glyph-name="Y" unicode="Y" horiz-adv-x="606" 
d="M660 710q5 0 3 -4l-354 -410l-51 -292q-1 -4 -5 -4h-7q-4 0 -3 4l51 293l-207 409q-2 4 3 4h8q4 0 7 -4l199 -394l339 394q3 4 7 4h10z" />
    <glyph glyph-name="Z" unicode="Z" horiz-adv-x="533" 
d="M565 710q4 0 4 -4l-1 -4q-1 -5 -4 -8l-570 -679h463q4 0 3 -4l-1 -7q-1 -4 -5 -4h-477q-4 0 -3 4l1 5q0 5 4 10l569 677h-444q-4 0 -4 4l2 6q0 4 4 4h459z" />
    <glyph glyph-name="bracketleft" unicode="[" horiz-adv-x="236" 
d="M323 856q4 0 3 -4l-1 -6q0 -4 -4 -4h-137l-172 -974h137q4 0 3 -4l-1 -6q-1 -4 -5 -4h-148q-4 0 -3 4l175 994q1 4 5 4h148z" />
    <glyph glyph-name="backslash" unicode="\" horiz-adv-x="372" 
d="M108 706q-2 4 3 4h8q5 0 6 -4l147 -762q2 -4 -4 -4h-8q-4 0 -5 4z" />
    <glyph glyph-name="bracketright" unicode="]" horiz-adv-x="235" 
d="M257 856q4 0 3 -4l-175 -994q-1 -4 -5 -4h-148q-4 0 -3 4l1 6q1 4 5 4h137l172 974h-137q-4 0 -4 4l1 6q1 4 5 4h148z" />
    <glyph glyph-name="asciicircum" unicode="^" horiz-adv-x="594" 
d="M390 810q4 0 5 -3l183 -281q3 -6 -3 -6h-7q-5 0 -9 4l-172 268h-2l-264 -268q-3 -4 -9 -4h-9q-7 0 -1 6l277 281q3 3 7 3h4z" />
    <glyph glyph-name="underscore" unicode="_" horiz-adv-x="516" 
d="M427 0q4 0 3 -4l-1 -6q0 -4 -4 -4h-444q-4 0 -4 4l1 6q1 4 5 4h444z" />
    <glyph glyph-name="grave" unicode="`" horiz-adv-x="257" 
d="M114 719q4 4 9 1l156 -115q3 -3 0 -6l-1 -1q-4 -4 -7 -1l-158 114q-4 3 0 7z" />
    <glyph glyph-name="a" unicode="a" horiz-adv-x="526" 
d="M65 340q16 96 72.5 140t162.5 44q89 0 151 -28q23 -10 29 -20.5t2 -34.5l-72 -410q-1 -5 -10 -9q-95 -36 -212 -36q-94 0 -130.5 55.5t-19.5 148.5zM444 483q-62 28 -146 28q-98 0 -150.5 -40t-68.5 -131l-27 -150q-16 -88 17.5 -139.5t120.5 -51.5q119 0 206 36l72 406
q3 20 -1 26.5t-23 15.5z" />
    <glyph glyph-name="b" unicode="b" horiz-adv-x="531" 
d="M160 740q3 0 3 -4l-46 -258q103 46 208 46q187 0 153 -192l-27 -150q-33 -196 -238 -196q-89 0 -151 28q-23 10 -29 20.5t-2 34.5l118 667q0 4 5 4h6zM464 334q32 177 -141 177q-104 0 -208 -48l-70 -394q-3 -20 1 -26.5t23 -15.5q62 -28 146 -28q190 0 222 185z" />
    <glyph glyph-name="c" unicode="c" horiz-adv-x="510" 
d="M63 337q16 89 77 138t162 49q89 0 129.5 -36t49.5 -104q1 -6 -3 -6l-5 -1q-5 -1 -5 2q-9 67 -47 99t-121 32q-94 0 -151 -46.5t-72 -128.5l-28 -159q-14 -82 27.5 -129t133.5 -47q82 0 134 33.5t85 105.5q1 4 5 3l7 -2q2 -1 1 -5q-34 -76 -90.5 -112.5t-142.5 -36.5
q-99 0 -144.5 51t-29.5 141z" />
    <glyph glyph-name="d" unicode="d" horiz-adv-x="530" 
d="M63 334q34 190 219 190q109 0 192 -45l46 257q0 4 5 4h6q3 0 3 -4l-118 -667q-4 -24 -13.5 -34.5t-35.5 -20.5q-73 -28 -161 -28q-204 0 -170 198zM472 464q-80 47 -192 47q-171 0 -203 -177l-27 -150q-32 -185 158 -185q85 0 156 28q22 9 28 15.5t10 26.5z" />
    <glyph glyph-name="e" unicode="e" horiz-adv-x="514" 
d="M59 320q17 97 81.5 150.5t163.5 53.5q102 0 149 -44t26 -124q-16 -66 -74.5 -99.5t-149.5 -33.5q-107 0 -196 21l-12 -67q-15 -84 24.5 -131t132.5 -47q76 0 126 27.5t88 80.5q2 4 6 2l5 -3q2 -1 0 -5q-81 -115 -227 -115q-100 0 -142.5 50.5t-26.5 140.5zM465 359
q20 74 -24 113t-139 39q-92 0 -153 -51t-77 -142l-11 -60q85 -22 197 -22q175 0 207 123z" />
    <glyph glyph-name="f" unicode="f" horiz-adv-x="330" 
d="M394 740q4 0 3 -4l-1 -5q-1 -4 -5 -4q-103 0 -145.5 -35t-60.5 -140l-7 -42h178q4 0 3 -4l-1 -5q0 -4 -4 -4h-178l-87 -493q-1 -4 -5 -4h-6q-4 0 -3 4l87 493h-121q-4 0 -4 4l1 5q1 4 5 4h121l7 42q19 109 65.5 148t151.5 40h6z" />
    <glyph glyph-name="g" unicode="g" horiz-adv-x="531" 
d="M63 329q33 195 238 195q89 0 151 -28q23 -10 29 -20.5t2 -34.5l-86 -486q-38 -215 -240 -215q-132 0 -167 120q-2 4 3 6l5 2q3 2 5 -2q16 -55 51.5 -83.5t105.5 -28.5q187 0 223 201l13 75q-95 -44 -207 -44q-95 0 -132 50.5t-21 141.5zM445 483q-62 28 -146 28
q-97 0 -151 -45t-71 -137l-27 -151q-32 -179 141 -179q114 0 208 47l70 395q3 20 -1 26.5t-23 15.5z" />
    <glyph glyph-name="h" unicode="h" horiz-adv-x="545" 
d="M163 740q3 0 3 -4l-45 -255q100 43 205 43q188 0 155 -190l-58 -330q-1 -4 -5 -4h-6q-4 0 -3 4l58 329q31 178 -143 178q-106 0 -206 -45l-81 -462q-1 -4 -5 -4h-6q-4 0 -3 4l129 732q0 4 5 4h6z" />
    <glyph glyph-name="i" unicode="i" horiz-adv-x="164" 
d="M151 683q13 0 10 -12v-4q-3 -12 -14 -12h-4q-7 0 -9 2.5t-1 9.5v4q3 12 14 12h4zM122 510q4 0 3 -4l-88 -502q-1 -4 -5 -4h-6q-4 0 -3 4l88 502q1 4 5 4h6z" />
    <glyph glyph-name="j" unicode="j" horiz-adv-x="164" 
d="M151 683q13 0 10 -12v-4q-3 -12 -14 -12h-4q-7 0 -9 2.5t-1 9.5v4q3 12 14 12h4zM122 510q4 0 3 -4l-91 -516q-20 -112 -70 -166t-154 -54q-3 0 -3 4l1 6q1 4 5 4q97 0 143 50t64 155l91 517q1 4 5 4h6z" />
    <glyph glyph-name="k" unicode="k" horiz-adv-x="488" 
d="M412 4q0 -4 -3 -4h-7q-5 0 -5 3l-59 181q-13 40 -35 56.5t-67 16.5h-155l-44 -253q-1 -4 -5 -4h-6q-4 0 -3 4l129 732q0 4 5 4h6q3 0 3 -4l-82 -466h152h11l229 236q4 4 10 4h5q7 0 2 -5l-229 -237q36 -4 56 -23t32 -55z" />
    <glyph glyph-name="l" unicode="l" horiz-adv-x="172" 
d="M41 4q-1 -4 -5 -4h-6q-4 0 -3 4l129 732q0 4 5 4h6q3 0 3 -4z" />
    <glyph glyph-name="m" unicode="m" horiz-adv-x="805" 
d="M410 471q85 53 195 53q169 0 137 -180l-60 -340q-1 -4 -5 -4h-6q-4 0 -3 4l60 339q15 87 -15 127.5t-110 40.5q-104 0 -187 -51q21 -41 9 -116l-60 -340q-1 -4 -5 -4h-6q-4 0 -3 4l60 339q15 86 -17 127t-113 41q-76 0 -137 -29q-29 -13 -34 -44l-76 -434q-1 -4 -5 -4h-6
q-4 0 -3 4l76 434q4 22 14 34t33 23q66 29 140 29q94 0 127 -53z" />
    <glyph glyph-name="n" unicode="n" horiz-adv-x="542" 
d="M143 492q83 32 180 32q189 0 155 -190l-58 -330q-1 -4 -5 -4h-6q-4 0 -3 4l58 329q31 178 -143 178q-97 0 -178 -32q-28 -12 -33 -41l-76 -434q-1 -4 -5 -4h-6q-4 0 -3 4l76 434q5 23 14 33.5t33 20.5z" />
    <glyph glyph-name="o" unicode="o" horiz-adv-x="535" 
d="M69 358q13 76 78 121t158 45q95 0 144.5 -44.5t36.5 -121.5l-36 -206q-13 -77 -77.5 -121.5t-158.5 -44.5t-144 45t-37 121zM472 359q13 69 -33.5 110.5t-134.5 41.5q-86 0 -147 -41.5t-74 -110.5l-36 -208q-13 -69 34 -110.5t133 -41.5q88 0 148.5 41.5t73.5 110.5z" />
    <glyph glyph-name="p" unicode="p" horiz-adv-x="530" 
d="M146 496q73 28 161 28q204 0 170 -198l-27 -151q-34 -189 -219 -189q-108 0 -191 53l-45 -255q-1 -4 -5 -4h-6q-4 0 -3 4l116 657q4 24 13.5 34.5t35.5 20.5zM463 326q32 185 -158 185q-85 0 -156 -28q-23 -9 -29 -16t-9 -26l-68 -386q82 -56 190 -56q172 0 203 176z" />
    <glyph glyph-name="q" unicode="q" horiz-adv-x="532" 
d="M302 524q89 0 151 -28q23 -10 29 -20.5t2 -34.5l-116 -657q-1 -4 -5 -4h-6q-4 0 -3 4l45 255q-102 -53 -209 -53q-187 0 -153 189l27 151q34 198 238 198zM51 175q-31 -176 141 -176q109 0 210 56l68 386q3 20 -1 26.5t-23 15.5q-62 28 -146 28q-190 0 -222 -185z" />
    <glyph glyph-name="r" unicode="r" horiz-adv-x="330" 
d="M323 524h30q4 0 4 -4l-1 -5q-1 -4 -5 -4h-30q-97 0 -178 -32q-28 -12 -33 -41l-76 -434q-1 -4 -5 -4h-6q-4 0 -3 4l76 434q5 23 14 33.5t33 20.5q83 32 180 32z" />
    <glyph glyph-name="s" unicode="s" horiz-adv-x="485" 
d="M70 387q25 137 209 137q154 0 175 -110q1 -4 -2 -6l-4 -2q-4 -2 -6 2q-11 51 -48 77t-116 26q-84 0 -133.5 -32.5t-60.5 -93.5q-3 -16 -3.5 -30t3.5 -24.5t7 -19t12.5 -15.5t15 -11.5t19.5 -8.5l21 -6t25.5 -4.5t26 -3t28.5 -2.5q7 -1 11 -1q42 -4 69.5 -10.5t53 -20.5
t35 -40.5t2.5 -65.5q-24 -136 -216 -136q-80 0 -126.5 29.5t-60.5 98.5q0 5 3 6l6 2q4 1 4 -2q12 -65 55.5 -93t119.5 -28q179 0 201 125q6 35 -2.5 58.5t-32.5 36t-49 18t-66 9.5q-99 10 -131 26q-60 29 -45 115z" />
    <glyph glyph-name="t" unicode="t" horiz-adv-x="318" 
d="M193 630q4 0 3 -4l-20 -116h177q4 0 3 -4l-1 -5q0 -4 -4 -4h-177l-57 -324q-18 -105 11.5 -139t132.5 -34q4 0 3 -4l-1 -6q0 -4 -4 -4q-108 0 -142 38.5t-14 148.5l57 324h-123q-4 0 -4 4l1 5q1 4 5 4h123l20 116q1 4 5 4h6z" />
    <glyph glyph-name="u" unicode="u" 
d="M504 510q4 0 3 -4l-76 -434q-5 -23 -14 -33.5t-33 -20.5q-83 -32 -180 -32q-189 0 -155 190l58 330q1 4 5 4h6q4 0 3 -4l-58 -329q-31 -178 142 -178q98 0 179 32q28 12 33 41l76 434q1 4 5 4h6z" />
    <glyph glyph-name="v" unicode="v" horiz-adv-x="487" 
d="M505 510q5 0 2 -4l-307 -506q-4 -5 -8 -5h-4q-5 0 -6 5l-129 505q-1 5 4 5h6q3 0 4 -5l109 -427q3 -11 8.5 -32.5t7.5 -32.5h1l39 64l259 429q3 4 8 4h6z" />
    <glyph glyph-name="w" unicode="w" horiz-adv-x="724" 
d="M734 510q5 0 2 -5l-252 -506q-3 -5 -6 -5h-7q-5 0 -5 5l-63 403q-6 44 -10 66h-1q-6 -13 -18 -36t-16 -30l-207 -403q-3 -5 -6 -5h-7q-3 0 -4 5l-73 506q0 5 4 5h6q4 0 4 -5l58 -404l12 -83h1l43 85l198 383q1 4 6 4h5q4 0 5 -4l60 -378q10 -60 14 -90h1q7 15 22 44.5
t22 43.5l199 400q2 4 7 4h6z" />
    <glyph glyph-name="x" unicode="x" horiz-adv-x="460" 
d="M469 510q5 0 1 -3l-239 -246l161 -258q0 -3 -3 -3h-9q-2 0 -4 3l-154 249l-240 -249q-4 -3 -7 -3h-10q-4 0 -1 3l251 260l-153 244q0 3 4 3h7q4 0 5 -3l147 -235l227 235q4 3 7 3h10z" />
    <glyph glyph-name="y" unicode="y" horiz-adv-x="546" 
d="M504 510q4 0 3 -4l-97 -551q-38 -215 -242 -215q-134 0 -169 120q-1 4 3 6l5 2q5 2 5 -2q17 -54 53 -83t106 -29q189 0 225 201l13 72q-112 -41 -205 -41q-189 0 -155 190l58 330q1 4 5 4h6q4 0 3 -4l-58 -329q-15 -89 18 -133.5t125 -44.5q96 0 205 42l82 465q1 4 5 4h6
z" />
    <glyph glyph-name="z" unicode="z" horiz-adv-x="429" 
d="M349 13q3 0 3 -4l-1 -5q-1 -4 -4 -4h-369q-4 0 -3 4l1 5q0 3 4 7l437 481h-348q-3 0 -3 4l1 5q1 4 4 4h361q4 0 3 -4l-1 -5q0 -2 -4 -8l-436 -480h355z" />
    <glyph glyph-name="braceleft" unicode="{" horiz-adv-x="285" 
d="M373 856q4 0 3 -4l-1 -6q0 -4 -4 -4h-42q-55 0 -83 -26.5t-38 -82.5l-46 -262q-17 -96 -84 -117q59 -21 43 -115l-46 -263q-10 -56 8.5 -82.5t73.5 -26.5h42q3 0 3 -4l-1 -6q-1 -4 -5 -4h-42q-63 0 -84 29.5t-10 93.5l46 263q11 59 -7.5 84t-74.5 25h-12q-3 0 -3 4l1 6
q1 4 5 4h12q55 0 82.5 26.5t37.5 82.5l46 262q12 64 44 93.5t94 29.5h42z" />
    <glyph glyph-name="bar" unicode="|" horiz-adv-x="158" 
d="M180 856q4 0 3 -4l-175 -995q-1 -4 -5 -4h-5q-4 0 -3 4l175 995q1 4 5 4h5z" />
    <glyph glyph-name="braceright" unicode="}" horiz-adv-x="285" 
d="M150 856q63 0 84 -29.5t10 -93.5l-46 -262q-10 -56 8.5 -82.5t73.5 -26.5h12q4 0 3 -4l-1 -6q0 -4 -5 -4h-12q-55 0 -82.5 -26.5t-37.5 -82.5l-46 -263q-12 -64 -44 -93.5t-94 -29.5h-42q-4 0 -3 4l1 6q0 4 5 4h42q55 0 82.5 26.5t37.5 82.5l46 263q17 96 84 117
q-59 21 -43 115l46 262q10 56 -8 82.5t-73 26.5h-42q-4 0 -4 4l1 6q1 4 5 4h42z" />
    <glyph glyph-name="asciitilde" unicode="~" horiz-adv-x="563" 
d="M69 301q65 50 122 50q41 0 95.5 -24t91.5 -24q56 0 114 46q3 3 6 0l3 -4q3 -3 -1 -6q-65 -50 -123 -50q-41 0 -96 24t-92 24q-53 0 -112 -46q-3 -3 -6 0l-3 4q-2 3 1 6z" />
    <glyph glyph-name="exclamdown" unicode="&#xa1;" horiz-adv-x="156" 
d="M106 480q-13 0 -10 13v4q3 13 16 13h4q8 0 9.5 -2.5t0.5 -10.5v-4q-3 -13 -16 -13h-4zM-22 -234q-3 0 -3 4l109 602q1 4 5 4h3q4 0 3 -4l-103 -602q0 -4 -5 -4h-9z" />
    <glyph glyph-name="cent" unicode="&#xa2;" horiz-adv-x="529" 
d="M444 140q2 -1 1 -5q-66 -146 -227 -149l-12 -66q-1 -4 -5 -4h-7q-4 0 -3 4l12 66q-94 2 -136.5 54t-27.5 140l28 159q15 86 74 134.5t156 50.5l15 82q0 4 5 4h7q3 0 3 -4l-15 -82q87 -1 126.5 -36t46.5 -103q0 -5 -3 -6l-6 -2q-4 -1 -5 2q-8 70 -45.5 100.5t-122.5 30.5
q-94 0 -151 -46.5t-72 -128.5l-28 -159q-14 -82 27.5 -129t133.5 -47q82 0 134 33.5t85 105.5q1 4 5 3z" />
    <glyph glyph-name="sterling" unicode="&#xa3;" horiz-adv-x="623" 
d="M206 553q13 77 69 124t158 47q79 0 123 -35.5t58 -121.5q0 -4 -4 -5l-4 -2q-4 -2 -6 3q-14 83 -54 115t-116 32q-94 0 -145.5 -43t-63.5 -114l-37 -207h300q4 0 3 -4l-1 -6q0 -4 -4 -4h-300l-37 -208q-13 -74 -69 -109v-1h101h339q3 0 3 -4l-1 -6q-1 -4 -5 -4h-519
q-4 0 -3 4l1 6q0 4 5 4h27q44 0 71.5 34.5t34.5 75.5l37 208h-100q-4 0 -4 4l1 6q1 4 5 4h100z" />
    <glyph glyph-name="currency" unicode="&#xa4;" horiz-adv-x="586" 
d="M172 502q77 61 165 61q87 0 145 -60l70 59q3 3 6 0l3 -4q3 -3 -1 -6l-70 -59q52 -67 36 -157q-15 -87 -86 -155l48 -58q2 -3 -1 -6l-5 -4q-3 -3 -6 0l-48 58q-78 -62 -167 -62t-145 61l-70 -60q-3 -3 -6 0l-3 4q-3 2 1 6l71 60q-52 66 -37 156q16 89 88 156l-48 58
q-2 2 1 6l5 4q3 3 6 0zM510 337q16 88 -34.5 149t-139.5 61t-160.5 -61t-87.5 -149q-15 -88 35.5 -150.5t138.5 -62.5t160.5 62.5t87.5 150.5z" />
    <glyph glyph-name="yen" unicode="&#xa5;" horiz-adv-x="624" 
d="M655 710q5 0 3 -4l-331 -380h174q3 0 3 -4l-1 -5q-1 -4 -5 -4h-181l-22 -128h181q3 0 3 -4l-1 -5q0 -4 -5 -4h-181l-29 -168q-1 -4 -5 -4h-7q-4 0 -3 4l29 168h-183q-3 0 -3 4l1 5q0 4 5 4h183l22 128h-183q-4 0 -3 4l1 5q0 4 5 4h175l-195 380q-2 4 3 4h8q4 0 7 -4
l192 -375l326 375q3 4 7 4h10z" />
    <glyph glyph-name="brokenbar" unicode="&#xa6;" horiz-adv-x="170" 
d="M186 856q4 0 3 -4l-73 -417q-1 -4 -5 -4h-5q-4 0 -3 4l73 417q1 4 5 4h5zM84 279q4 0 4 -4l-74 -417q-1 -4 -5 -4h-5q-4 0 -3 4l74 417q0 4 4 4h5z" />
    <glyph glyph-name="section" unicode="&#xa7;" horiz-adv-x="583" 
d="M110 571q29 161 249 161q180 0 209 -169q1 -3 -4 -5l-5 -2q-4 -2 -6 3q-28 159 -196 159q-105 0 -162 -40.5t-70 -110.5q-7 -38 2 -65t24 -42t47.5 -25t55 -13.5t65.5 -7.5q47 -5 80.5 -13.5t64 -26t43.5 -48.5t5 -75q-20 -109 -143 -162q118 -32 96 -153
q-13 -75 -77.5 -118.5t-180.5 -43.5q-186 0 -214 178q-1 4 3 5l7 2q4 1 4 -3q14 -85 63 -126t138 -41q108 0 169 41t73 110q7 38 -1.5 65t-25.5 42t-47 24.5t-57.5 13.5t-65.5 8h-3q-39 4 -66.5 9t-57.5 16.5t-46.5 28t-25 44.5t-1.5 66q20 117 154 161q-118 31 -97 153z
M315 400q-56 6 -84 11q-16 -4 -34.5 -11.5t-48 -24.5t-52 -48.5t-29.5 -72.5q-6 -34 2 -59.5t23.5 -40.5t45 -25t54 -14t63.5 -8q64 -6 91 -12q15 5 31.5 14t44 27.5t48 49t27.5 67.5q7 41 -5 69.5t-42 44t-60.5 22.5t-74.5 11z" />
    <glyph glyph-name="dieresis" unicode="&#xa8;" horiz-adv-x="439" 
d="M197 663q7 0 8.5 -2t0.5 -9l-1 -6q-2 -11 -13 -11h-6q-11 0 -9 11l1 6q1 11 13 11h6zM384 663q11 0 10 -11l-1 -6q-2 -11 -14 -11h-5q-8 0 -9.5 2t-0.5 9l1 6q1 11 14 11h5z" />
    <glyph glyph-name="copyright" unicode="&#xa9;" horiz-adv-x="816" 
d="M59 351q27 153 148.5 256t273.5 103q151 0 236 -103t58 -256q-27 -152 -148 -255.5t-272 -103.5q-152 0 -237.5 103.5t-58.5 255.5zM761 351q25 147 -56 246t-226 99q-147 0 -264 -99t-142 -246q-26 -146 56 -245.5t228 -99.5q145 0 262 100t142 245zM265 411
q12 68 59 105.5t125 37.5q68 0 99.5 -27.5t37.5 -79.5q0 -4 -2 -5l-7 -2q-5 -1 -5 1q-6 54 -34 76.5t-93 22.5q-142 0 -166 -132l-22 -124q-11 -63 19 -97.5t101 -34.5q63 0 101 25t63 80q2 3 7 2l5 -1q3 -2 2 -5q-50 -115 -180 -115q-76 0 -110 40t-22 109z" />
    <glyph glyph-name="ordfeminine" unicode="&#xaa;" horiz-adv-x="374" 
d="M122 609q52 61 131 61q66 0 87.5 -32.5t10.5 -94.5l-20 -119q-4 -23 -13 -34t-31 -20q-34 -15 -96 -15q-66 0 -91.5 21t-18.5 62q16 90 142 90q62 0 111 -7l4 25q10 55 -9 82.5t-78 27.5q-72 0 -118 -55q-4 -4 -6 -2l-5 3q-3 2 0 7zM331 508q-46 7 -110 7
q-63 0 -91 -20.5t-35 -58.5q-5 -33 17.5 -50t80.5 -17q53 0 91 14q16 6 23 14t10 27z" />
    <glyph glyph-name="guillemotleft" unicode="&#xab;" horiz-adv-x="538" 
d="M222 56q4 -4 -1 -6l-3 -1q-6 -2 -7 0l-174 211q-3 3 1 5l249 213q5 3 6 0l3 -7q2 -4 -2 -7l-240 -204zM442 56q4 -4 -1 -6l-3 -1q-6 -2 -7 0l-174 211q-3 3 1 5l249 213q5 3 6 0l3 -7q2 -4 -2 -7l-240 -204z" />
    <glyph glyph-name="logicalnot" unicode="&#xac;" horiz-adv-x="571" 
d="M509 365q4 0 4 -4l-39 -217q0 -4 -4 -4h-7q-4 0 -4 4l37 207h-408q-4 0 -3 4l1 6q0 4 4 4h419z" />
    <glyph glyph-name="registered" unicode="&#xae;" horiz-adv-x="495" 
d="M90 516q14 82 77.5 138t150.5 56q79 0 126.5 -57t33.5 -137q-14 -83 -76 -138.5t-149 -55.5q-80 0 -128 57t-35 137zM104 516q-14 -75 30 -128.5t120 -53.5q82 0 140 52.5t72 129.5q13 75 -30.5 128t-117.5 53q-83 0 -141.5 -52t-72.5 -129zM319 621q32 0 47.5 -17.5
t10.5 -48.5q-9 -54 -62 -62l30 -77q3 -5 -3 -5h-4q-5 0 -7 3l-29 77h-86l-14 -77q0 -3 -4 -3h-7q-3 0 -3 3l35 199q1 8 10 8h86zM218 504h80q57 0 66 52q4 25 -8.5 38.5t-39.5 13.5h-80z" />
    <glyph glyph-name="macron" unicode="&#xaf;" horiz-adv-x="352" 
d="M363 654q4 0 4 -4l-1 -5q-1 -4 -5 -4h-240q-4 0 -3 4l1 5q0 4 4 4h240z" />
    <glyph glyph-name="degree" unicode="&#xb0;" horiz-adv-x="374" 
d="M368 552q-10 -56 -57.5 -96t-103.5 -40q-58 0 -92 42.5t-23 100.5q10 58 56.5 96t104.5 38q57 0 91 -41.5t24 -99.5zM106 555q-9 -52 20.5 -88t81.5 -36q50 0 93 37t52 87q9 52 -20.5 87.5t-80.5 35.5q-52 0 -94.5 -35.5t-51.5 -87.5z" />
    <glyph glyph-name="plusminus" unicode="&#xb1;" horiz-adv-x="681" 
d="M593 403q4 0 3 -4l-1 -6q0 -4 -4 -4h-224l-27 -151q-1 -4 -5 -4h-6q-4 0 -3 4l27 151h-226q-4 0 -4 4l1 6q1 4 5 4h226l27 154q1 4 5 4h6q4 0 3 -4l-27 -154h224zM550 159q4 0 3 -4l-1 -6q0 -4 -4 -4h-464q-4 0 -4 4l1 6q1 4 5 4h464z" />
    <glyph glyph-name="twosuperior" unicode="&#xb2;" horiz-adv-x="340" 
d="M111 701q1 5 4 13t15.5 28t29 35.5t45.5 28t63 12.5q62 0 90 -32t19 -83q-3 -19 -12.5 -34.5t-16.5 -24.5t-27 -19t-26 -12.5t-33 -11t-29 -9.5l-68 -24q-70 -25 -83 -100l-8 -42h247q5 0 5 -4l-1 -5q-1 -4 -6 -4h-253q-7 0 -6 7l9 48q15 84 94 112l68 24q4 1 28.5 9.5
t30.5 11t24 12t24.5 17t14.5 21.5t11 30q8 45 -16.5 72.5t-80.5 27.5q-31 0 -57 -11t-41.5 -26.5t-26 -31t-14.5 -26.5l-4 -11q-1 -4 -5 -4l-6 1q-5 0 -2 5z" />
    <glyph glyph-name="threesuperior" unicode="&#xb3;" horiz-adv-x="354" 
d="M109 703q27 61 67 88t102 27q56 0 81.5 -31.5t17.5 -81.5q-11 -67 -69 -90q59 -27 47 -99q-9 -51 -47 -81t-102 -30t-94.5 28t-36.5 85q-1 5 3 6l7 2q2 1 3 0t1 -4q6 -56 32.5 -80t85.5 -24q57 0 91.5 27t42.5 71q7 39 -11 66t-55 27h-84q-4 0 -4 4l1 5q1 4 5 4h83
q37 0 59 24.5t29 60.5q8 44 -15.5 71t-72.5 27q-55 0 -92 -25.5t-62 -80.5q-1 -6 -6 -4l-6 2q-3 2 -1 6z" />
    <glyph glyph-name="acute" unicode="&#xb4;" horiz-adv-x="257" 
d="M296 720q5 3 9 -1l2 -3q4 -4 -2 -7l-199 -114q-4 -2 -7 1l-3 4q-3 3 2 6z" />
    <glyph glyph-name="mu" unicode="&#xb5;" horiz-adv-x="535" 
d="M501 510q4 0 3 -4l-76 -435q-4 -22 -14 -33t-33 -21q-85 -32 -178 -32q-138 0 -158 108l-54 -309q-1 -4 -5 -4h-7q-3 0 -2 4l127 722q1 4 5 4h6q4 0 3 -4l-58 -330q-31 -178 143 -178q98 0 177 32q12 5 19.5 12t10 12.5t4.5 16.5l76 435q1 4 5 4h6z" />
    <glyph glyph-name="paragraph" unicode="&#xb6;" horiz-adv-x="279" 
d="M264 710q4 0 4 -4l-140 -791q0 -4 -5 -4h-7q-3 0 -3 4l137 779h-50l-137 -779q0 -4 -5 -4h-6q-3 0 -3 4l120 679q-26 0 -39 16t-9 41q4 27 23.5 43t46.5 16h73z" />
    <glyph glyph-name="periodcentered" unicode="&#xb7;" horiz-adv-x="169" 
d="M83 275q13 0 10 -13l-1 -4q-3 -13 -16 -13h-4q-8 0 -10 2.5t0 10.5l1 4q3 13 16 13h4z" />
    <glyph glyph-name="cedilla" unicode="&#xb8;" horiz-adv-x="251" 
d="M45 -91q18 5 40 5q41 0 60.5 -18t14.5 -51q-7 -43 -39 -67t-80 -24q-52 0 -84 25q-5 4 -4 11l1 6q2 6 4 2q31 -31 85 -31q42 0 69.5 20.5t34.5 57.5q4 28 -13.5 42.5t-54.5 14.5q-27 0 -44 -7q-6 -2 -7.5 0.5t1.5 8.5l51 96h13z" />
    <glyph glyph-name="onesuperior" unicode="&#xb9;" horiz-adv-x="256" 
d="M280 810q4 0 3 -4l-68 -389q-1 -4 -5 -4h-5q-4 0 -3 4l66 375l-170 -85q-4 -2 -5 1l-1 5q-1 3 2 5l176 90q4 2 7 2h3z" />
    <glyph glyph-name="ordmasculine" unicode="&#xba;" horiz-adv-x="379" 
d="M103 557q9 54 47.5 83.5t101.5 29.5q64 0 92 -32.5t18 -87.5l-15 -80q-19 -114 -150 -114q-63 0 -91.5 32.5t-17.5 88.5zM349 553q8 49 -17 76t-82 27q-56 0 -91 -27.5t-43 -75.5l-15 -80q-8 -49 17 -76t81 -27q57 0 92 27t43 76z" />
    <glyph glyph-name="guillemotright" unicode="&#xbb;" horiz-adv-x="540" 
d="M83 469q-3 4 2 7l4 2q5 3 6 0l175 -213q1 -3 -1 -5l-248 -211q-5 -4 -7 0l-4 6q-2 3 1 6l240 204zM303 469q-3 4 2 7l4 2q5 3 6 0l175 -213q1 -3 -1 -5l-248 -211q-5 -4 -7 0l-4 6q-2 3 1 6l240 204z" />
    <glyph glyph-name="onequarter" unicode="&#xbc;" horiz-adv-x="807" 
d="M277 719q4 0 3 -4l-68 -389q-1 -4 -5 -4h-5q-4 0 -3 4l66 375l-170 -85q-4 -2 -5 1l-1 5q-1 3 2 5l176 90q4 2 7 2h3zM689 710q7 0 3 -5l-515 -700q-4 -5 -10 -5h-6q-6 0 -2 5l515 700q4 5 8 5h7zM740 136q4 0 3 -4v-4q-1 -5 -5 -5h-63l-21 -119q-1 -4 -5 -4h-6
q-4 0 -3 4l21 119h-213q-4 0 -4 4l1 3q2 7 3 8l254 255q4 4 10 4h6q5 0 4 -5l-45 -256h63zM706 379l-242 -243h199z" />
    <glyph glyph-name="onehalf" unicode="&#xbd;" horiz-adv-x="885" 
d="M277 719q4 0 3 -4l-68 -389q-1 -4 -5 -4h-5q-4 0 -3 4l66 375l-170 -85q-4 -2 -5 1l-1 5q-1 3 2 5l176 90q4 2 7 2h3zM693 710q7 0 3 -5l-515 -700q-4 -5 -10 -5h-6q-6 0 -2 5l515 700q4 5 8 5h7zM573 288q1 5 4 13t15.5 28t29 35.5t45.5 28t63 12.5q62 0 90 -32t19 -83
q-3 -19 -12.5 -34.5t-16.5 -24.5t-27 -19t-26 -12.5t-33 -11t-29 -9.5l-68 -24q-70 -25 -83 -100l-8 -42h247q5 0 5 -4l-1 -5q-1 -4 -6 -4h-253q-7 0 -6 7l9 48q15 84 94 112l68 24q4 1 28.5 9.5t30.5 11t24 12t24.5 17t14.5 21.5t11 30q8 45 -16.5 72.5t-80.5 27.5
q-31 0 -57 -11t-41.5 -26.5t-26 -31t-14.5 -26.5l-4 -11q-1 -4 -5 -4l-6 1q-5 0 -2 5z" />
    <glyph glyph-name="threequarters" unicode="&#xbe;" horiz-adv-x="866" 
d="M102 612q27 61 67 88t102 27q56 0 81.5 -31.5t17.5 -81.5q-11 -67 -69 -90q59 -27 47 -99q-9 -51 -47 -81t-102 -30t-94.5 28t-36.5 85q-1 5 3 6l7 2q2 1 3 0t1 -4q6 -56 32.5 -80t85.5 -24q57 0 91.5 27t42.5 71q7 39 -11 66t-55 27h-84q-4 0 -4 4l1 5q1 4 5 4h83
q37 0 59 24.5t29 60.5q8 44 -15.5 71t-72.5 27q-55 0 -92 -25.5t-62 -80.5q-1 -6 -6 -4l-6 2q-3 2 -1 6zM752 710q7 0 3 -5l-515 -700q-4 -5 -10 -5h-6q-6 0 -2 5l515 700q4 5 8 5h7zM800 136q4 0 3 -4v-4q-1 -5 -5 -5h-63l-21 -119q-1 -4 -5 -4h-6q-4 0 -3 4l21 119h-213
q-4 0 -4 4l1 3q2 7 3 8l254 255q4 4 10 4h6q5 0 4 -5l-45 -256h63zM766 379l-242 -243h199z" />
    <glyph glyph-name="questiondown" unicode="&#xbf;" 
d="M326 481q-13 0 -10 13v4q3 13 16 13h4q8 0 9.5 -2.5t0.5 -10.5v-4q-3 -13 -16 -13h-4zM447 -68q-92 -165 -273 -165q-106 0 -159 58.5t-37 146.5q8 46 25.5 82.5t45 64t49 43.5t56.5 37q34 21 50 32t40.5 34t38.5 51t21 64q1 4 4 4h6q4 0 4 -4q-7 -39 -21.5 -68.5
t-40 -53.5t-43.5 -36.5t-53 -34.5q-35 -21 -55 -35.5t-46.5 -40.5t-42.5 -60.5t-23 -78.5q-15 -82 32.5 -136.5t147.5 -54.5q175 0 260 155q3 4 6 3l6 -2q3 -1 2 -5z" />
    <glyph glyph-name="Agrave" unicode="&#xc0;" horiz-adv-x="620" 
d="M315 880q5 5 10 1l161 -109q3 -3 0 -6l-2 -2q-3 -3 -7 -1l-164 108q-5 2 0 7zM556 4q0 -4 -5 -4h-4q-6 0 -6 4l-60 257h-354l-150 -257q-3 -4 -8 -4h-6q-7 0 -3 4l412 707q3 5 8 5h6q6 0 6 -5zM383 686q0 1 -1 5t-1 7h-1q-3 -9 -5 -12l-240 -411h344z" />
    <glyph glyph-name="Aacute" unicode="&#xc1;" horiz-adv-x="620" 
d="M498 891q5 3 9 -1l2 -3q4 -4 -2 -7l-199 -114q-4 -2 -7 1l-3 4q-2 3 2 6zM556 4q0 -4 -5 -4h-4q-6 0 -6 4l-60 257h-354l-150 -257q-3 -4 -8 -4h-6q-7 0 -3 4l412 707q3 5 8 5h6q6 0 6 -5zM383 686q0 1 -1 5t-1 7h-1q-3 -9 -5 -12l-240 -411h344z" />
    <glyph glyph-name="Acircumflex" unicode="&#xc2;" horiz-adv-x="620" 
d="M415 893q5 0 11 -5l124 -118q2 -4 -4 -4h-6q-5 0 -8 3l-118 110l-157 -110q-4 -3 -9 -3h-11q-8 0 -2 4l167 118q6 5 10 5h3zM556 4q0 -4 -5 -4h-4q-6 0 -6 4l-60 257h-354l-150 -257q-3 -4 -8 -4h-6q-7 0 -3 4l412 707q3 5 8 5h6q6 0 6 -5zM383 686q0 1 -1 5t-1 7h-1
q-3 -9 -5 -12l-240 -411h344z" />
    <glyph glyph-name="Atilde" unicode="&#xc3;" horiz-adv-x="620" 
d="M560 867q4 0 3 -4q-7 -40 -29 -63.5t-57 -23.5q-31 0 -55 19.5t-47 39t-50 19.5t-46.5 -20.5t-24.5 -53.5q-1 -4 -5 -4h-6q-4 0 -3 4q7 39 30 63t57 24q31 0 55.5 -19.5t47 -39t49.5 -19.5q28 0 46 20.5t24 53.5q1 4 5 4h6zM556 4q0 -4 -5 -4h-4q-6 0 -6 4l-60 257h-354
l-150 -257q-3 -4 -8 -4h-6q-7 0 -3 4l412 707q3 5 8 5h6q6 0 6 -5zM383 686q0 1 -1 5t-1 7h-1q-3 -9 -5 -12l-240 -411h344z" />
    <glyph glyph-name="Adieresis" unicode="&#xc4;" horiz-adv-x="620" 
d="M314 839q7 0 8.5 -2t0.5 -9l-1 -6q-2 -11 -13 -11h-6q-11 0 -9 11l1 6q1 11 13 11h6zM501 839q11 0 10 -11l-1 -6q-2 -11 -14 -11h-5q-8 0 -9.5 2t-0.5 9l1 6q1 11 14 11h5zM556 4q0 -4 -5 -4h-4q-6 0 -6 4l-60 257h-354l-150 -257q-3 -4 -8 -4h-6q-7 0 -3 4l412 707
q3 5 8 5h6q6 0 6 -5zM383 686q0 1 -1 5t-1 7h-1q-3 -9 -5 -12l-240 -411h344z" />
    <glyph glyph-name="Aring" unicode="&#xc5;" horiz-adv-x="620" 
d="M302 797q7 42 36.5 65t73.5 23q43 0 63 -25t12 -67q-7 -39 -31.5 -61.5t-62.5 -25.5l163 -702q0 -4 -5 -4h-4q-6 0 -6 4l-60 257h-354l-150 -257q-3 -4 -8 -4h-6q-7 0 -3 4l409 701q-38 4 -56 28.5t-11 63.5zM475 795q7 36 -10.5 57t-54.5 21q-82 0 -96 -78
q-6 -36 12 -57t56 -21q37 0 62 21t31 57zM383 686q0 1 -1 5t-1 7h-1q-3 -9 -5 -12l-240 -411h344z" />
    <glyph glyph-name="AE" unicode="&#xc6;" horiz-adv-x="800" 
d="M707 14q3 0 3 -4l-1 -6q-1 -4 -5 -4h-325q-4 0 -3 4l35 198h-293l-154 -198q-4 -4 -8 -4h-6q-7 0 -3 4l545 701q4 5 8 5h314q4 0 4 -4l-2 -6q0 -4 -4 -4h-299l-58 -330h257q3 0 3 -4l-1 -6q-1 -4 -5 -4h-257l-59 -338h314zM498 689l-369 -473h284z" />
    <glyph glyph-name="Ccedilla" unicode="&#xc7;" horiz-adv-x="631" 
d="M400 724q115 0 167.5 -43.5t61.5 -133.5q1 -5 -4 -6l-4 -1q-5 -2 -5 2q-10 88 -59 128t-157 40q-122 0 -196 -60t-92 -166l-44 -254q-19 -108 34 -168t173 -60q111 0 174.5 41.5t104.5 130.5q2 4 6 3l5 -2q4 -1 2 -6q-42 -92 -104.5 -136.5t-176.5 -46.5l-42 -79
q18 5 40 5q41 0 60.5 -18t14.5 -51q-7 -43 -39 -67t-80 -24q-52 0 -84 25q-5 4 -4 11l1 6q2 6 4 2q31 -31 85 -31q42 0 69.5 20.5t34.5 57.5q4 28 -13.5 42.5t-54.5 14.5q-27 0 -44 -7q-6 -2 -7.5 0.5t1.5 8.5l45 84q-125 1 -183 65t-38 177l45 255q20 114 97.5 177.5
t205.5 63.5z" />
    <glyph glyph-name="Egrave" unicode="&#xc8;" horiz-adv-x="565" 
d="M303 880q5 5 10 1l161 -109q3 -3 0 -6l-2 -2q-3 -3 -7 -1l-164 108q-5 2 0 7zM576 710q4 0 4 -4l-2 -6q0 -4 -4 -4h-402l-58 -329h360q4 0 3 -4l-1 -6q-1 -4 -5 -4h-360l-59 -339h417q3 0 3 -4l-1 -6q-1 -4 -5 -4h-428q-4 0 -3 4l124 702q0 4 4 4h413z" />
    <glyph glyph-name="Eacute" unicode="&#xc9;" horiz-adv-x="565" 
d="M486 891q5 3 9 -1l2 -3q4 -4 -2 -7l-199 -114q-4 -2 -7 1l-3 4q-2 3 2 6zM576 710q4 0 4 -4l-2 -6q0 -4 -4 -4h-402l-58 -329h360q4 0 3 -4l-1 -6q-1 -4 -5 -4h-360l-59 -339h417q3 0 3 -4l-1 -6q-1 -4 -5 -4h-428q-4 0 -3 4l124 702q0 4 4 4h413z" />
    <glyph glyph-name="Ecircumflex" unicode="&#xca;" horiz-adv-x="565" 
d="M403 893q5 0 11 -5l124 -118q2 -4 -4 -4h-6q-5 0 -8 3l-118 110l-157 -110q-4 -3 -9 -3h-11q-8 0 -2 4l167 118q6 5 10 5h3zM576 710q4 0 4 -4l-2 -6q0 -4 -4 -4h-402l-58 -329h360q4 0 3 -4l-1 -6q-1 -4 -5 -4h-360l-59 -339h417q3 0 3 -4l-1 -6q-1 -4 -5 -4h-428
q-4 0 -3 4l124 702q0 4 4 4h413z" />
    <glyph glyph-name="Edieresis" unicode="&#xcb;" horiz-adv-x="565" 
d="M302 839q7 0 8.5 -2t0.5 -9l-1 -6q-2 -11 -13 -11h-6q-11 0 -9 11l1 6q1 11 13 11h6zM489 839q11 0 10 -11l-1 -6q-2 -11 -14 -11h-5q-8 0 -9.5 2t-0.5 9l1 6q1 11 14 11h5zM576 710q4 0 4 -4l-2 -6q0 -4 -4 -4h-402l-58 -329h360q4 0 3 -4l-1 -6q-1 -4 -5 -4h-360
l-59 -339h417q3 0 3 -4l-1 -6q-1 -4 -5 -4h-428q-4 0 -3 4l124 702q0 4 4 4h413z" />
    <glyph glyph-name="Igrave" unicode="&#xcc;" horiz-adv-x="191" 
d="M99 880q5 5 10 1l161 -109q3 -3 0 -6l-2 -2q-3 -3 -7 -1l-164 108q-5 2 0 7zM159 706q0 4 4 4h7q4 0 4 -4l-124 -702q-1 -4 -5 -4h-7q-4 0 -3 4z" />
    <glyph glyph-name="Iacute" unicode="&#xcd;" horiz-adv-x="191" 
d="M282 891q5 3 9 -1l2 -3q4 -4 -2 -7l-199 -114q-4 -2 -7 1l-3 4q-2 3 2 6zM159 706q0 4 4 4h7q4 0 4 -4l-124 -702q-1 -4 -5 -4h-7q-4 0 -3 4z" />
    <glyph glyph-name="Icircumflex" unicode="&#xce;" horiz-adv-x="191" 
d="M199 893q5 0 11 -5l124 -118q2 -4 -4 -4h-6q-5 0 -8 3l-118 110l-157 -110q-4 -3 -9 -3h-11q-8 0 -2 4l167 118q6 5 10 5h3zM159 706q0 4 4 4h7q4 0 4 -4l-124 -702q-1 -4 -5 -4h-7q-4 0 -3 4z" />
    <glyph glyph-name="Idieresis" unicode="&#xcf;" horiz-adv-x="191" 
d="M98 839q7 0 8.5 -2t0.5 -9l-1 -6q-2 -11 -13 -11h-6q-11 0 -9 11l1 6q1 11 13 11h6zM285 839q11 0 10 -11l-1 -6q-2 -11 -14 -11h-5q-8 0 -9.5 2t-0.5 9l1 6q1 11 14 11h5zM159 706q0 4 4 4h7q4 0 4 -4l-124 -702q-1 -4 -5 -4h-7q-4 0 -3 4z" />
    <glyph glyph-name="Eth" unicode="&#xd0;" horiz-adv-x="645" 
d="M367 710q138 0 201.5 -71t41.5 -195l-32 -182q-22 -123 -110 -192.5t-226 -69.5h-197q-4 0 -3 4l60 343h-89q-6 0 -5 5l1 4q1 5 7 5h89l61 345q0 4 4 4h197zM596 446q20 118 -39.5 184t-191.5 66h-186l-59 -335h215q5 0 4 -5l-1 -4q-1 -5 -6 -5h-215l-58 -333h186
q132 0 215 66t104 184z" />
    <glyph glyph-name="Ntilde" unicode="&#xd1;" horiz-adv-x="685" 
d="M591 867q4 0 3 -4q-7 -40 -29 -63.5t-57 -23.5q-31 0 -55 19.5t-47 39t-50 19.5t-46.5 -20.5t-24.5 -53.5q-1 -4 -5 -4h-6q-4 0 -3 4q7 39 30 63t57 24q31 0 55.5 -19.5t47 -39t49.5 -19.5q28 0 46 20.5t24 53.5q1 4 5 4h6zM664 710q4 0 4 -4l-124 -702q-1 -4 -5 -4h-6
q-4 0 -6 4l-297 563q-5 10 -26.5 51.5t-33.5 63.5h-1q-17 -92 -26 -151l-93 -527q-1 -4 -5 -4h-7q-4 0 -3 4l124 702q0 4 4 4h4l6 -3l289 -546q48 -88 71 -132h1q5 28 14.5 85t14.5 86l90 507q0 3 4 3h7z" />
    <glyph glyph-name="Ograve" unicode="&#xd2;" horiz-adv-x="660" 
d="M338 890q5 5 10 1l161 -109q3 -3 0 -6l-2 -2q-3 -3 -7 -1l-164 108q-5 2 0 7zM99 485q20 114 98.5 176.5t206.5 62.5q127 0 184.5 -65.5t36.5 -179.5l-45 -254q-20 -114 -97.5 -176.5t-204.5 -62.5q-128 0 -186.5 65.5t-37.5 179.5zM610 481q19 108 -34.5 168.5
t-172.5 60.5q-121 0 -195.5 -59.5t-93.5 -169.5l-45 -252q-19 -108 34.5 -168.5t174.5 -60.5q119 0 193.5 60.5t93.5 168.5z" />
    <glyph glyph-name="Oacute" unicode="&#xd3;" horiz-adv-x="660" 
d="M521 901q5 3 9 -1l2 -3q4 -4 -2 -7l-199 -114q-4 -2 -7 1l-3 4q-2 3 2 6zM99 485q20 114 98.5 176.5t206.5 62.5q127 0 184.5 -65.5t36.5 -179.5l-45 -254q-20 -114 -97.5 -176.5t-204.5 -62.5q-128 0 -186.5 65.5t-37.5 179.5zM610 481q19 108 -34.5 168.5t-172.5 60.5
q-121 0 -195.5 -59.5t-93.5 -169.5l-45 -252q-19 -108 34.5 -168.5t174.5 -60.5q119 0 193.5 60.5t93.5 168.5z" />
    <glyph glyph-name="Ocircumflex" unicode="&#xd4;" horiz-adv-x="660" 
d="M438 903q5 0 11 -5l124 -118q2 -4 -4 -4h-6q-5 0 -8 3l-118 110l-157 -110q-4 -3 -9 -3h-11q-8 0 -2 4l167 118q6 5 10 5h3zM99 485q20 114 98.5 176.5t206.5 62.5q127 0 184.5 -65.5t36.5 -179.5l-45 -254q-20 -114 -97.5 -176.5t-204.5 -62.5q-128 0 -186.5 65.5
t-37.5 179.5zM610 481q19 108 -34.5 168.5t-172.5 60.5q-121 0 -195.5 -59.5t-93.5 -169.5l-45 -252q-19 -108 34.5 -168.5t174.5 -60.5q119 0 193.5 60.5t93.5 168.5z" />
    <glyph glyph-name="Otilde" unicode="&#xd5;" horiz-adv-x="660" 
d="M583 877q4 0 3 -4q-7 -40 -29 -63.5t-57 -23.5q-31 0 -55 19.5t-47 39t-50 19.5t-46.5 -20.5t-24.5 -53.5q-1 -4 -5 -4h-6q-4 0 -3 4q7 39 30 63t57 24q31 0 55.5 -19.5t47 -39t49.5 -19.5q28 0 46 20.5t24 53.5q1 4 5 4h6zM99 485q20 114 98.5 176.5t206.5 62.5
q127 0 184.5 -65.5t36.5 -179.5l-45 -254q-20 -114 -97.5 -176.5t-204.5 -62.5q-128 0 -186.5 65.5t-37.5 179.5zM610 481q19 108 -34.5 168.5t-172.5 60.5q-121 0 -195.5 -59.5t-93.5 -169.5l-45 -252q-19 -108 34.5 -168.5t174.5 -60.5q119 0 193.5 60.5t93.5 168.5z" />
    <glyph glyph-name="Odieresis" unicode="&#xd6;" horiz-adv-x="660" 
d="M337 849q7 0 8.5 -2t0.5 -9l-1 -6q-2 -11 -13 -11h-6q-11 0 -9 11l1 6q1 11 13 11h6zM524 849q11 0 10 -11l-1 -6q-2 -11 -14 -11h-5q-8 0 -9.5 2t-0.5 9l1 6q1 11 14 11h5zM99 485q20 114 98.5 176.5t206.5 62.5q127 0 184.5 -65.5t36.5 -179.5l-45 -254
q-20 -114 -97.5 -176.5t-204.5 -62.5q-128 0 -186.5 65.5t-37.5 179.5zM610 481q19 108 -34.5 168.5t-172.5 60.5q-121 0 -195.5 -59.5t-93.5 -169.5l-45 -252q-19 -108 34.5 -168.5t174.5 -60.5q119 0 193.5 60.5t93.5 168.5z" />
    <glyph glyph-name="multiply" unicode="&#xd7;" horiz-adv-x="500" 
d="M404 151q3 -5 -1 -7l-2 -1q-5 -2 -7 0l-141 172l-202 -172q-3 -3 -7 0l-2 3q-4 4 1 7l202 172l-142 171q-2 3 2 7l1 1q4 4 7 0l142 -171l201 171q5 4 7 0l3 -3q2 -4 -2 -7l-201 -171z" />
    <glyph glyph-name="Oslash" unicode="&#xd8;" horiz-adv-x="660" 
d="M673 748q4 0 1 -3l-78 -96q49 -64 29 -170l-45 -254q-20 -114 -97.5 -176.5t-204.5 -62.5q-118 0 -177 56l-68 -84q-3 -3 -8 -3h-7q-4 0 -1 3l75 93q-59 65 -38 180l45 254q20 114 98.5 176.5t206.5 62.5q126 0 184 -66l70 87q3 3 7 3h8zM578 647q-54 63 -175 63
t-195.5 -59.5t-93.5 -169.5l-45 -252q-18 -107 33 -167zM610 481q17 98 -24 155l-475 -583q55 -53 167 -53q119 0 193.5 60.5t93.5 168.5z" />
    <glyph glyph-name="Ugrave" unicode="&#xd9;" horiz-adv-x="678" 
d="M344 880q5 5 10 1l161 -109q3 -3 0 -6l-2 -2q-3 -3 -7 -1l-164 108q-5 2 0 7zM86 239q-19 -112 30.5 -176t169.5 -64t192.5 64t91.5 176l83 467q0 4 4 4h7q5 0 4 -4l-83 -470q-21 -119 -97 -185t-203 -66t-181 68.5t-33 187.5l83 465q1 4 4 4h7q4 0 4 -4z" />
    <glyph glyph-name="Uacute" unicode="&#xda;" horiz-adv-x="678" 
d="M527 891q5 3 9 -1l2 -3q4 -4 -2 -7l-199 -114q-4 -2 -7 1l-3 4q-2 3 2 6zM86 239q-19 -112 30.5 -176t169.5 -64t192.5 64t91.5 176l83 467q0 4 4 4h7q5 0 4 -4l-83 -470q-21 -119 -97 -185t-203 -66t-181 68.5t-33 187.5l83 465q1 4 4 4h7q4 0 4 -4z" />
    <glyph glyph-name="Ucircumflex" unicode="&#xdb;" horiz-adv-x="678" 
d="M444 893q5 0 11 -5l124 -118q2 -4 -4 -4h-6q-5 0 -8 3l-118 110l-157 -110q-4 -3 -9 -3h-11q-8 0 -2 4l167 118q6 5 10 5h3zM86 239q-19 -112 30.5 -176t169.5 -64t192.5 64t91.5 176l83 467q0 4 4 4h7q5 0 4 -4l-83 -470q-21 -119 -97 -185t-203 -66t-181 68.5
t-33 187.5l83 465q1 4 4 4h7q4 0 4 -4z" />
    <glyph glyph-name="Udieresis" unicode="&#xdc;" horiz-adv-x="678" 
d="M343 839q7 0 8.5 -2t0.5 -9l-1 -6q-2 -11 -13 -11h-6q-11 0 -9 11l1 6q1 11 13 11h6zM530 839q11 0 10 -11l-1 -6q-2 -11 -14 -11h-5q-8 0 -9.5 2t-0.5 9l1 6q1 11 14 11h5zM86 239q-19 -112 30.5 -176t169.5 -64t192.5 64t91.5 176l83 467q0 4 4 4h7q5 0 4 -4l-83 -470
q-21 -119 -97 -185t-203 -66t-181 68.5t-33 187.5l83 465q1 4 4 4h7q4 0 4 -4z" />
    <glyph glyph-name="Yacute" unicode="&#xdd;" horiz-adv-x="606" 
d="M491 891q5 3 9 -1l2 -3q4 -4 -2 -7l-199 -114q-4 -2 -7 1l-3 4q-2 3 2 6zM660 710q5 0 3 -4l-354 -410l-51 -292q-1 -4 -5 -4h-7q-4 0 -3 4l51 293l-207 409q-2 4 3 4h8q4 0 7 -4l199 -394l339 394q3 4 7 4h10z" />
    <glyph glyph-name="Thorn" unicode="&#xde;" horiz-adv-x="609" 
d="M401 581q103 0 154 -61.5t32 -164.5q-18 -102 -88.5 -159t-174.5 -57h-250l-24 -135q-1 -4 -5 -4h-7q-4 0 -3 4l124 702q0 4 4 4h7q4 0 4 -4l-23 -125h250zM325 153q97 0 164 55t83 151q17 97 -30 152.5t-144 55.5h-249l-73 -414h249z" />
    <glyph glyph-name="germandbls" unicode="&#xdf;" 
d="M115 528q18 104 78.5 163t156.5 59q199 0 165 -200q-10 -52 -44 -99t-93 -65v-1q61 -16 87.5 -64.5t13.5 -119.5q-35 -201 -233 -201h-113q-4 0 -3 4l1 5q0 4 4 4h113q183 0 217 190q14 80 -23 128t-118 48h-119q-4 0 -3 4v5q1 4 5 4h119q75 0 120 51t56 110
q32 184 -154 184q-88 0 -144.5 -55.5t-74.5 -153.5l-92 -524q-1 -4 -5 -4h-6q-4 0 -3 4z" />
    <glyph glyph-name="agrave" unicode="&#xe0;" horiz-adv-x="526" 
d="M254 710q4 4 9 1l156 -115q3 -3 0 -6l-1 -1q-4 -4 -7 -1l-158 114q-4 3 0 7zM65 340q16 96 72.5 140t162.5 44q89 0 151 -28q23 -10 29 -20.5t2 -34.5l-72 -410q-1 -5 -10 -9q-95 -36 -212 -36q-94 0 -130.5 55.5t-19.5 148.5zM444 483q-62 28 -146 28q-98 0 -150.5 -40
t-68.5 -131l-27 -150q-16 -88 17.5 -139.5t120.5 -51.5q119 0 206 36l72 406q3 20 -1 26.5t-23 15.5z" />
    <glyph glyph-name="aacute" unicode="&#xe1;" horiz-adv-x="526" 
d="M432 711q5 3 9 -1l2 -3q4 -4 -2 -7l-199 -114q-4 -2 -7 1l-3 4q-3 3 2 6zM65 340q16 96 72.5 140t162.5 44q89 0 151 -28q23 -10 29 -20.5t2 -34.5l-72 -410q-1 -5 -10 -9q-95 -36 -212 -36q-94 0 -130.5 55.5t-19.5 148.5zM444 483q-62 28 -146 28q-98 0 -150.5 -40
t-68.5 -131l-27 -150q-16 -88 17.5 -139.5t120.5 -51.5q119 0 206 36l72 406q3 20 -1 26.5t-23 15.5z" />
    <glyph glyph-name="acircumflex" unicode="&#xe2;" horiz-adv-x="526" 
d="M348 705q5 0 10 -5l124 -118q4 -4 -3 -4h-6q-5 0 -9 3l-118 112l-157 -112q-5 -3 -8 -3h-11q-7 0 -3 4l167 118q7 5 11 5h3zM65 340q16 96 72.5 140t162.5 44q89 0 151 -28q23 -10 29 -20.5t2 -34.5l-72 -410q-1 -5 -10 -9q-95 -36 -212 -36q-94 0 -130.5 55.5
t-19.5 148.5zM444 483q-62 28 -146 28q-98 0 -150.5 -40t-68.5 -131l-27 -150q-16 -88 17.5 -139.5t120.5 -51.5q119 0 206 36l72 406q3 20 -1 26.5t-23 15.5z" />
    <glyph glyph-name="atilde" unicode="&#xe3;" horiz-adv-x="526" 
d="M494 687q4 0 3 -4q-16 -87 -84 -87q-24 0 -45.5 12t-34.5 27t-33 27t-42 12q-27 0 -46 -20.5t-25 -53.5q0 -4 -4 -4h-6q-4 0 -4 4q7 40 29.5 63.5t56.5 23.5q37 0 79.5 -39t74.5 -39q28 0 46 20.5t24 53.5q1 4 5 4h6zM65 340q16 96 72.5 140t162.5 44q89 0 151 -28
q23 -10 29 -20.5t2 -34.5l-72 -410q-1 -5 -10 -9q-95 -36 -212 -36q-94 0 -130.5 55.5t-19.5 148.5zM444 483q-62 28 -146 28q-98 0 -150.5 -40t-68.5 -131l-27 -150q-16 -88 17.5 -139.5t120.5 -51.5q119 0 206 36l72 406q3 20 -1 26.5t-23 15.5z" />
    <glyph glyph-name="adieresis" unicode="&#xe4;" horiz-adv-x="526" 
d="M249 664q7 0 8.5 -2t0.5 -9l-1 -6q-2 -11 -13 -11h-6q-11 0 -9 11l1 6q1 11 13 11h6zM436 664q11 0 10 -11l-1 -6q-2 -11 -14 -11h-5q-8 0 -9.5 2t-0.5 9l1 6q1 11 14 11h5zM65 340q16 96 72.5 140t162.5 44q89 0 151 -28q23 -10 29 -20.5t2 -34.5l-72 -410q-1 -5 -10 -9
q-95 -36 -212 -36q-94 0 -130.5 55.5t-19.5 148.5zM444 483q-62 28 -146 28q-98 0 -150.5 -40t-68.5 -131l-27 -150q-16 -88 17.5 -139.5t120.5 -51.5q119 0 206 36l72 406q3 20 -1 26.5t-23 15.5z" />
    <glyph glyph-name="aring" unicode="&#xe5;" horiz-adv-x="526" 
d="M246 669q7 42 36.5 65t73.5 23q43 0 63 -25t12 -67q-7 -42 -35.5 -65t-71.5 -23t-64.5 25t-13.5 67zM419 667q7 36 -10.5 57t-54.5 21q-82 0 -96 -78q-6 -36 12 -57t56 -21q37 0 62 21t31 57zM65 340q16 96 72.5 140t162.5 44q89 0 151 -28q23 -10 29 -20.5t2 -34.5
l-72 -410q-1 -5 -10 -9q-95 -36 -212 -36q-94 0 -130.5 55.5t-19.5 148.5zM444 483q-62 28 -146 28q-98 0 -150.5 -40t-68.5 -131l-27 -150q-16 -88 17.5 -139.5t120.5 -51.5q119 0 206 36l72 406q3 20 -1 26.5t-23 15.5z" />
    <glyph glyph-name="ae" unicode="&#xe6;" horiz-adv-x="780" 
d="M398 394q28 62 79.5 96t117.5 34q88 0 128 -43.5t21 -123.5q-16 -66 -68 -100t-131 -34q-86 0 -170 23l-12 -69q-31 -178 133 -178q66 0 110 27.5t78 80.5q3 4 5 2l7 -3q2 -1 0 -5q-74 -115 -202 -115q-117 0 -142 87q-22 -36 -68 -61.5t-112 -25.5q-94 0 -133 37.5
t-26 112.5t65 109.5t149 34.5q73 0 139 -14l11 62q6 33 8 56.5t-2 49t-16.5 41.5t-38.5 26t-65 10q-105 0 -169 -91q-2 -3 -5 -2l-6 2q-4 1 -1 6q36 51 79.5 74.5t104.5 23.5q76 0 105 -34.5t27 -95.5zM731 359q18 74 -19 113t-119 39q-80 0 -134.5 -51t-70.5 -142l-10 -59
q76 -23 170 -23q153 0 183 123zM364 254q-68 13 -140 13q-90 0 -137 -32t-60 -101q-12 -69 24 -102t123 -33q39 0 71.5 10t53 26.5t31.5 29.5t18 26q-7 41 2 86z" />
    <glyph glyph-name="ccedilla" unicode="&#xe7;" horiz-adv-x="510" 
d="M63 337q16 89 77 138t162 49q89 0 129.5 -36t49.5 -104q1 -6 -3 -6l-5 -1q-5 -1 -5 2q-9 67 -47 99t-121 32q-94 0 -151 -46.5t-72 -128.5l-28 -159q-14 -82 27.5 -129t133.5 -47q82 0 134 33.5t85 105.5q1 4 5 3l7 -2q2 -1 1 -5q-68 -148 -229 -149l-41 -77q15 4 40 4
q41 0 60.5 -18t14.5 -51q-7 -43 -39 -66.5t-80 -23.5q-52 0 -84 25q-5 4 -4 11l1 6q2 6 4 2q31 -31 85 -31q42 0 69.5 20.5t34.5 57.5q4 28 -13.5 42.5t-54.5 14.5q-27 0 -44 -7q-6 -2 -7.5 0.5t1.5 8.5l44 82q-95 2 -138 53.5t-27 138.5z" />
    <glyph glyph-name="egrave" unicode="&#xe8;" horiz-adv-x="514" 
d="M244 710q4 4 9 1l156 -115q3 -3 0 -6l-1 -1q-4 -4 -7 -1l-158 114q-4 3 0 7zM59 320q17 97 81.5 150.5t163.5 53.5q102 0 149 -44t26 -124q-16 -66 -74.5 -99.5t-149.5 -33.5q-107 0 -196 21l-12 -67q-15 -84 24.5 -131t132.5 -47q76 0 126 27.5t88 80.5q2 4 6 2l5 -3
q2 -1 0 -5q-81 -115 -227 -115q-100 0 -142.5 50.5t-26.5 140.5zM465 359q20 74 -24 113t-139 39q-92 0 -153 -51t-77 -142l-11 -60q85 -22 197 -22q175 0 207 123z" />
    <glyph glyph-name="eacute" unicode="&#xe9;" horiz-adv-x="514" 
d="M422 711q5 3 9 -1l2 -3q4 -4 -2 -7l-199 -114q-4 -2 -7 1l-3 4q-3 3 2 6zM59 320q17 97 81.5 150.5t163.5 53.5q102 0 149 -44t26 -124q-16 -66 -74.5 -99.5t-149.5 -33.5q-107 0 -196 21l-12 -67q-15 -84 24.5 -131t132.5 -47q76 0 126 27.5t88 80.5q2 4 6 2l5 -3
q2 -1 0 -5q-81 -115 -227 -115q-100 0 -142.5 50.5t-26.5 140.5zM465 359q20 74 -24 113t-139 39q-92 0 -153 -51t-77 -142l-11 -60q85 -22 197 -22q175 0 207 123z" />
    <glyph glyph-name="ecircumflex" unicode="&#xea;" horiz-adv-x="514" 
d="M160 578q-7 0 -3 4l167 118q7 5 11 5h3q5 0 10 -5l124 -118q4 -4 -3 -4h-6q-5 0 -9 3l-118 112l-157 -112q-5 -3 -8 -3h-11zM304 524q102 0 149 -44t26 -124q-16 -66 -74.5 -99.5t-149.5 -33.5q-107 0 -196 21l-12 -67q-15 -84 24.5 -131t132.5 -47q76 0 126 27.5
t88 80.5q2 4 6 2l5 -3q2 -1 0 -5q-81 -115 -227 -115q-100 0 -142.5 50.5t-26.5 140.5l26 143q17 97 81.5 150.5t163.5 53.5zM465 359q20 74 -24 113t-139 39q-92 0 -153 -51t-77 -142l-11 -60q85 -22 197 -22q175 0 207 123z" />
    <glyph glyph-name="edieresis" unicode="&#xeb;" horiz-adv-x="514" 
d="M239 664q7 0 8.5 -2t0.5 -9l-1 -6q-2 -11 -13 -11h-6q-11 0 -9 11l1 6q1 11 13 11h6zM426 664q11 0 10 -11l-1 -6q-2 -11 -14 -11h-5q-8 0 -9.5 2t-0.5 9l1 6q1 11 14 11h5zM59 320q17 97 81.5 150.5t163.5 53.5q102 0 149 -44t26 -124q-16 -66 -74.5 -99.5t-149.5 -33.5
q-107 0 -196 21l-12 -67q-15 -84 24.5 -131t132.5 -47q76 0 126 27.5t88 80.5q2 4 6 2l5 -3q2 -1 0 -5q-81 -115 -227 -115q-100 0 -142.5 50.5t-26.5 140.5zM465 359q20 74 -24 113t-139 39q-92 0 -153 -51t-77 -142l-11 -60q85 -22 197 -22q175 0 207 123z" />
    <glyph glyph-name="igrave" unicode="&#xec;" horiz-adv-x="164" 
d="M51 701q6 3 8 2l118 -109q6 -4 1 -7l-2 -1q-5 -2 -7 0l-119 107q-8 4 -1 7zM122 510q4 0 3 -4l-88 -502q-1 -4 -5 -4h-6q-4 0 -3 4l88 502q1 4 5 4h6z" />
    <glyph glyph-name="iacute" unicode="&#xed;" horiz-adv-x="164" 
d="M222 710q6 4 9 -1l2 -3q2 -3 -4 -7l-163 -114q-3 -3 -7 1l-2 4q-2 3 3 6zM122 510q4 0 3 -4l-88 -502q-1 -4 -5 -4h-6q-4 0 -3 4l88 502q1 4 5 4h6z" />
    <glyph glyph-name="icircumflex" unicode="&#xee;" horiz-adv-x="164" 
d="M241 590q4 -4 -4 -4h-4q-7 0 -8 3l-79 101l-115 -101q-3 -3 -9 -3h-8q-4 0 -2 4l124 108q6 5 10 5h3q3 0 7 -5zM122 510q4 0 3 -4l-88 -502q-1 -4 -5 -4h-6q-4 0 -3 4l88 502q1 4 5 4h6z" />
    <glyph glyph-name="idieresis" unicode="&#xef;" horiz-adv-x="164" 
d="M83 683q7 0 9 -2.5t1 -8.5l-2 -6q0 -4 -0.5 -5.5t-2 -3t-3.5 -2t-6 -0.5h-6q-11 0 -10 11l2 6q1 11 12 11h6zM210 683q12 0 11 -11l-2 -6q-1 -11 -13 -11h-5q-7 0 -9.5 2t-1.5 9l2 6q1 11 13 11h5zM122 510q4 0 3 -4l-88 -502q-1 -4 -5 -4h-6q-4 0 -3 4l88 502q1 4 5 4h6
z" />
    <glyph glyph-name="eth" unicode="&#xf0;" horiz-adv-x="547" 
d="M520 746q4 4 7 0l2 -3q3 -3 -1 -7l-77 -66q78 -79 45 -268l-41 -232q-15 -87 -77.5 -135.5t-164.5 -48.5q-104 0 -149 48t-30 136l26 150q16 88 78.5 136.5t165.5 48.5q76 0 121 -29.5t56 -80.5q17 96 7.5 160.5t-48.5 104.5l-109 -95q-5 -3 -7 0l-3 3q-2 4 1 7l109 94
q-67 58 -215 58q-4 0 -3 4l1 5q0 4 5 4q153 0 223 -61zM468 321q14 81 -28.5 126t-137.5 45q-96 0 -155 -45.5t-73 -126.5l-26 -150q-14 -81 28.5 -126t138.5 -45q95 0 153.5 45t72.5 126z" />
    <glyph glyph-name="ntilde" unicode="&#xf1;" horiz-adv-x="542" 
d="M486 687q4 0 3 -4q-16 -87 -84 -87q-24 0 -45.5 12t-34.5 27t-33 27t-42 12q-27 0 -46 -20.5t-25 -53.5q0 -4 -4 -4h-6q-4 0 -4 4q7 40 29.5 63.5t56.5 23.5q37 0 79.5 -39t74.5 -39q28 0 46 20.5t24 53.5q1 4 5 4h6zM143 492q83 32 180 32q189 0 155 -190l-58 -330
q-1 -4 -5 -4h-6q-4 0 -3 4l58 329q31 178 -143 178q-97 0 -178 -32q-28 -12 -33 -41l-76 -434q-1 -4 -5 -4h-6q-4 0 -3 4l76 434q5 23 14 33.5t33 20.5z" />
    <glyph glyph-name="ograve" unicode="&#xf2;" horiz-adv-x="535" 
d="M245 709q4 4 9 1l156 -115q3 -3 0 -6l-1 -1q-4 -4 -7 -1l-158 114q-4 3 0 7zM69 358q13 76 78 121t158 45q95 0 144.5 -44.5t36.5 -121.5l-36 -206q-13 -77 -77.5 -121.5t-158.5 -44.5t-144 45t-37 121zM472 359q13 69 -33.5 110.5t-134.5 41.5q-86 0 -147 -41.5
t-74 -110.5l-36 -208q-13 -69 34 -110.5t133 -41.5q88 0 148.5 41.5t73.5 110.5z" />
    <glyph glyph-name="oacute" unicode="&#xf3;" horiz-adv-x="535" 
d="M423 710q5 3 9 -1l2 -3q4 -4 -2 -7l-199 -114q-4 -2 -7 1l-3 4q-3 3 2 6zM69 358q13 76 78 121t158 45q95 0 144.5 -44.5t36.5 -121.5l-36 -206q-13 -77 -77.5 -121.5t-158.5 -44.5t-144 45t-37 121zM472 359q13 69 -33.5 110.5t-134.5 41.5q-86 0 -147 -41.5t-74 -110.5
l-36 -208q-13 -69 34 -110.5t133 -41.5q88 0 148.5 41.5t73.5 110.5z" />
    <glyph glyph-name="ocircumflex" unicode="&#xf4;" horiz-adv-x="535" 
d="M161 577q-7 0 -3 4l167 118q7 5 11 5h3q5 0 10 -5l124 -118q4 -4 -3 -4h-6q-4 0 -9 3l-118 112l-157 -112q-4 -3 -8 -3h-11zM305 524q95 0 144.5 -44.5t36.5 -121.5l-36 -206q-13 -77 -77.5 -121.5t-158.5 -44.5t-144 45t-37 121l36 206q13 76 78 121t158 45zM472 359
q13 69 -33.5 110.5t-134.5 41.5q-86 0 -147 -41.5t-74 -110.5l-36 -208q-13 -69 34 -110.5t133 -41.5q88 0 148.5 41.5t73.5 110.5z" />
    <glyph glyph-name="otilde" unicode="&#xf5;" horiz-adv-x="535" 
d="M485 686q4 0 3 -4q-16 -87 -84 -87q-24 0 -45.5 12t-34.5 27t-33 27t-42 12q-27 0 -46 -20.5t-25 -53.5q0 -4 -4 -4h-6q-4 0 -4 4q7 40 29.5 63.5t56.5 23.5q37 0 79.5 -39t74.5 -39q28 0 46 20.5t24 53.5q1 4 5 4h6zM69 358q13 76 78 121t158 45q95 0 144.5 -44.5
t36.5 -121.5l-36 -206q-13 -77 -77.5 -121.5t-158.5 -44.5t-144 45t-37 121zM472 359q13 69 -33.5 110.5t-134.5 41.5q-86 0 -147 -41.5t-74 -110.5l-36 -208q-13 -69 34 -110.5t133 -41.5q88 0 148.5 41.5t73.5 110.5z" />
    <glyph glyph-name="odieresis" unicode="&#xf6;" horiz-adv-x="535" 
d="M240 663q7 0 8.5 -2t0.5 -9l-1 -6q-2 -11 -13 -11h-6q-11 0 -9 11l1 6q1 11 13 11h6zM427 663q11 0 10 -11l-1 -6q-2 -11 -14 -11h-5q-8 0 -9.5 2t-0.5 9l1 6q1 11 14 11h5zM69 358q13 76 78 121t158 45q95 0 144.5 -44.5t36.5 -121.5l-36 -206q-13 -77 -77.5 -121.5
t-158.5 -44.5t-144 45t-37 121zM472 359q13 69 -33.5 110.5t-134.5 41.5q-86 0 -147 -41.5t-74 -110.5l-36 -208q-13 -69 34 -110.5t133 -41.5q88 0 148.5 41.5t73.5 110.5z" />
    <glyph glyph-name="divide" unicode="&#xf7;" horiz-adv-x="610" 
d="M348 547q14 0 11 -13l-1 -4q-1 -13 -15 -13h-4q-8 0 -10 2.5t-1 10.5l1 4q3 13 15 13h4zM539 331q4 0 4 -4l-1 -6q-1 -4 -5 -4h-462q-4 0 -3 4l1 6q0 4 4 4h462zM276 134q13 0 10 -13v-4q-3 -13 -16 -13h-4q-8 0 -9.5 2.5t-0.5 10.5v4q3 13 16 13h4z" />
    <glyph glyph-name="oslash" unicode="&#xf8;" horiz-adv-x="535" 
d="M504 552q2 0 1 -3l-57 -70q50 -46 37 -121l-36 -206q-13 -77 -78 -121.5t-159 -44.5q-83 0 -133 36l-44 -54q-3 -3 -6 -3h-10q-1 0 -1.5 1t0.5 2l50 62q-49 45 -36 122l36 206q13 77 77.5 121.5t157.5 44.5q86 0 135 -36l51 62q2 2 5 2h10zM430 476q-48 35 -127 35
q-86 0 -147 -41.5t-74 -110.5l-36 -208q-13 -72 30 -110zM87 33q44 -34 126 -34q88 0 148.5 41.5t73.5 110.5l36 208q12 67 -32 108z" />
    <glyph glyph-name="ugrave" unicode="&#xf9;" 
d="M249 709q4 4 9 1l156 -115q3 -3 0 -6l-1 -1q-4 -4 -7 -1l-158 114q-4 3 0 7zM504 510q4 0 3 -4l-76 -434q-5 -23 -14 -33.5t-33 -20.5q-83 -32 -180 -32q-189 0 -155 190l58 330q1 4 5 4h6q4 0 3 -4l-58 -329q-31 -178 142 -178q98 0 179 32q28 12 33 41l76 434q1 4 5 4
h6z" />
    <glyph glyph-name="uacute" unicode="&#xfa;" 
d="M427 710q5 3 9 -1l2 -3q4 -4 -2 -7l-199 -114q-4 -2 -7 1l-3 4q-3 3 2 6zM504 510q4 0 3 -4l-76 -434q-5 -23 -14 -33.5t-33 -20.5q-83 -32 -180 -32q-189 0 -155 190l58 330q1 4 5 4h6q4 0 3 -4l-58 -329q-31 -178 142 -178q98 0 179 32q28 12 33 41l76 434q1 4 5 4h6z
" />
    <glyph glyph-name="ucircumflex" unicode="&#xfb;" 
d="M343 704q5 0 10 -5l124 -118q4 -4 -3 -4h-6q-4 0 -9 3l-118 112l-157 -112q-5 -3 -8 -3h-11q-7 0 -3 4l167 118q7 5 11 5h3zM504 510q4 0 3 -4l-76 -434q-5 -23 -14 -33.5t-33 -20.5q-83 -32 -180 -32q-189 0 -155 190l58 330q1 4 5 4h6q4 0 3 -4l-58 -329
q-31 -178 142 -178q98 0 179 32q28 12 33 41l76 434q1 4 5 4h6z" />
    <glyph glyph-name="udieresis" unicode="&#xfc;" 
d="M244 663q7 0 8.5 -2t0.5 -9l-1 -6q-2 -11 -13 -11h-6q-11 0 -9 11l1 6q1 11 13 11h6zM431 663q11 0 10 -11l-1 -6q-2 -11 -14 -11h-5q-8 0 -9.5 2t-0.5 9l1 6q1 11 14 11h5zM504 510q4 0 3 -4l-76 -434q-5 -23 -14 -33.5t-33 -20.5q-83 -32 -180 -32q-189 0 -155 190
l58 330q1 4 5 4h6q4 0 3 -4l-58 -329q-31 -178 142 -178q98 0 179 32q28 12 33 41l76 434q1 4 5 4h6z" />
    <glyph glyph-name="yacute" unicode="&#xfd;" horiz-adv-x="546" 
d="M427 710q5 3 9 -1l2 -3q4 -4 -2 -7l-199 -114q-4 -2 -7 1l-3 4q-3 3 2 6zM504 510q4 0 3 -4l-97 -551q-38 -215 -242 -215q-134 0 -169 120q-1 4 3 6l5 2q5 2 5 -2q17 -54 53 -83t106 -29q189 0 225 201l13 72q-112 -41 -205 -41q-189 0 -155 190l58 330q1 4 5 4h6
q4 0 3 -4l-58 -329q-15 -89 18 -133.5t125 -44.5q96 0 205 42l82 465q1 4 5 4h6z" />
    <glyph glyph-name="thorn" unicode="&#xfe;" horiz-adv-x="534" 
d="M152 736q0 4 5 4h6q3 0 3 -4l-47 -266q83 45 190 45q205 0 169 -198l-25 -143q-34 -189 -220 -189q-107 0 -190 53l-45 -254q-1 -4 -5 -4h-6q-4 0 -3 4zM464 317q32 185 -157 185q-104 0 -191 -47l-70 -401q15 -11 36.5 -22t65 -22.5t88.5 -11.5q172 0 203 176z" />
    <glyph glyph-name="ydieresis" unicode="&#xff;" horiz-adv-x="546" 
d="M244 663q7 0 8.5 -2t0.5 -9l-1 -6q-2 -11 -13 -11h-6q-11 0 -9 11l1 6q1 11 13 11h6zM431 663q11 0 10 -11l-1 -6q-2 -11 -14 -11h-5q-8 0 -9.5 2t-0.5 9l1 6q1 11 14 11h5zM504 510q4 0 3 -4l-97 -551q-38 -215 -242 -215q-134 0 -169 120q-1 4 3 6l5 2q5 2 5 -2
q17 -54 53 -83t106 -29q189 0 225 201l13 72q-112 -41 -205 -41q-189 0 -155 190l58 330q1 4 5 4h6q4 0 3 -4l-58 -329q-15 -89 18 -133.5t125 -44.5q96 0 205 42l82 465q1 4 5 4h6z" />
    <glyph glyph-name="Amacron" unicode="&#x100;" horiz-adv-x="620" 
d="M523 827q4 0 3 -4l-1 -5q0 -4 -4 -4h-240q-4 0 -4 4l1 5q1 4 5 4h240zM556 4q0 -4 -5 -4h-4q-6 0 -6 4l-60 257h-354l-150 -257q-3 -4 -8 -4h-6q-7 0 -3 4l412 707q3 5 8 5h6q6 0 6 -5zM383 686q0 1 -1 5t-1 7h-1q-3 -9 -5 -12l-240 -411h344z" />
    <glyph glyph-name="amacron" unicode="&#x101;" horiz-adv-x="526" 
d="M456 645q4 0 4 -4l-1 -5q-1 -4 -5 -4h-240q-4 0 -3 4l1 5q0 4 4 4h240zM65 340q16 96 72.5 140t162.5 44q89 0 151 -28q23 -10 29 -20.5t2 -34.5l-72 -410q-1 -5 -10 -9q-95 -36 -212 -36q-94 0 -130.5 55.5t-19.5 148.5zM444 483q-62 28 -146 28q-98 0 -150.5 -40
t-68.5 -131l-27 -150q-16 -88 17.5 -139.5t120.5 -51.5q119 0 206 36l72 406q3 20 -1 26.5t-23 15.5z" />
    <glyph glyph-name="Abreve" unicode="&#x102;" horiz-adv-x="620" 
d="M560 881q-26 -60 -65.5 -87.5t-100.5 -27.5q-62 0 -93.5 27.5t-36.5 87.5q0 5 3 5l7 1q4 0 4 -3q4 -54 32.5 -79t84.5 -25q55 0 91.5 25t60.5 80q3 4 6 3l6 -2q3 -2 1 -5zM556 4q0 -4 -5 -4h-4q-6 0 -6 4l-60 257h-354l-150 -257q-3 -4 -8 -4h-6q-7 0 -3 4l412 707
q3 5 8 5h6q6 0 6 -5zM383 686q0 1 -1 5t-1 7h-1q-3 -9 -5 -12l-240 -411h344z" />
    <glyph glyph-name="abreve" unicode="&#x103;" horiz-adv-x="526" 
d="M494 699q-50 -115 -165 -115q-62 0 -94 27.5t-37 87.5q-2 5 3 5l6 1q4 1 5 -3q4 -54 32 -79t84 -25q107 0 153 105q1 4 5 3l7 -2q2 -1 1 -5zM65 340q16 96 72.5 140t162.5 44q89 0 151 -28q23 -10 29 -20.5t2 -34.5l-72 -410q-1 -5 -10 -9q-95 -36 -212 -36
q-94 0 -130.5 55.5t-19.5 148.5zM444 483q-62 28 -146 28q-98 0 -150.5 -40t-68.5 -131l-27 -150q-16 -88 17.5 -139.5t120.5 -51.5q119 0 206 36l72 406q3 20 -1 26.5t-23 15.5z" />
    <glyph glyph-name="Aogonek" unicode="&#x104;" horiz-adv-x="620" 
d="M386 716q6 0 6 -5l164 -707q0 -3 -2 -4q-79 -54 -119 -109t-32 -92q4 -19 13.5 -26t31.5 -7q44 0 84 37q3 3 4 -1l2 -8q1 -2 -3 -6q-44 -36 -90 -36t-56 41q-9 42 30.5 99.5t121.5 112.5q-1 2 -1 3l-59 253h-354l-150 -257q-3 -4 -8 -4h-6q-7 0 -3 4l412 707q3 5 8 5h6z
M383 686q0 1 -1 5t-1 7h-1q-3 -9 -5 -12l-240 -411h344z" />
    <glyph glyph-name="aogonek" unicode="&#x105;" horiz-adv-x="528" 
d="M65 340q16 96 72.5 140t162.5 44q89 0 151 -28q23 -10 29 -20.5t2 -34.5l-72 -410q-2 -5 -4 -6q-86 -64 -129 -125t-35 -101q4 -19 13.5 -26t31.5 -7q44 0 84 37q3 3 4 -1l2 -8q1 -2 -3 -6q-44 -36 -90 -36t-56 41q-9 40 28.5 99t114.5 120q-89 -26 -183 -26t-130.5 55.5
t-19.5 148.5zM444 483q-62 28 -146 28q-98 0 -150.5 -40t-68.5 -131l-27 -150q-16 -88 17.5 -139.5t120.5 -51.5q119 0 206 36l72 406q3 20 -1 26.5t-23 15.5z" />
    <glyph glyph-name="Cacute" unicode="&#x106;" horiz-adv-x="631" 
d="M516 891q5 3 9 -1l2 -3q4 -4 -2 -7l-199 -114q-4 -2 -7 1l-3 4q-2 3 2 6zM97 483q20 114 97.5 177.5t205.5 63.5q115 0 167.5 -43.5t61.5 -133.5q1 -5 -4 -6l-4 -1q-5 -2 -5 2q-10 88 -59 128t-157 40q-122 0 -196 -60t-92 -166l-44 -254q-19 -108 34 -168t173 -60
q111 0 174.5 41.5t104.5 130.5q2 4 6 3l5 -2q4 -1 2 -6q-43 -94 -107.5 -138.5t-183.5 -44.5q-127 0 -185.5 64.5t-38.5 177.5z" />
    <glyph glyph-name="cacute" unicode="&#x107;" horiz-adv-x="510" 
d="M415 710q5 3 9 -1l2 -3q4 -4 -2 -7l-199 -114q-4 -2 -7 1l-3 4q-3 3 2 6zM63 337q16 89 77 138t162 49q89 0 129.5 -36t49.5 -104q1 -6 -3 -6l-5 -1q-5 -1 -5 2q-9 67 -47 99t-121 32q-94 0 -151 -46.5t-72 -128.5l-28 -159q-14 -82 27.5 -129t133.5 -47q82 0 134 33.5
t85 105.5q1 4 5 3l7 -2q2 -1 1 -5q-34 -76 -90.5 -112.5t-142.5 -36.5q-99 0 -144.5 51t-29.5 141z" />
    <glyph glyph-name="Ccircumflex" unicode="&#x108;" horiz-adv-x="631" 
d="M433 893q5 0 11 -5l124 -118q2 -4 -4 -4h-6q-5 0 -8 3l-118 110l-157 -110q-4 -3 -9 -3h-11q-8 0 -2 4l167 118q6 5 10 5h3zM97 483q20 114 97.5 177.5t205.5 63.5q115 0 167.5 -43.5t61.5 -133.5q1 -5 -4 -6l-4 -1q-5 -2 -5 2q-10 88 -59 128t-157 40q-122 0 -196 -60
t-92 -166l-44 -254q-19 -108 34 -168t173 -60q111 0 174.5 41.5t104.5 130.5q2 4 6 3l5 -2q4 -1 2 -6q-43 -94 -107.5 -138.5t-183.5 -44.5q-127 0 -185.5 64.5t-38.5 177.5z" />
    <glyph glyph-name="ccircumflex" unicode="&#x109;" horiz-adv-x="510" 
d="M153 577q-7 0 -3 4l167 118q7 5 11 5h3q5 0 10 -5l124 -118q4 -4 -3 -4h-6q-4 0 -9 3l-118 112l-157 -112q-5 -3 -8 -3h-11zM481 384q1 -6 -3 -6l-5 -1q-5 -1 -5 2q-9 67 -47 99t-121 32q-94 0 -151 -46.5t-72 -128.5l-28 -159q-14 -82 27.5 -129t133.5 -47
q82 0 134 33.5t85 105.5q1 4 5 3l7 -2q2 -1 1 -5q-34 -76 -90.5 -112.5t-142.5 -36.5q-99 0 -144.5 51t-29.5 141l28 159q16 89 77 138t162 49q89 0 129.5 -36t49.5 -104z" />
    <glyph glyph-name="Cdotaccent" unicode="&#x10a;" horiz-adv-x="631" 
d="M424 834q13 0 10 -12l-1 -4q-1 -12 -14 -12h-4q-7 0 -9 2.5t-1 9.5l1 4q3 12 14 12h4zM97 483q20 114 97.5 177.5t205.5 63.5q115 0 167.5 -43.5t61.5 -133.5q1 -5 -4 -6l-4 -1q-5 -2 -5 2q-10 88 -59 128t-157 40q-122 0 -196 -60t-92 -166l-44 -254q-19 -108 34 -168
t173 -60q111 0 174.5 41.5t104.5 130.5q2 4 6 3l5 -2q4 -1 2 -6q-43 -94 -107.5 -138.5t-183.5 -44.5q-127 0 -185.5 64.5t-38.5 177.5z" />
    <glyph glyph-name="cdotaccent" unicode="&#x10b;" horiz-adv-x="510" 
d="M323 653q11 0 10 -12l-1 -4q-1 -12 -14 -12h-4q-7 0 -9 2.5t-1 9.5l1 4q1 12 14 12h4zM63 337q16 89 77 138t162 49q89 0 129.5 -36t49.5 -104q1 -6 -3 -6l-5 -1q-5 -1 -5 2q-9 67 -47 99t-121 32q-94 0 -151 -46.5t-72 -128.5l-28 -159q-14 -82 27.5 -129t133.5 -47
q82 0 134 33.5t85 105.5q1 4 5 3l7 -2q2 -1 1 -5q-34 -76 -90.5 -112.5t-142.5 -36.5q-99 0 -144.5 51t-29.5 141z" />
    <glyph glyph-name="Ccaron" unicode="&#x10c;" horiz-adv-x="631" 
d="M587 894q6 0 1 -5l-165 -117q-7 -5 -12 -5h-3q-4 0 -9 5l-124 117q-2 1 -1 4l4 1h9q3 0 7 -3l116 -110l159 110q5 3 10 3h8zM97 483q20 114 97.5 177.5t205.5 63.5q115 0 167.5 -43.5t61.5 -133.5q1 -5 -4 -6l-4 -1q-5 -2 -5 2q-10 88 -59 128t-157 40q-122 0 -196 -60
t-92 -166l-44 -254q-19 -108 34 -168t173 -60q111 0 174.5 41.5t104.5 130.5q2 4 6 3l5 -2q4 -1 2 -6q-43 -94 -107.5 -138.5t-183.5 -44.5q-127 0 -185.5 64.5t-38.5 177.5z" />
    <glyph glyph-name="ccaron" unicode="&#x10d;" horiz-adv-x="510" 
d="M484 704q6 0 1 -5l-165 -117q-6 -5 -11 -5h-1q-4 0 -10 5l-125 118q-2 4 2 4h9q4 0 7 -3l118 -110l157 110q4 3 10 3h8zM302 524q89 0 129.5 -36t49.5 -104q1 -6 -3 -6l-5 -1q-5 -1 -5 2q-9 67 -47 99t-121 32q-94 0 -151 -46.5t-72 -128.5l-28 -159q-14 -82 27.5 -129
t133.5 -47q82 0 134 33.5t85 105.5q1 4 5 3l7 -2q2 -1 1 -5q-34 -76 -90.5 -112.5t-142.5 -36.5q-99 0 -144.5 51t-29.5 141l28 159q16 89 77 138t162 49z" />
    <glyph glyph-name="Dcaron" unicode="&#x10e;" horiz-adv-x="638" 
d="M565 894q6 0 1 -5l-165 -117q-7 -5 -12 -5h-3q-4 0 -9 5l-124 117q-2 1 -1 4q1 1 4 1h9q3 0 7 -3l116 -110l159 110q5 3 10 3h8zM360 710q138 0 201.5 -71t41.5 -195l-32 -182q-22 -123 -110 -192.5t-226 -69.5h-197q-4 0 -3 4l124 702q0 4 4 4h197zM589 446
q20 118 -39.5 184t-191.5 66h-186l-120 -682h186q132 0 215 66t104 184z" />
    <glyph glyph-name="dcaron" unicode="&#x10f;" horiz-adv-x="540" 
d="M63 334q34 190 219 190q109 0 192 -45l46 257q0 4 5 4h6q3 0 3 -4l-118 -667q-4 -24 -13.5 -34.5t-35.5 -20.5q-73 -28 -161 -28q-204 0 -170 198zM586 514q-1 -5 -6 -5h-4q-5 0 -4 5l82 222q1 4 5 4h6q5 0 4 -4zM472 464q-80 47 -192 47q-171 0 -203 -177l-27 -150
q-32 -185 158 -185q85 0 156 28q22 9 28 15.5t10 26.5z" />
    <glyph glyph-name="Dcroat" unicode="&#x110;" horiz-adv-x="645" 
d="M367 710q138 0 201.5 -71t41.5 -195l-32 -182q-22 -123 -110 -192.5t-226 -69.5h-197q-4 0 -3 4l60 343h-89q-6 0 -5 5l1 4q1 5 7 5h89l61 345q0 4 4 4h197zM596 446q20 118 -39.5 184t-191.5 66h-186l-59 -335h215q5 0 4 -5l-1 -4q-1 -5 -6 -5h-215l-58 -333h186
q132 0 215 66t104 184z" />
    <glyph glyph-name="dcroat" unicode="&#x111;" horiz-adv-x="531" 
d="M600 639q5 0 4 -5l-1 -2q0 -5 -5 -5h-82l-99 -558q-4 -24 -13.5 -34.5t-35.5 -20.5q-73 -28 -161 -28q-204 0 -170 198l27 150q34 189 219 189q115 0 192 -44l27 148h-187q-5 0 -5 5l1 2q1 5 6 5h187l17 97q0 4 5 4h6q3 0 3 -4l-17 -97h82zM473 465q-73 45 -192 45
q-172 0 -203 -176l-27 -150q-32 -185 158 -185q85 0 156 28q22 9 28 15.5t10 26.5z" />
    <glyph glyph-name="Emacron" unicode="&#x112;" horiz-adv-x="565" 
d="M511 827q4 0 3 -4l-1 -5q0 -4 -4 -4h-240q-4 0 -4 4l1 5q1 4 5 4h240zM576 710q4 0 4 -4l-2 -6q0 -4 -4 -4h-402l-58 -329h360q4 0 3 -4l-1 -6q-1 -4 -5 -4h-360l-59 -339h417q3 0 3 -4l-1 -6q-1 -4 -5 -4h-428q-4 0 -3 4l124 702q0 4 4 4h413z" />
    <glyph glyph-name="emacron" unicode="&#x113;" horiz-adv-x="514" 
d="M204 632q-4 0 -3 4l1 5q0 4 4 4h240q4 0 4 -4l-1 -5q-1 -4 -5 -4h-240zM304 524q102 0 149 -44t26 -124q-16 -66 -74.5 -99.5t-149.5 -33.5q-107 0 -196 21l-12 -67q-15 -84 24.5 -131t132.5 -47q76 0 126 27.5t88 80.5q2 4 6 2l5 -3q2 -1 0 -5q-81 -115 -227 -115
q-100 0 -142.5 50.5t-26.5 140.5l26 143q17 97 81.5 150.5t163.5 53.5zM465 359q20 74 -24 113t-139 39q-92 0 -153 -51t-77 -142l-11 -60q85 -22 197 -22q175 0 207 123z" />
    <glyph glyph-name="Ebreve" unicode="&#x114;" horiz-adv-x="565" 
d="M548 881q-26 -60 -65.5 -87.5t-100.5 -27.5q-62 0 -93.5 27.5t-36.5 87.5q0 5 3 5l7 1q4 0 4 -3q4 -54 32.5 -79t84.5 -25q55 0 91.5 25t60.5 80q3 4 6 3l6 -2q3 -2 1 -5zM576 710q4 0 4 -4l-2 -6q0 -4 -4 -4h-402l-58 -329h360q4 0 3 -4l-1 -6q-1 -4 -5 -4h-360
l-59 -339h417q3 0 3 -4l-1 -6q-1 -4 -5 -4h-428q-4 0 -3 4l124 702q0 4 4 4h413z" />
    <glyph glyph-name="ebreve" unicode="&#x115;" horiz-adv-x="514" 
d="M484 699q-50 -115 -165 -115q-62 0 -94 27.5t-37 87.5q-2 5 3 5l6 1q4 1 5 -3q4 -54 32 -79t84 -25q107 0 153 105q1 4 5 3l7 -2q2 -1 1 -5zM59 320q17 97 81.5 150.5t163.5 53.5q102 0 149 -44t26 -124q-16 -66 -74.5 -99.5t-149.5 -33.5q-107 0 -196 21l-12 -67
q-15 -84 24.5 -131t132.5 -47q76 0 126 27.5t88 80.5q2 4 6 2l5 -3q2 -1 0 -5q-81 -115 -227 -115q-100 0 -142.5 50.5t-26.5 140.5zM465 359q20 74 -24 113t-139 39q-92 0 -153 -51t-77 -142l-11 -60q85 -22 197 -22q175 0 207 123z" />
    <glyph glyph-name="Edotaccent" unicode="&#x116;" horiz-adv-x="565" 
d="M394 834q13 0 10 -12l-1 -4q-1 -12 -14 -12h-4q-7 0 -9 2.5t-1 9.5l1 4q3 12 14 12h4zM576 710q4 0 4 -4l-2 -6q0 -4 -4 -4h-402l-58 -329h360q4 0 3 -4l-1 -6q-1 -4 -5 -4h-360l-59 -339h417q3 0 3 -4l-1 -6q-1 -4 -5 -4h-428q-4 0 -3 4l124 702q0 4 4 4h413z" />
    <glyph glyph-name="edotaccent" unicode="&#x117;" horiz-adv-x="514" 
d="M330 654q11 0 10 -12l-1 -4q-1 -12 -14 -12h-4q-7 0 -9 2.5t-1 9.5l1 4q1 12 14 12h4zM59 320q17 97 81.5 150.5t163.5 53.5q102 0 149 -44t26 -124q-16 -66 -74.5 -99.5t-149.5 -33.5q-107 0 -196 21l-12 -67q-15 -84 24.5 -131t132.5 -47q76 0 126 27.5t88 80.5
q2 4 6 2l5 -3q2 -1 0 -5q-81 -115 -227 -115q-100 0 -142.5 50.5t-26.5 140.5zM465 359q20 74 -24 113t-139 39q-92 0 -153 -51t-77 -142l-11 -60q85 -22 197 -22q175 0 207 123z" />
    <glyph glyph-name="Eogonek" unicode="&#x118;" horiz-adv-x="565" 
d="M576 710q4 0 4 -4l-2 -6q0 -4 -4 -4h-402l-58 -329h360q4 0 3 -4l-1 -6q-1 -4 -5 -4h-360l-59 -339h417q3 0 3 -4l-1 -6q-1 -2 -3 -4q-77 -51 -119.5 -106.5t-34.5 -94.5q4 -19 13.5 -26t31.5 -7q44 0 84 37q3 3 4 -1l2 -8q1 -2 -3 -6q-44 -36 -90 -36t-56 41
q-9 41 31.5 98.5t117.5 108.5h-411q-4 0 -3 4l124 702q0 4 4 4h413z" />
    <glyph glyph-name="eogonek" unicode="&#x119;" horiz-adv-x="514" 
d="M59 320q17 97 81.5 150.5t163.5 53.5q102 0 149 -44t26 -124q-16 -66 -74.5 -99.5t-149.5 -33.5q-107 0 -196 21l-12 -67q-15 -84 24.5 -131t132.5 -47q76 0 126 27.5t88 80.5q2 4 6 2l5 -3q2 -1 0 -5q-30 -43 -74 -74q-75 -53 -119 -121.5t-36 -104.5q4 -19 14.5 -26.5
t32.5 -7.5q43 0 82 36q3 3 4 -1l2 -8q1 -2 -3 -6q-44 -36 -91 -36q-49 0 -56 42q-8 36 25.5 94t97.5 116q-45 -18 -106 -18q-100 0 -142.5 50.5t-26.5 140.5zM258 236q175 0 207 123q20 74 -24 113t-139 39q-92 0 -153 -51t-77 -142l-11 -60q85 -22 197 -22z" />
    <glyph glyph-name="Ecaron" unicode="&#x11a;" horiz-adv-x="565" 
d="M557 894q6 0 1 -5l-165 -117q-7 -5 -12 -5h-3q-4 0 -9 5l-124 117q-2 1 -1 4q1 1 4 1h9q3 0 7 -3l116 -110l159 110q4 3 10 3h8zM576 710q4 0 4 -4l-2 -6q0 -4 -4 -4h-402l-58 -329h360q4 0 3 -4l-1 -6q-1 -4 -5 -4h-360l-59 -339h417q3 0 3 -4l-1 -6q-1 -4 -5 -4h-428
q-4 0 -3 4l124 702q0 4 4 4h413z" />
    <glyph glyph-name="ecaron" unicode="&#x11b;" horiz-adv-x="514" 
d="M491 705q6 0 1 -5l-165 -117q-6 -5 -11 -5h-1q-4 0 -10 5l-125 118q-2 4 2 4h9q4 0 7 -3l118 -110l157 110q4 3 10 3h8zM304 524q102 0 149 -44t26 -124q-16 -66 -74.5 -99.5t-149.5 -33.5q-107 0 -196 21l-12 -67q-15 -84 24.5 -131t132.5 -47q76 0 126 27.5t88 80.5
q2 4 6 2l5 -3q2 -1 0 -5q-81 -115 -227 -115q-100 0 -142.5 50.5t-26.5 140.5l26 143q17 97 81.5 150.5t163.5 53.5zM465 359q20 74 -24 113t-139 39q-92 0 -153 -51t-77 -142l-11 -60q85 -22 197 -22q175 0 207 123z" />
    <glyph glyph-name="Gcircumflex" unicode="&#x11c;" horiz-adv-x="647" 
d="M435 903q5 0 11 -5l124 -118q2 -4 -4 -4h-6q-5 0 -8 3l-118 110l-157 -110q-4 -3 -9 -3h-11q-8 0 -2 4l167 118q6 5 10 5h3zM594 345q5 0 4 -5l-20 -111q-20 -114 -98 -178.5t-204 -64.5q-128 0 -186 64.5t-38 178.5l45 254q20 114 97.5 177.5t205.5 63.5q115 0 168 -44
t62 -133q0 -5 -4 -6l-5 -1q-5 -2 -5 2q-10 88 -59 128t-157 40q-123 0 -196 -59.5t-92 -166.5l-44 -254q-19 -109 33 -169.5t175 -60.5q119 0 194 61t94 169l17 101h-239q-3 0 -3 4l1 6q1 4 5 4h249z" />
    <glyph glyph-name="gcircumflex" unicode="&#x11d;" horiz-adv-x="531" 
d="M166 577q-7 0 -3 4l167 118q7 5 11 5h3q5 0 10 -5l124 -118q4 -4 -3 -4h-6q-5 0 -9 3l-118 112l-157 -112q-5 -3 -8 -3h-11zM452 496q23 -10 29 -20.5t2 -34.5l-86 -486q-38 -215 -240 -215q-132 0 -167 120q-2 4 3 6l5 2q3 2 5 -2q16 -55 51.5 -83.5t105.5 -28.5
q187 0 223 201l13 75q-95 -44 -207 -44q-95 0 -132 50.5t-21 141.5l27 151q33 195 238 195q89 0 151 -28zM469 441q3 20 -1 26.5t-23 15.5q-62 28 -146 28q-97 0 -151 -45t-71 -137l-27 -151q-32 -179 141 -179q114 0 208 47z" />
    <glyph glyph-name="Gbreve" unicode="&#x11e;" horiz-adv-x="647" 
d="M580 891q-26 -60 -65.5 -87.5t-100.5 -27.5q-62 0 -93.5 27.5t-36.5 87.5q0 5 3 5l7 1q4 0 4 -3q4 -54 32.5 -79t84.5 -25q55 0 91.5 25t60.5 80q3 4 6 3l6 -2q3 -2 1 -5zM594 345q5 0 4 -5l-20 -111q-20 -114 -98 -178.5t-204 -64.5q-128 0 -186 64.5t-38 178.5l45 254
q20 114 97.5 177.5t205.5 63.5q115 0 168 -44t62 -133q0 -5 -4 -6l-5 -1q-5 -2 -5 2q-10 88 -59 128t-157 40q-123 0 -196 -59.5t-92 -166.5l-44 -254q-19 -109 33 -169.5t175 -60.5q119 0 194 61t94 169l17 101h-239q-3 0 -3 4l1 6q1 4 5 4h249z" />
    <glyph glyph-name="gbreve" unicode="&#x11f;" horiz-adv-x="531" 
d="M490 698q-50 -115 -165 -115q-62 0 -94 27.5t-37 87.5q-2 5 3 5l6 1q4 1 5 -3q4 -54 32 -79t84 -25q107 0 153 105q1 4 5 3l7 -2q2 -1 1 -5zM63 329q33 195 238 195q89 0 151 -28q23 -10 29 -20.5t2 -34.5l-86 -486q-38 -215 -240 -215q-132 0 -167 120q-2 4 3 6l5 2
q3 2 5 -2q16 -55 51.5 -83.5t105.5 -28.5q187 0 223 201l13 75q-95 -44 -207 -44q-95 0 -132 50.5t-21 141.5zM445 483q-62 28 -146 28q-97 0 -151 -45t-71 -137l-27 -151q-32 -179 141 -179q114 0 208 47l70 395q3 20 -1 26.5t-23 15.5z" />
    <glyph glyph-name="Gdotaccent" unicode="&#x120;" horiz-adv-x="647" 
d="M426 844q13 0 10 -12l-1 -4q-1 -12 -14 -12h-4q-7 0 -9 2.5t-1 9.5l1 4q3 12 14 12h4zM594 345q5 0 4 -5l-20 -111q-20 -114 -98 -178.5t-204 -64.5q-128 0 -186 64.5t-38 178.5l45 254q20 114 97.5 177.5t205.5 63.5q115 0 168 -44t62 -133q0 -5 -4 -6l-5 -1q-5 -2 -5 2
q-10 88 -59 128t-157 40q-123 0 -196 -59.5t-92 -166.5l-44 -254q-19 -109 33 -169.5t175 -60.5q119 0 194 61t94 169l17 101h-239q-3 0 -3 4l1 6q1 4 5 4h249z" />
    <glyph glyph-name="gdotaccent" unicode="&#x121;" horiz-adv-x="531" 
d="M336 653q11 0 10 -12l-1 -4q-1 -12 -14 -12h-4q-7 0 -9 2.5t-1 9.5l1 4q1 12 14 12h4zM63 329q33 195 238 195q89 0 151 -28q23 -10 29 -20.5t2 -34.5l-86 -486q-38 -215 -240 -215q-132 0 -167 120q-2 4 3 6l5 2q3 2 5 -2q16 -55 51.5 -83.5t105.5 -28.5q187 0 223 201
l13 75q-95 -44 -207 -44q-95 0 -132 50.5t-21 141.5zM445 483q-62 28 -146 28q-97 0 -151 -45t-71 -137l-27 -151q-32 -179 141 -179q114 0 208 47l70 395q3 20 -1 26.5t-23 15.5z" />
    <glyph glyph-name="Gcommaaccent" unicode="&#x122;" horiz-adv-x="647" 
d="M594 345q5 0 4 -5l-20 -111q-20 -114 -98 -178.5t-204 -64.5q-128 0 -186 64.5t-38 178.5l45 254q20 114 97.5 177.5t205.5 63.5q115 0 168 -44t62 -133q0 -5 -4 -6l-5 -1q-5 -2 -5 2q-10 88 -59 128t-157 40q-123 0 -196 -59.5t-92 -166.5l-44 -254q-19 -109 33 -169.5
t175 -60.5q119 0 194 61t94 169l17 101h-239q-3 0 -3 4l1 6q1 4 5 4h249zM215 -236q-3 -5 -6 -5h-4q-7 0 -4 5l73 147q2 4 7 4h5q6 0 3 -5z" />
    <glyph glyph-name="gcommaaccent" unicode="&#x123;" horiz-adv-x="531" 
d="M373 735q3 5 6 5h4q7 0 4 -5l-87 -144q-2 -4 -6 -4h-5q-7 0 -4 5zM63 329q33 195 238 195q89 0 151 -28q23 -10 29 -20.5t2 -34.5l-86 -486q-38 -215 -240 -215q-132 0 -167 120q-2 4 3 6l5 2q3 2 5 -2q16 -55 51.5 -83.5t105.5 -28.5q187 0 223 201l13 75
q-95 -44 -207 -44q-95 0 -132 50.5t-21 141.5zM445 483q-62 28 -146 28q-97 0 -151 -45t-71 -137l-27 -151q-32 -179 141 -179q114 0 208 47l70 395q3 20 -1 26.5t-23 15.5z" />
    <glyph glyph-name="Hcircumflex" unicode="&#x124;" horiz-adv-x="678" 
d="M443 893q5 0 11 -5l124 -118q2 -4 -4 -4h-6q-5 0 -8 3l-118 110l-157 -110q-4 -3 -9 -3h-11q-8 0 -2 4l167 118q6 5 10 5h3zM657 710q4 0 4 -4l-124 -702q-1 -4 -5 -4h-7q-4 0 -3 4l61 349h-472l-61 -349q-1 -4 -5 -4h-7q-4 0 -3 4l124 702q0 4 4 4h7q4 0 4 -4l-60 -339
h472l60 339q0 4 4 4h7z" />
    <glyph glyph-name="hcircumflex" unicode="&#x125;" horiz-adv-x="545" 
d="M33 794q-5 -3 -8 -3h-11q-7 0 -3 4l167 118q7 5 11 5h3q5 0 10 -5l124 -118q4 -4 -3 -4h-6q-5 0 -9 3l-118 112zM326 524q188 0 155 -190l-58 -330q-1 -4 -5 -4h-6q-4 0 -3 4l58 329q31 178 -143 178q-106 0 -206 -45l-81 -462q-1 -4 -5 -4h-6q-4 0 -3 4l129 732q0 4 5 4
h6q3 0 3 -4l-45 -255q100 43 205 43z" />
    <glyph glyph-name="Hbar" unicode="&#x126;" horiz-adv-x="682" 
d="M716 574q5 0 4 -5v-3q-1 -6 -6 -6h-76l-98 -556q-1 -4 -5 -4h-7q-4 0 -3 4l61 349h-472l-61 -349q-1 -4 -5 -4h-7q-4 0 -3 4l98 556h-75q-5 0 -4 6v3q1 5 6 5h75l24 132q0 4 4 4h7q4 0 4 -4l-24 -132h472l24 132q0 4 4 4h7q4 0 4 -4l-24 -132h76zM151 560l-34 -193h472
l34 193h-472z" />
    <glyph glyph-name="hbar" unicode="&#x127;" horiz-adv-x="545" 
d="M121 481q100 43 205 43q188 0 155 -190l-58 -330q-1 -4 -5 -4h-6q-4 0 -3 4l58 329q31 178 -143 178q-106 0 -206 -45l-81 -462q-1 -4 -5 -4h-6q-4 0 -3 4l111 629h-73q-5 0 -4 6v2q1 5 6 5h73l16 90q0 4 5 4h6q3 0 3 -4l-16 -90h181q5 0 4 -5v-2q-1 -6 -6 -6h-181z" />
    <glyph glyph-name="Itilde" unicode="&#x128;" horiz-adv-x="191" 
d="M344 867q4 0 3 -4q-7 -40 -29 -63.5t-57 -23.5q-31 0 -55 19.5t-47 39t-50 19.5t-46.5 -20.5t-24.5 -53.5q-1 -4 -5 -4h-6q-4 0 -3 4q7 39 30 63t57 24q31 0 55.5 -19.5t47 -39t49.5 -19.5q28 0 46 20.5t24 53.5q1 4 5 4h6zM159 706q0 4 4 4h7q4 0 4 -4l-124 -702
q-1 -4 -5 -4h-7q-4 0 -3 4z" />
    <glyph glyph-name="itilde" unicode="&#x129;" horiz-adv-x="164" 
d="M255 692q4 0 3 -4q-14 -83 -65 -83q-19 0 -32 11.5t-19 25.5t-17.5 25.5t-27.5 11.5q-45 0 -58 -71q0 -4 -4 -4h-4q-4 0 -4 4q16 84 70 84q20 0 33 -11.5t19 -26t17.5 -26t28.5 -11.5q38 0 51 71q1 4 5 4h4zM122 510q4 0 3 -4l-88 -502q-1 -4 -5 -4h-6q-4 0 -3 4l88 502
q1 4 5 4h6z" />
    <glyph glyph-name="Imacron" unicode="&#x12a;" horiz-adv-x="191" 
d="M307 827q4 0 3 -4l-1 -5q0 -4 -4 -4h-240q-4 0 -4 4l1 5q1 4 5 4h240zM159 706q0 4 4 4h7q4 0 4 -4l-124 -702q-1 -4 -5 -4h-7q-4 0 -3 4z" />
    <glyph glyph-name="imacron" unicode="&#x12b;" horiz-adv-x="164" 
d="M218 649q2 0 2 -4l-1 -5q-1 -4 -3 -4h-159q-3 0 -2 4l1 5q0 4 3 4h159zM122 510q4 0 3 -4l-88 -502q-1 -4 -5 -4h-6q-4 0 -3 4l88 502q1 4 5 4h6z" />
    <glyph glyph-name="Ibreve" unicode="&#x12c;" horiz-adv-x="191" 
d="M344 881q-26 -60 -65.5 -87.5t-100.5 -27.5q-62 0 -93.5 27.5t-36.5 87.5q0 5 3 5l7 1q4 0 4 -3q4 -54 32.5 -79t84.5 -25q55 0 91.5 25t60.5 80q3 4 6 3l6 -2q3 -2 1 -5zM159 706q0 4 4 4h7q4 0 4 -4l-124 -702q-1 -4 -5 -4h-7q-4 0 -3 4z" />
    <glyph glyph-name="ibreve" unicode="&#x12d;" horiz-adv-x="164" 
d="M264 701q2 -1 2 -5q-37 -109 -135 -109q-48 0 -73 28t-24 81q0 5 3 5l5 1q4 1 4 -3q-3 -99 86 -99q43 0 74.5 25.5t46.5 73.5q1 3 6 3zM122 510q4 0 3 -4l-88 -502q-1 -4 -5 -4h-6q-4 0 -3 4l88 502q1 4 5 4h6z" />
    <glyph glyph-name="Iogonek" unicode="&#x12e;" horiz-adv-x="192" 
d="M88 -206q0 -3 -3 -6q-44 -36 -91 -36q-48 0 -56 42q-16 77 98 210v3l124 699q1 4 4 4h7q4 0 4 -4l-124 -702q0 -1 -2 -3q-110 -129 -96 -199q7 -35 43 -35q49 0 87 35q3 3 4 -1z" />
    <glyph glyph-name="iogonek" unicode="&#x12f;" horiz-adv-x="164" 
d="M143 655q-7 0 -9 2.5t-1 9.5v4q3 12 14 12h4q13 0 10 -12v-4q-3 -12 -14 -12h-4zM51 -202q3 -2 -1 -6q-28 -38 -69 -38q-67 0 -59 66q2 18 10 39.5t17.5 39t22.5 37t22 31t19 23.5l10 12v2l88 502q1 4 5 4h6q4 0 3 -4l-88 -502q-1 -3 -2 -3l-9 -11q-9 -10 -18.5 -21.5
t-22 -30.5t-23 -37t-18.5 -39.5t-10 -40.5q-6 -55 47 -55q36 0 62 35q2 2 5 0z" />
    <glyph glyph-name="Idotaccent" unicode="&#x130;" horiz-adv-x="191" 
d="M190 834q13 0 10 -12l-1 -4q-1 -12 -14 -12h-4q-7 0 -9 2.5t-1 9.5l1 4q3 12 14 12h4zM159 706q0 4 4 4h7q4 0 4 -4l-124 -702q-1 -4 -5 -4h-7q-4 0 -3 4z" />
    <glyph glyph-name="dotlessi" unicode="&#x131;" horiz-adv-x="164" 
d="M122 510q4 0 3 -4l-88 -502q-1 -4 -5 -4h-6q-4 0 -3 4l88 502q1 4 5 4h6z" />
    <glyph glyph-name="IJ" unicode="&#x132;" horiz-adv-x="756" 
d="M159 706q0 4 4 4h7q4 0 4 -4l-124 -702q-1 -4 -5 -4h-7q-4 0 -3 4zM741 710q5 0 4 -4l-88 -499q-18 -104 -87.5 -163t-178.5 -59q-198 0 -193 209q0 5 3 6l7 2q2 1 4 0t1 -3q-2 -98 40 -148.5t139 -50.5q102 0 167 56t83 154l88 496q0 4 4 4h7z" />
    <glyph glyph-name="ij" unicode="&#x133;" horiz-adv-x="410" 
d="M151 683q13 0 10 -12v-4q-3 -12 -14 -12h-4q-7 0 -9 2.5t-1 9.5v4q3 12 14 12h4zM397 683q13 0 10 -12v-4q-3 -12 -14 -12h-4q-7 0 -9 2.5t-1 9.5v4q3 12 14 12h4zM122 510q4 0 3 -4l-88 -502q-1 -4 -5 -4h-6q-4 0 -3 4l88 502q1 4 5 4h6zM368 510q4 0 3 -4l-91 -516
q-20 -112 -70 -166t-154 -54q-3 0 -3 4l1 6q1 4 5 4q97 0 143 50t64 155l91 517q1 4 5 4h6z" />
    <glyph glyph-name="Jcircumflex" unicode="&#x134;" horiz-adv-x="562" 
d="M576 893q5 0 11 -5l124 -118q2 -4 -4 -4h-6q-5 0 -8 3l-118 110l-157 -110q-4 -3 -9 -3h-11q-8 0 -2 4l167 118q6 5 10 5h3zM547 710q5 0 4 -4l-88 -499q-18 -104 -87.5 -163t-178.5 -59q-198 0 -193 209q0 5 3 6l7 2q2 1 4 0t1 -3q-2 -98 40 -148.5t139 -50.5
q102 0 167 56t83 154l88 496q0 4 4 4h7z" />
    <glyph glyph-name="jcircumflex" unicode="&#x135;" horiz-adv-x="164" 
d="M152 700q5 0 8 -5l90 -116q4 -4 -4 -4h-4q-6 0 -8 3l-84 110l-125 -110q-4 -3 -9 -3h-9q-5 0 -1 4l133 116q5 5 10 5h3zM122 510q4 0 3 -4l-91 -516q-20 -112 -70 -166t-154 -54q-3 0 -3 4l1 6q1 4 5 4q97 0 143 50t64 155l91 517q1 4 5 4h6z" />
    <glyph glyph-name="Kcommaaccent" unicode="&#x136;" horiz-adv-x="588" 
d="M514 5q2 -5 -4 -5h-4q-6 0 -7 4l-80 244q-19 56 -50 80.5t-96 24.5h-162l-61 -349q-1 -4 -5 -4h-7q-4 0 -3 4l124 702q0 4 4 4h7q4 0 4 -4l-60 -339h157q20 0 30 -1l309 340q3 4 9 4h7q7 0 2 -5l-311 -342q47 -8 73.5 -34.5t41.5 -72.5zM196 -236q-2 -5 -6 -5h-4
q-6 0 -4 5l73 147q2 4 7 4h5q5 0 3 -5z" />
    <glyph glyph-name="kcommaaccent" unicode="&#x137;" horiz-adv-x="488" 
d="M412 4q0 -4 -3 -4h-7q-5 0 -5 3l-59 181q-13 40 -35 56.5t-67 16.5h-155l-44 -253q-1 -4 -5 -4h-6q-4 0 -3 4l129 732q0 4 5 4h6q3 0 3 -4l-82 -466h152h11l229 236q4 4 10 4h5q7 0 2 -5l-229 -237q36 -4 56 -23t32 -55zM143 -222q-3 -5 -7 -5h-5q-5 0 -3 5l70 162
q2 4 6 4h7q6 0 3 -4z" />
    <glyph glyph-name="kgreenlandic" unicode="&#x138;" horiz-adv-x="439" 
d="M369 6q3 -6 -3 -6h-5q-5 0 -7 4l-151 286l-137 -121l-29 -165q-1 -4 -5 -4h-6q-4 0 -3 4l88 502q1 4 5 4h6q4 0 3 -4l-56 -316l359 316q5 4 12 4h7q8 0 1 -5l-235 -206z" />
    <glyph glyph-name="Lacute" unicode="&#x139;" horiz-adv-x="503" 
d="M283 891q5 3 9 -1l2 -3q4 -4 -2 -7l-199 -114q-4 -2 -7 1l-3 4q-2 3 2 6zM170 710q4 0 4 -4l-122 -692h394q3 0 3 -4l-1 -6q-1 -4 -5 -4h-405q-4 0 -3 4l124 702q0 4 4 4h7z" />
    <glyph glyph-name="lacute" unicode="&#x13a;" horiz-adv-x="172" 
d="M253 873q4 2 8 -2l2 -3q1 -5 -3 -7l-159 -83q-5 -3 -7 1l-2 3q-1 5 4 7zM41 4q-1 -4 -5 -4h-6q-4 0 -3 4l129 732q0 4 5 4h6q3 0 3 -4z" />
    <glyph glyph-name="Lcommaaccent" unicode="&#x13b;" horiz-adv-x="503" 
d="M170 710q4 0 4 -4l-122 -692h394q3 0 3 -4l-1 -6q-1 -4 -5 -4h-405q-4 0 -3 4l124 702q0 4 4 4h7zM164 -236q-2 -5 -6 -5h-4q-6 0 -4 5l73 147q2 4 7 4h5q5 0 3 -5z" />
    <glyph glyph-name="lcommaaccent" unicode="&#x13c;" horiz-adv-x="172" 
d="M41 4q-1 -4 -5 -4h-6q-4 0 -3 4l129 732q0 4 5 4h6q3 0 3 -4zM-34 -225q-2 -5 -7 -5h-3q-6 0 -3 5l72 172q2 4 6 4h5q6 0 3 -4z" />
    <glyph glyph-name="Lcaron" unicode="&#x13d;" horiz-adv-x="503" 
d="M170 710q4 0 4 -4l-122 -692h394q3 0 3 -4l-1 -6q-1 -4 -5 -4h-405q-4 0 -3 4l124 702q0 4 4 4h7zM379 496q-1 -5 -6 -5h-5q-5 0 -4 5l85 210q1 4 6 4h6q5 0 3 -5z" />
    <glyph glyph-name="lcaron" unicode="&#x13e;" horiz-adv-x="178" 
d="M41 4q-1 -4 -5 -4h-6q-4 0 -3 4l129 732q0 4 5 4h6q3 0 3 -4zM215 544q-1 -5 -7 -5h-4q-4 0 -3 5l66 192q1 4 7 4h6q4 0 3 -5z" />
    <glyph glyph-name="Ldot" unicode="&#x13f;" horiz-adv-x="503" 
d="M170 710q4 0 4 -4l-122 -692h394q3 0 3 -4l-1 -6q-1 -4 -5 -4h-405q-4 0 -3 4l124 702q0 4 4 4h7zM310 357q13 0 10 -13l-1 -4q-3 -13 -16 -13h-4q-8 0 -10 2.5t0 10.5l1 4q3 13 16 13h4z" />
    <glyph glyph-name="ldot" unicode="&#x140;" horiz-adv-x="235" 
d="M41 4q-1 -4 -5 -4h-6q-4 0 -3 4l129 732q0 4 5 4h6q3 0 3 -4zM222 388q13 0 10 -13l-1 -4q-3 -13 -16 -13h-4q-8 0 -10 2.5t0 10.5l1 4q3 13 16 13h4z" />
    <glyph glyph-name="Lslash" unicode="&#x141;" horiz-adv-x="521" 
d="M464 14q3 0 3 -4l-1 -6q-1 -4 -5 -4h-405q-4 0 -3 4l54 309l-113 -51q-3 -2 -4 2l-2 6q-2 4 2 6l120 55l67 375q0 4 4 4h7q4 0 4 -4l-65 -368l262 119q4 2 7 -2l1 -5q1 -4 -3 -6l-270 -123l-54 -307h394z" />
    <glyph glyph-name="lslash" unicode="&#x142;" horiz-adv-x="229" 
d="M242 436q1 -2 -4 -6l-110 -60l-64 -366q-1 -4 -5 -4h-6q-4 0 -3 4l63 357l-98 -53q-3 -2 -4 1l-3 4q0 5 3 6l104 57l64 360q0 4 5 4h6q3 0 3 -4l-62 -352l103 56q3 2 5 -1z" />
    <glyph glyph-name="Nacute" unicode="&#x143;" horiz-adv-x="685" 
d="M529 891q5 3 9 -1l2 -3q4 -4 -2 -7l-199 -114q-4 -2 -7 1l-3 4q-2 3 2 6zM664 710q4 0 4 -4l-124 -702q-1 -4 -5 -4h-6q-4 0 -6 4l-297 563q-5 10 -26.5 51.5t-33.5 63.5h-1q-17 -92 -26 -151l-93 -527q-1 -4 -5 -4h-7q-4 0 -3 4l124 702q0 4 4 4h4l6 -3l289 -546
q48 -88 71 -132h1q5 28 14.5 85t14.5 86l90 507q0 3 4 3h7z" />
    <glyph glyph-name="nacute" unicode="&#x144;" horiz-adv-x="542" 
d="M424 711q5 3 9 -1l2 -3q4 -4 -2 -7l-199 -114q-4 -2 -7 1l-3 4q-3 3 2 6zM143 492q83 32 180 32q189 0 155 -190l-58 -330q-1 -4 -5 -4h-6q-4 0 -3 4l58 329q31 178 -143 178q-97 0 -178 -32q-28 -12 -33 -41l-76 -434q-1 -4 -5 -4h-6q-4 0 -3 4l76 434q5 23 14 33.5
t33 20.5z" />
    <glyph glyph-name="Ncommaaccent" unicode="&#x145;" horiz-adv-x="685" 
d="M664 710q4 0 4 -4l-124 -702q-1 -4 -5 -4h-6q-4 0 -6 4l-297 563q-5 10 -26.5 51.5t-33.5 63.5h-1q-17 -92 -26 -151l-93 -527q-1 -4 -5 -4h-7q-4 0 -3 4l124 702q0 4 4 4h4l6 -3l289 -546q48 -88 71 -132h1q5 28 14.5 85t14.5 86l90 507q0 3 4 3h7zM220 -236
q-2 -5 -6 -5h-4q-6 0 -4 5l73 147q2 4 7 4h5q5 0 3 -5z" />
    <glyph glyph-name="ncommaaccent" unicode="&#x146;" horiz-adv-x="542" 
d="M143 492q83 32 180 32q189 0 155 -190l-58 -330q-1 -4 -5 -4h-6q-4 0 -3 4l58 329q31 178 -143 178q-97 0 -178 -32q-28 -12 -33 -41l-76 -434q-1 -4 -5 -4h-6q-4 0 -3 4l76 434q5 23 14 33.5t33 20.5zM179 -211q-3 -5 -6 -5h-4q-7 0 -4 5l76 168q2 4 5 4h6q5 0 4 -4z
" />
    <glyph glyph-name="Ncaron" unicode="&#x147;" horiz-adv-x="685" 
d="M600 894q6 0 1 -5l-165 -117q-7 -5 -12 -5h-3q-4 0 -9 5l-124 117q-2 1 -1 4l4 1h9q2 0 7 -3l116 -110l159 110q4 3 10 3h8zM664 710q4 0 4 -4l-124 -702q-1 -4 -5 -4h-6q-4 0 -6 4l-297 563q-5 10 -26.5 51.5t-33.5 63.5h-1q-17 -92 -26 -151l-93 -527q-1 -4 -5 -4h-7
q-4 0 -3 4l124 702q0 4 4 4h4l6 -3l289 -546q48 -88 71 -132h1q5 28 14.5 85t14.5 86l90 507q0 3 4 3h7z" />
    <glyph glyph-name="ncaron" unicode="&#x148;" horiz-adv-x="542" 
d="M493 705q6 0 1 -5l-165 -117q-6 -5 -11 -5h-1q-4 0 -10 5l-125 118q-2 4 2 4h9q4 0 7 -3l118 -110l157 110q4 3 10 3h8zM323 524q189 0 155 -190l-58 -330q-1 -4 -5 -4h-6q-4 0 -3 4l58 329q31 178 -143 178q-97 0 -178 -32q-28 -12 -33 -41l-76 -434q-1 -4 -5 -4h-6
q-4 0 -3 4l76 434q5 23 14 33.5t33 20.5q83 32 180 32z" />
    <glyph glyph-name="napostrophe" unicode="&#x149;" horiz-adv-x="542" 
d="M55 544q-3 -5 -7 -5h-5q-5 0 -2 6l109 191q2 4 6 4h6q6 0 4 -5zM143 492q83 32 180 32q189 0 155 -190l-58 -330q-1 -4 -5 -4h-6q-4 0 -3 4l58 329q31 178 -143 178q-97 0 -178 -32q-28 -12 -33 -41l-76 -434q-1 -4 -5 -4h-6q-4 0 -3 4l76 434q5 23 14 33.5t33 20.5z" />
    <glyph glyph-name="Eng" unicode="&#x14a;" horiz-adv-x="686" 
d="M666 710q4 0 4 -4l-128 -721q-17 -101 -84.5 -158t-170.5 -57q-3 0 -3 4l1 6q1 4 5 4q95 0 158 53.5t80 148.5l2 16l-299 565q-5 10 -26.5 51.5t-33.5 63.5h-1q-3 -22 -10.5 -64t-11.5 -64l-98 -550q-1 -4 -5 -4h-7q-4 0 -3 4l124 702q0 4 4 4h6l6 -3l288 -548
q48 -88 71 -132h1l30 173l90 507q0 3 4 3h7z" />
    <glyph glyph-name="eng" unicode="&#x14b;" horiz-adv-x="542" 
d="M143 492q83 32 180 32q189 0 155 -190l-62 -349q-17 -101 -84.5 -158t-169.5 -57q-3 0 -3 4l1 6q1 4 5 4q95 0 158 53.5t80 148.5l61 347q31 178 -143 178q-97 0 -178 -32q-28 -12 -33 -41l-76 -434q-1 -4 -5 -4h-6q-4 0 -3 4l76 434q5 23 14 33.5t33 20.5z" />
    <glyph glyph-name="Omacron" unicode="&#x14c;" horiz-adv-x="660" 
d="M546 837q4 0 3 -4l-1 -5q0 -4 -4 -4h-240q-4 0 -4 4l1 5q1 4 5 4h240zM99 485q20 114 98.5 176.5t206.5 62.5q127 0 184.5 -65.5t36.5 -179.5l-45 -254q-20 -114 -97.5 -176.5t-204.5 -62.5q-128 0 -186.5 65.5t-37.5 179.5zM610 481q19 108 -34.5 168.5t-172.5 60.5
q-121 0 -195.5 -59.5t-93.5 -169.5l-45 -252q-19 -108 34.5 -168.5t174.5 -60.5q119 0 193.5 60.5t93.5 168.5z" />
    <glyph glyph-name="omacron" unicode="&#x14d;" horiz-adv-x="535" 
d="M205 631q-4 0 -3 4l1 5q0 4 4 4h240q4 0 4 -4l-1 -5q-1 -4 -5 -4h-240zM305 524q95 0 144.5 -44.5t36.5 -121.5l-36 -206q-13 -77 -77.5 -121.5t-158.5 -44.5t-144 45t-37 121l36 206q13 76 78 121t158 45zM472 359q13 69 -33.5 110.5t-134.5 41.5q-86 0 -147 -41.5
t-74 -110.5l-36 -208q-13 -69 34 -110.5t133 -41.5q88 0 148.5 41.5t73.5 110.5z" />
    <glyph glyph-name="Obreve" unicode="&#x14e;" horiz-adv-x="660" 
d="M583 891q-26 -60 -65.5 -87.5t-100.5 -27.5q-62 0 -93.5 27.5t-36.5 87.5q0 5 3 5l7 1q4 0 4 -3q4 -54 32.5 -79t84.5 -25q55 0 91.5 25t60.5 80q3 4 6 3l6 -2q3 -2 1 -5zM99 485q20 114 98.5 176.5t206.5 62.5q127 0 184.5 -65.5t36.5 -179.5l-45 -254
q-20 -114 -97.5 -176.5t-204.5 -62.5q-128 0 -186.5 65.5t-37.5 179.5zM610 481q19 108 -34.5 168.5t-172.5 60.5q-121 0 -195.5 -59.5t-93.5 -169.5l-45 -252q-19 -108 34.5 -168.5t174.5 -60.5q119 0 193.5 60.5t93.5 168.5z" />
    <glyph glyph-name="obreve" unicode="&#x14f;" horiz-adv-x="535" 
d="M485 698q-50 -115 -165 -115q-62 0 -94 27.5t-37 87.5q-2 5 3 5l6 1q4 1 5 -3q4 -54 32 -79t84 -25q107 0 153 105q1 4 5 3l7 -2q2 -1 1 -5zM69 358q13 76 78 121t158 45q95 0 144.5 -44.5t36.5 -121.5l-36 -206q-13 -77 -77.5 -121.5t-158.5 -44.5t-144 45t-37 121z
M472 359q13 69 -33.5 110.5t-134.5 41.5q-86 0 -147 -41.5t-74 -110.5l-36 -208q-13 -69 34 -110.5t133 -41.5q88 0 148.5 41.5t73.5 110.5z" />
    <glyph glyph-name="Ohungarumlaut" unicode="&#x150;" horiz-adv-x="660" 
d="M421 900q4 4 7 3l8 -1q7 -1 1 -5l-138 -122q-2 -2 -4 -2.5t-3 0.5l-6 2q-5 2 0 5zM598 900q4 4 7 3l8 -1q7 -1 1 -5l-138 -122q-2 -2 -4 -2.5t-3 0.5l-6 2q-5 2 0 5zM99 485q20 114 98.5 176.5t206.5 62.5q127 0 184.5 -65.5t36.5 -179.5l-45 -254q-20 -114 -97.5 -176.5
t-204.5 -62.5q-128 0 -186.5 65.5t-37.5 179.5zM610 481q19 108 -34.5 168.5t-172.5 60.5q-121 0 -195.5 -59.5t-93.5 -169.5l-45 -252q-19 -108 34.5 -168.5t174.5 -60.5q119 0 193.5 60.5t93.5 168.5z" />
    <glyph glyph-name="ohungarumlaut" unicode="&#x151;" horiz-adv-x="535" 
d="M187 579q-5 2 0 5l135 120q4 4 7 3l8 -1q7 -1 1 -5l-138 -122q-2 -2 -4 -2.5t-3 0.5zM516 704q5 -1 1 -5l-142 -118q-3 -4 -7 -2l-6 2q-4 1 0 5l139 116q4 4 7 3zM305 524q95 0 144.5 -44.5t36.5 -121.5l-36 -206q-13 -77 -77.5 -121.5t-158.5 -44.5t-144 45t-37 121
l36 206q13 76 78 121t158 45zM472 359q13 69 -33.5 110.5t-134.5 41.5q-86 0 -147 -41.5t-74 -110.5l-36 -208q-13 -69 34 -110.5t133 -41.5q88 0 148.5 41.5t73.5 110.5z" />
    <glyph glyph-name="OE" unicode="&#x152;" horiz-adv-x="828" 
d="M734 14q3 0 3 -4l-1 -6q-1 -4 -5 -4h-343q-55 -15 -113 -15q-128 0 -185 65.5t-36 179.5l45 254q20 114 99.5 177.5t207.5 63.5q55 0 107 -15h328q4 0 4 -4l-2 -6q0 -4 -4 -4h-319l-58 -330h277q3 0 3 -4l-1 -6q-1 -4 -5 -4h-277l-59 -338h334zM69 229
q-19 -108 34.5 -169t174.5 -61q60 0 106 14l121 683q-48 15 -102 15q-121 0 -195.5 -61t-93.5 -169z" />
    <glyph glyph-name="oe" unicode="&#x153;" horiz-adv-x="801" 
d="M425 388q57 136 194 136q88 0 126.5 -42.5t19.5 -122.5q-16 -66 -66.5 -101t-129.5 -35q-84 0 -164 22l-12 -68q-14 -82 16 -130t111 -48q67 0 109 26t75 78q4 4 6 2l6 -3q2 -1 0 -5q-34 -54 -80 -82.5t-118 -28.5q-137 0 -142 129q-27 -60 -77.5 -94.5t-114.5 -34.5
q-79 0 -120 44.5t-28 120.5l36 208q13 76 69.5 120.5t135.5 44.5q69 0 108.5 -35t39.5 -101zM410 344q13 79 -23.5 123t-110.5 44q-72 0 -124.5 -41t-64.5 -110l-38 -210q-12 -69 26.5 -110t110.5 -41q74 0 127 48t67 127zM751 359q19 74 -16.5 113t-117.5 39
q-80 0 -131.5 -51t-67.5 -142l-10 -59q76 -23 164 -23q149 0 179 123z" />
    <glyph glyph-name="Racute" unicode="&#x154;" horiz-adv-x="633" 
d="M495 891q5 3 9 -1l2 -3q4 -4 -2 -7l-199 -114q-4 -2 -7 1l-3 4q-2 3 2 6zM454 710q92 0 134 -51.5t26 -143.5q-15 -89 -75.5 -137t-150.5 -50q60 -23 85 -97l74 -226q2 -5 -4 -5h-5q-6 0 -7 4l-73 219q-18 55 -51.5 80t-98.5 25h-201l-57 -324q-1 -4 -5 -4h-7q-4 0 -3 4
l124 702q0 4 4 4h291zM600 518q15 85 -24 131.5t-125 46.5h-279l-63 -354h279q85 0 141 46t71 130z" />
    <glyph glyph-name="racute" unicode="&#x155;" horiz-adv-x="330" 
d="M353 710q5 3 9 -1l2 -3q4 -4 -2 -7l-199 -114q-4 -2 -7 1l-3 4q-3 3 2 6zM323 524h30q4 0 4 -4l-1 -5q-1 -4 -5 -4h-30q-97 0 -178 -32q-28 -12 -33 -41l-76 -434q-1 -4 -5 -4h-6q-4 0 -3 4l76 434q5 23 14 33.5t33 20.5q83 32 180 32z" />
    <glyph glyph-name="Rcommaaccent" unicode="&#x156;" horiz-adv-x="633" 
d="M454 710q92 0 134 -51.5t26 -143.5q-15 -89 -75.5 -137t-150.5 -50q60 -23 85 -97l74 -226q2 -5 -4 -5h-5q-6 0 -7 4l-73 219q-18 55 -51.5 80t-98.5 25h-201l-57 -324q-1 -4 -5 -4h-7q-4 0 -3 4l124 702q0 4 4 4h291zM600 518q15 85 -24 131.5t-125 46.5h-279l-63 -354
h279q85 0 141 46t71 130zM209 -236q-3 -5 -6 -5h-4q-7 0 -4 5l73 147q2 4 7 4h5q6 0 3 -5z" />
    <glyph glyph-name="rcommaaccent" unicode="&#x157;" horiz-adv-x="330" 
d="M323 524h30q4 0 4 -4l-1 -5q-1 -4 -5 -4h-30q-97 0 -178 -32q-28 -12 -33 -41l-76 -434q-1 -4 -5 -4h-6q-4 0 -3 4l76 434q5 23 14 33.5t33 20.5q83 32 180 32zM-29 -215q-3 -5 -7 -5h-5q-5 0 -3 5l70 167q1 4 5 4h7q5 0 4 -4z" />
    <glyph glyph-name="Rcaron" unicode="&#x158;" horiz-adv-x="633" 
d="M566 894q6 0 1 -5l-165 -117q-7 -5 -12 -5h-3q-4 0 -9 5l-124 117q-2 1 -1 4q1 1 4 1h9q2 0 7 -3l116 -110l159 110q4 3 10 3h8zM454 710q92 0 134 -51.5t26 -143.5q-15 -89 -75.5 -137t-150.5 -50q60 -23 85 -97l74 -226q2 -5 -4 -5h-5q-6 0 -7 4l-73 219
q-18 55 -51.5 80t-98.5 25h-201l-57 -324q-1 -4 -5 -4h-7q-4 0 -3 4l124 702q0 4 4 4h291zM600 518q15 85 -24 131.5t-125 46.5h-279l-63 -354h279q85 0 141 46t71 130z" />
    <glyph glyph-name="rcaron" unicode="&#x159;" horiz-adv-x="331" 
d="M422 704q6 0 1 -5l-165 -117q-6 -5 -11 -5h-1q-4 0 -10 5l-125 118q-2 4 2 4h9q4 0 7 -3l118 -110l157 110q4 3 10 3h8zM353 524q4 0 4 -4l-1 -5q-1 -4 -5 -4h-30q-97 0 -178 -32q-28 -12 -33 -41l-76 -434q-1 -4 -5 -4h-6q-4 0 -3 4l76 434q5 23 14 33.5t33 20.5
q83 32 180 32h30z" />
    <glyph glyph-name="Sacute" unicode="&#x15a;" horiz-adv-x="609" 
d="M500 900q5 3 9 -1l2 -3q4 -4 -2 -7l-199 -114q-4 -2 -7 1l-3 4q-2 3 2 6zM102 545q16 88 87 133.5t185 45.5q94 0 147 -39t77 -114q2 -5 -3 -6l-3 -2q-5 -1 -6 1q-23 72 -73.5 108.5t-140.5 36.5q-107 0 -174.5 -43t-81.5 -124q-9 -49 5 -83t49 -53t70.5 -28t87.5 -15
q43 -5 72 -10.5t62 -19t51 -32t27 -51t1 -75.5q-17 -96 -87.5 -142.5t-198.5 -46.5q-100 0 -158 43.5t-80 135.5q-1 5 3 7l6 2q4 1 5 -2q23 -90 76.5 -130.5t147.5 -40.5q241 0 272 177q7 40 -2 69.5t-25 46t-49 28.5t-59 16.5t-69 9.5q-53 7 -91 17t-74 31t-50.5 58.5
t-5.5 90.5z" />
    <glyph glyph-name="sacute" unicode="&#x15b;" horiz-adv-x="485" 
d="M400 711q5 3 9 -1l2 -3q4 -4 -2 -7l-199 -114q-4 -2 -7 1l-3 4q-3 3 2 6zM70 387q25 137 209 137q154 0 175 -110q1 -4 -2 -6l-4 -2q-4 -2 -6 2q-11 51 -48 77t-116 26q-84 0 -133.5 -32.5t-60.5 -93.5q-3 -16 -3.5 -30t3.5 -24.5t7 -19t12.5 -15.5t15 -11.5t19.5 -8.5
l21 -6t25.5 -4.5t26 -3t28.5 -2.5q7 -1 11 -1q42 -4 69.5 -10.5t53 -20.5t35 -40.5t2.5 -65.5q-24 -136 -216 -136q-80 0 -126.5 29.5t-60.5 98.5q0 5 3 6l6 2q4 1 4 -2q12 -65 55.5 -93t119.5 -28q179 0 201 125q6 35 -2.5 58.5t-32.5 36t-49 18t-66 9.5q-99 10 -131 26
q-60 29 -45 115z" />
    <glyph glyph-name="Scircumflex" unicode="&#x15c;" horiz-adv-x="609" 
d="M417 902q5 0 11 -5l124 -118q2 -4 -4 -4h-6q-5 0 -8 3l-118 110l-157 -110q-4 -3 -9 -3h-11q-8 0 -2 4l167 118q6 5 10 5h3zM102 545q16 88 87 133.5t185 45.5q94 0 147 -39t77 -114q2 -5 -3 -6l-3 -2q-5 -1 -6 1q-23 72 -73.5 108.5t-140.5 36.5q-107 0 -174.5 -43
t-81.5 -124q-9 -49 5 -83t49 -53t70.5 -28t87.5 -15q43 -5 72 -10.5t62 -19t51 -32t27 -51t1 -75.5q-17 -96 -87.5 -142.5t-198.5 -46.5q-100 0 -158 43.5t-80 135.5q-1 5 3 7l6 2q4 1 5 -2q23 -90 76.5 -130.5t147.5 -40.5q241 0 272 177q7 40 -2 69.5t-25 46t-49 28.5
t-59 16.5t-69 9.5q-53 7 -91 17t-74 31t-50.5 58.5t-5.5 90.5z" />
    <glyph glyph-name="scircumflex" unicode="&#x15d;" horiz-adv-x="485" 
d="M138 578q-7 0 -3 4l167 118q7 5 11 5h3q5 0 10 -5l124 -118q4 -4 -3 -4h-6q-5 0 -9 3l-118 112l-157 -112q-5 -3 -8 -3h-11zM454 414q1 -4 -2 -6l-4 -2q-4 -2 -6 2q-11 51 -48 77t-116 26q-84 0 -133.5 -32.5t-60.5 -93.5q-3 -16 -3.5 -30t3.5 -24.5t7 -19t12.5 -15.5
t15 -11.5t19.5 -8.5l21 -6t25.5 -4.5t26 -3t28.5 -2.5q7 -1 11 -1q42 -4 69.5 -10.5t53 -20.5t35 -40.5t2.5 -65.5q-24 -136 -216 -136q-80 0 -126.5 29.5t-60.5 98.5q0 5 3 6l6 2q4 1 4 -2q12 -65 55.5 -93t119.5 -28q179 0 201 125q6 35 -2.5 58.5t-32.5 36t-49 18
t-66 9.5q-99 10 -131 26q-60 29 -45 115q25 137 209 137q154 0 175 -110z" />
    <glyph glyph-name="Scedilla" unicode="&#x15e;" horiz-adv-x="609" 
d="M102 545q16 88 87 133.5t185 45.5q94 0 147 -39t77 -114q2 -5 -3 -6l-3 -2q-5 -1 -6 1q-23 72 -73.5 108.5t-140.5 36.5q-107 0 -174.5 -43t-81.5 -124q-9 -49 5 -83t49 -53t70.5 -28t87.5 -15q43 -5 72 -10.5t62 -19t51 -32t27 -51t1 -75.5q-32 -184 -272 -189l-41 -82
q18 5 40 5q41 0 60.5 -18t14.5 -51q-7 -43 -39 -67t-80 -24q-52 0 -84 25q-5 4 -4 11l1 6q2 6 4 2q31 -31 85 -31q42 0 69.5 20.5t34.5 57.5q4 28 -13.5 42.5t-54.5 14.5q-27 0 -44 -7q-6 -2 -7.5 0.5t1.5 8.5l44 87q-100 0 -158.5 43.5t-80.5 135.5q-1 5 3 7l6 2q4 1 5 -2
q23 -90 76.5 -130.5t147.5 -40.5q241 0 272 177q7 40 -2 69.5t-25 46t-49 28.5t-59 16.5t-69 9.5q-53 7 -91 17t-74 31t-50.5 58.5t-5.5 90.5z" />
    <glyph glyph-name="scedilla" unicode="&#x15f;" horiz-adv-x="485" 
d="M70 387q25 137 209 137q154 0 175 -110q1 -4 -2 -6l-4 -2q-4 -2 -6 2q-11 51 -48 77t-116 26q-84 0 -133.5 -32.5t-60.5 -93.5q-3 -16 -3.5 -30t3.5 -24.5t7 -19t12.5 -15.5t15 -11.5t19.5 -8.5l21 -6t25.5 -4.5t26 -3t28.5 -2.5q7 -1 11 -1q42 -4 69.5 -10.5t53 -20.5
t35 -40.5t2.5 -65.5q-24 -132 -204 -136l-42 -80q18 5 40 5q41 0 60.5 -18t14.5 -51q-7 -43 -39 -67t-80 -24q-52 0 -84 25q-5 4 -4 11l1 6q2 6 4 2q31 -31 85 -31q42 0 69.5 20.5t34.5 57.5q4 28 -13.5 42.5t-54.5 14.5q-27 0 -44 -7q-6 -2 -7.5 0.5t1.5 8.5l45 85
q-79 0 -125.5 29.5t-60.5 98.5q0 5 3 6l6 2q4 1 4 -2q12 -65 55.5 -93t119.5 -28q179 0 201 125q6 35 -2.5 58.5t-32.5 36t-49 18t-66 9.5q-99 10 -131 26q-60 29 -45 115z" />
    <glyph glyph-name="Scaron" unicode="&#x160;" horiz-adv-x="609" 
d="M571 903q6 0 1 -5l-165 -117q-7 -5 -12 -5h-3q-4 0 -9 5l-124 117q-2 1 -1 4l4 1h9q3 0 7 -3l116 -110l159 110q5 3 10 3h8zM102 545q16 88 87 133.5t185 45.5q94 0 147 -39t77 -114q2 -5 -3 -6l-3 -2q-5 -1 -6 1q-23 72 -73.5 108.5t-140.5 36.5q-107 0 -174.5 -43
t-81.5 -124q-9 -49 5 -83t49 -53t70.5 -28t87.5 -15q43 -5 72 -10.5t62 -19t51 -32t27 -51t1 -75.5q-17 -96 -87.5 -142.5t-198.5 -46.5q-100 0 -158 43.5t-80 135.5q-1 5 3 7l6 2q4 1 5 -2q23 -90 76.5 -130.5t147.5 -40.5q241 0 272 177q7 40 -2 69.5t-25 46t-49 28.5
t-59 16.5t-69 9.5q-53 7 -91 17t-74 31t-50.5 58.5t-5.5 90.5z" />
    <glyph glyph-name="scaron" unicode="&#x161;" horiz-adv-x="485" 
d="M469 705q6 0 1 -5l-165 -117q-6 -5 -11 -5h-1q-4 0 -10 5l-125 118q-2 4 2 4h9q4 0 7 -3l118 -110l157 110q4 3 10 3h8zM279 524q154 0 175 -110q1 -4 -2 -6l-4 -2q-4 -2 -6 2q-11 51 -48 77t-116 26q-84 0 -133.5 -32.5t-60.5 -93.5q-3 -16 -3.5 -30t3.5 -24.5t7 -19
t12.5 -15.5t15 -11.5t19.5 -8.5l21 -6t25.5 -4.5t26 -3t28.5 -2.5q7 -1 11 -1q42 -4 69.5 -10.5t53 -20.5t35 -40.5t2.5 -65.5q-24 -136 -216 -136q-80 0 -126.5 29.5t-60.5 98.5q0 5 3 6l6 2q4 1 4 -2q12 -65 55.5 -93t119.5 -28q179 0 201 125q6 35 -2.5 58.5t-32.5 36
t-49 18t-66 9.5q-99 10 -131 26q-60 29 -45 115q25 137 209 137z" />
    <glyph glyph-name="Tcaron" unicode="&#x164;" horiz-adv-x="516" 
d="M516 894q6 0 1 -5l-165 -117q-7 -5 -12 -5h-3q-4 0 -9 5l-124 117q-2 1 -1 4q1 1 4 1h9q2 0 7 -3l116 -110l159 110q4 3 10 3h8zM571 710q4 0 4 -4l-2 -6q0 -4 -4 -4h-235l-122 -692q-1 -4 -5 -4h-7q-4 0 -3 4l122 692h-235q-4 0 -4 4l2 6q0 4 4 4h485z" />
    <glyph glyph-name="tcaron" unicode="&#x165;" horiz-adv-x="318" 
d="M329 572q-3 -5 -7 -5h-4q-6 0 -3 5l69 164q2 4 6 4h6q4 0 3 -4zM193 630q4 0 3 -4l-20 -116h177q4 0 3 -4l-1 -5q0 -4 -4 -4h-177l-57 -324q-18 -105 11.5 -139t132.5 -34q4 0 3 -4l-1 -6q0 -4 -4 -4q-108 0 -142 38.5t-14 148.5l57 324h-123q-4 0 -4 4l1 5q1 4 5 4h123
l20 116q1 4 5 4h6z" />
    <glyph glyph-name="Tbar" unicode="&#x166;" horiz-adv-x="544" 
d="M585 710q4 0 4 -4l-2 -6q0 -4 -4 -4h-235l-63 -357h164q5 0 4 -5l-1 -3q0 -6 -6 -6h-164l-56 -321q-1 -4 -5 -4h-7q-4 0 -3 4l56 321h-164q-4 0 -4 6l1 3q1 5 6 5h164l63 357h-235q-4 0 -4 4l2 6q0 4 4 4h485z" />
    <glyph glyph-name="tbar" unicode="&#x167;" horiz-adv-x="324" 
d="M198 630q4 0 3 -4l-20 -116h177q4 0 3 -4l-1 -5q0 -4 -4 -4h-177l-41 -229h146q5 0 4 -5v-3q-1 -5 -6 -5h-146l-14 -82q-18 -105 11.5 -139t132.5 -34q4 0 3 -4l-1 -6q0 -4 -4 -4q-108 0 -142 38.5t-14 148.5l14 82h-102q-5 0 -4 5v3q1 5 6 5h102l41 229h-123q-4 0 -4 4
l1 5q1 4 5 4h123l20 116q1 4 5 4h6z" />
    <glyph glyph-name="Utilde" unicode="&#x168;" horiz-adv-x="678" 
d="M589 867q4 0 3 -4q-7 -40 -29 -63.5t-57 -23.5q-31 0 -55 19.5t-47 39t-50 19.5t-46.5 -20.5t-24.5 -53.5q-1 -4 -5 -4h-6q-4 0 -3 4q7 39 30 63t57 24q31 0 55.5 -19.5t47 -39t49.5 -19.5q28 0 46 20.5t24 53.5q1 4 5 4h6zM86 239q-19 -112 30.5 -176t169.5 -64
t192.5 64t91.5 176l83 467q0 4 4 4h7q5 0 4 -4l-83 -470q-21 -119 -97 -185t-203 -66t-181 68.5t-33 187.5l83 465q1 4 4 4h7q4 0 4 -4z" />
    <glyph glyph-name="utilde" unicode="&#x169;" 
d="M489 686q4 0 3 -4q-16 -87 -84 -87q-24 0 -45.5 12t-34.5 27t-33 27t-42 12q-27 0 -46 -20.5t-25 -53.5q0 -4 -4 -4h-6q-4 0 -4 4q7 40 29.5 63.5t56.5 23.5q37 0 79.5 -39t74.5 -39q28 0 46 20.5t24 53.5q1 4 5 4h6zM504 510q4 0 3 -4l-76 -434q-5 -23 -14 -33.5
t-33 -20.5q-83 -32 -180 -32q-189 0 -155 190l58 330q1 4 5 4h6q4 0 3 -4l-58 -329q-31 -178 142 -178q98 0 179 32q28 12 33 41l76 434q1 4 5 4h6z" />
    <glyph glyph-name="Umacron" unicode="&#x16a;" horiz-adv-x="678" 
d="M552 827q4 0 3 -4l-1 -5q0 -4 -4 -4h-240q-4 0 -4 4l1 5q1 4 5 4h240zM86 239q-19 -112 30.5 -176t169.5 -64t192.5 64t91.5 176l83 467q0 4 4 4h7q5 0 4 -4l-83 -470q-21 -119 -97 -185t-203 -66t-181 68.5t-33 187.5l83 465q1 4 4 4h7q4 0 4 -4z" />
    <glyph glyph-name="umacron" unicode="&#x16b;" 
d="M451 644q4 0 4 -4l-1 -5q-1 -4 -5 -4h-240q-4 0 -3 4l1 5q0 4 4 4h240zM504 510q4 0 3 -4l-76 -434q-5 -23 -14 -33.5t-33 -20.5q-83 -32 -180 -32q-189 0 -155 190l58 330q1 4 5 4h6q4 0 3 -4l-58 -329q-31 -178 142 -178q98 0 179 32q28 12 33 41l76 434q1 4 5 4h6z
" />
    <glyph glyph-name="Ubreve" unicode="&#x16c;" horiz-adv-x="678" 
d="M589 881q-26 -60 -65.5 -87.5t-100.5 -27.5q-62 0 -93.5 27.5t-36.5 87.5q0 5 3 5l7 1q4 0 4 -3q4 -54 32.5 -79t84.5 -25q55 0 91.5 25t60.5 80q3 4 6 3l6 -2q3 -2 1 -5zM86 239q-19 -112 30.5 -176t169.5 -64t192.5 64t91.5 176l83 467q0 4 4 4h7q5 0 4 -4l-83 -470
q-21 -119 -97 -185t-203 -66t-181 68.5t-33 187.5l83 465q1 4 4 4h7q4 0 4 -4z" />
    <glyph glyph-name="ubreve" unicode="&#x16d;" 
d="M489 698q-50 -115 -165 -115q-62 0 -94 27.5t-37 87.5q-2 5 3 5l6 1q4 1 5 -3q4 -54 32 -79t84 -25q107 0 153 105q1 4 5 3l7 -2q2 -1 1 -5zM504 510q4 0 3 -4l-76 -434q-5 -23 -14 -33.5t-33 -20.5q-83 -32 -180 -32q-189 0 -155 190l58 330q1 4 5 4h6q4 0 3 -4
l-58 -329q-31 -178 142 -178q98 0 179 32q28 12 33 41l76 434q1 4 5 4h6z" />
    <glyph glyph-name="Uring" unicode="&#x16e;" horiz-adv-x="678" 
d="M341 833q7 42 36.5 66t73.5 24q43 0 63 -24t12 -66t-36 -66t-71 -24q-44 0 -64.5 24t-13.5 66zM514 833q6 36 -11 57t-54 21q-38 0 -64 -21t-32 -57t12 -57t56 -21q37 0 62 21t31 57zM86 239q-19 -112 30.5 -176t169.5 -64t192.5 64t91.5 176l83 467q0 4 4 4h7q5 0 4 -4
l-83 -470q-21 -119 -97 -185t-203 -66t-181 68.5t-33 187.5l83 465q1 4 4 4h7q4 0 4 -4z" />
    <glyph glyph-name="uring" unicode="&#x16f;" 
d="M243 647q7 42 36.5 65t73.5 23q43 0 63 -25t12 -67q-7 -42 -35.5 -65t-71.5 -23t-64.5 25t-13.5 67zM416 645q7 36 -10.5 57t-54.5 21q-82 0 -96 -78q-6 -36 12 -57t56 -21q37 0 62 21t31 57zM504 510q4 0 3 -4l-76 -434q-5 -23 -14 -33.5t-33 -20.5q-83 -32 -180 -32
q-189 0 -155 190l58 330q1 4 5 4h6q4 0 3 -4l-58 -329q-31 -178 142 -178q98 0 179 32q28 12 33 41l76 434q1 4 5 4h6z" />
    <glyph glyph-name="Uhungarumlaut" unicode="&#x170;" horiz-adv-x="678" 
d="M427 890q4 4 7 3l8 -1q7 -1 1 -5l-138 -122q-2 -2 -4 -2.5t-3 0.5l-6 2q-5 2 0 5zM604 890q4 4 7 3l8 -1q7 -1 1 -5l-138 -122q-2 -2 -4 -2.5t-3 0.5l-6 2q-5 2 0 5zM86 239q-19 -112 30.5 -176t169.5 -64t192.5 64t91.5 176l83 467q0 4 4 4h7q5 0 4 -4l-83 -470
q-21 -119 -97 -185t-203 -66t-181 68.5t-33 187.5l83 465q1 4 4 4h7q4 0 4 -4z" />
    <glyph glyph-name="uhungarumlaut" unicode="&#x171;" 
d="M326 704q4 4 7 3l8 -1q7 -1 1 -5l-138 -122q-2 -2 -4 -2.5t-3 0.5l-6 2q-5 2 0 5zM505 702q4 4 7 3l8 -1q5 -1 1 -5l-142 -118q-3 -4 -7 -2l-6 2q-4 1 0 5zM504 510q4 0 3 -4l-76 -434q-5 -23 -14 -33.5t-33 -20.5q-83 -32 -180 -32q-189 0 -155 190l58 330q1 4 5 4h6
q4 0 3 -4l-58 -329q-31 -178 142 -178q98 0 179 32q28 12 33 41l76 434q1 4 5 4h6z" />
    <glyph glyph-name="Uogonek" unicode="&#x172;" horiz-adv-x="678" 
d="M664 710q5 0 4 -4l-83 -470q-25 -139 -119 -202q-76 -51 -127.5 -123.5t-43.5 -111.5q4 -19 13.5 -26t31.5 -7q44 0 84 37q3 3 4 -1l2 -8q1 -2 -3 -6q-44 -36 -90 -36t-56 41q-8 36 28 98t97 113q-55 -19 -121 -19q-127 0 -181 68.5t-33 187.5l83 465q1 4 4 4h7q4 0 4 -4
l-83 -467q-19 -112 30.5 -176t169.5 -64t192.5 64t91.5 176l83 467q0 4 4 4h7z" />
    <glyph glyph-name="uogonek" unicode="&#x173;" 
d="M504 510q4 0 3 -4l-76 -434q-6 -32 -28 -45q-71 -46 -117.5 -117t-39.5 -110q6 -33 47 -33q45 0 83 35q3 3 4 -1l1 -7q0 -3 -3 -6q-44 -36 -91 -36q-49 0 -56 42q-9 39 28.5 102t103.5 115q-73 -25 -159 -25q-189 0 -155 190l58 330q1 4 5 4h6q4 0 3 -4l-58 -329
q-31 -178 143 -178q97 0 178 32q28 12 33 41l76 434q1 4 5 4h6z" />
    <glyph glyph-name="Wcircumflex" unicode="&#x174;" horiz-adv-x="857" 
d="M534 893q5 0 11 -5l124 -118q2 -4 -4 -4h-6q-5 0 -8 3l-118 110l-157 -110q-4 -3 -9 -3h-11q-8 0 -2 4l167 118q6 5 10 5h3zM901 710q4 0 3 -4l-318 -701q-2 -5 -8 -5h-6q-6 0 -6 5l-63 578q0 2 -3.5 34t-5.5 48h-1q-18 -40 -38 -82l-269 -578q-2 -5 -8 -5h-6q-6 0 -6 5
l-70 701q-1 4 3 4h7q5 0 6 -4l59 -603q3 -24 7 -79h1l36 78l272 584q3 4 7 4h7q5 0 5 -4l64 -586q1 -12 4 -37.5t4 -38.5h1q22 50 32 75l277 607q1 4 6 4h7z" />
    <glyph glyph-name="wcircumflex" unicode="&#x175;" horiz-adv-x="724" 
d="M257 577q-7 0 -3 4l167 118q7 5 11 5h3q5 0 10 -5l124 -118q4 -4 -3 -4h-6q-4 0 -9 3l-118 112l-157 -112q-4 -3 -8 -3h-11zM734 510q5 0 2 -5l-252 -506q-3 -5 -6 -5h-7q-5 0 -5 5l-63 403q-6 44 -10 66h-1q-6 -13 -18 -36t-16 -30l-207 -403q-3 -5 -6 -5h-7q-3 0 -4 5
l-73 506q0 5 4 5h6q4 0 4 -5l58 -404l12 -83h1l43 85l198 383q1 4 6 4h5q4 0 5 -4l60 -378q10 -60 14 -90h1q7 15 22 44.5t22 43.5l199 400q2 4 7 4h6z" />
    <glyph glyph-name="Ycircumflex" unicode="&#x176;" horiz-adv-x="606" 
d="M408 893q5 0 11 -5l124 -118q2 -4 -4 -4h-6q-5 0 -8 3l-118 110l-157 -110q-4 -3 -9 -3h-11q-8 0 -2 4l167 118q6 5 10 5h3zM660 710q5 0 3 -4l-354 -410l-51 -292q-1 -4 -5 -4h-7q-4 0 -3 4l51 293l-207 409q-2 4 3 4h8q4 0 7 -4l199 -394l339 394q3 4 7 4h10z" />
    <glyph glyph-name="ycircumflex" unicode="&#x177;" horiz-adv-x="546" 
d="M165 577q-7 0 -3 4l167 118q7 5 11 5h3q5 0 10 -5l124 -118q4 -4 -3 -4h-6q-4 0 -9 3l-118 112l-157 -112q-5 -3 -8 -3h-11zM504 510q4 0 3 -4l-97 -551q-38 -215 -242 -215q-134 0 -169 120q-1 4 3 6l5 2q5 2 5 -2q17 -54 53 -83t106 -29q189 0 225 201l13 72
q-112 -41 -205 -41q-189 0 -155 190l58 330q1 4 5 4h6q4 0 3 -4l-58 -329q-15 -89 18 -133.5t125 -44.5q96 0 205 42l82 465q1 4 5 4h6z" />
    <glyph glyph-name="Ydieresis" unicode="&#x178;" horiz-adv-x="606" 
d="M307 839q7 0 8.5 -2t0.5 -9l-1 -6q-2 -11 -13 -11h-6q-11 0 -9 11l1 6q1 11 13 11h6zM494 839q11 0 10 -11l-1 -6q-2 -11 -14 -11h-5q-8 0 -9.5 2t-0.5 9l1 6q1 11 14 11h5zM660 710q5 0 3 -4l-354 -410l-51 -292q-1 -4 -5 -4h-7q-4 0 -3 4l51 293l-207 409q-2 4 3 4h8
q4 0 7 -4l199 -394l339 394q3 4 7 4h10z" />
    <glyph glyph-name="Zacute" unicode="&#x179;" horiz-adv-x="533" 
d="M457 891q5 3 9 -1l2 -3q4 -4 -2 -7l-199 -114q-4 -2 -7 1l-3 4q-2 3 2 6zM565 710q4 0 4 -4l-1 -4q-1 -5 -4 -8l-570 -679h463q4 0 3 -4l-1 -7q-1 -4 -5 -4h-477q-4 0 -3 4l1 5q0 5 4 10l569 677h-444q-4 0 -4 4l2 6q0 4 4 4h459z" />
    <glyph glyph-name="zacute" unicode="&#x17a;" horiz-adv-x="429" 
d="M371 710q5 3 9 -1l2 -3q4 -4 -2 -7l-199 -114q-4 -2 -7 1l-3 4q-3 3 2 6zM349 13q3 0 3 -4l-1 -5q-1 -4 -4 -4h-369q-4 0 -3 4l1 5q0 3 4 7l437 481h-348q-3 0 -3 4l1 5q1 4 4 4h361q4 0 3 -4l-1 -5q0 -2 -4 -8l-436 -480h355z" />
    <glyph glyph-name="Zdotaccent" unicode="&#x17b;" horiz-adv-x="533" 
d="M365 834q13 0 10 -12l-1 -4q-1 -12 -14 -12h-4q-7 0 -9 2.5t-1 9.5l1 4q3 12 14 12h4zM565 710q4 0 4 -4l-1 -4q-1 -5 -4 -8l-570 -679h463q4 0 3 -4l-1 -7q-1 -4 -5 -4h-477q-4 0 -3 4l1 5q0 5 4 10l569 677h-444q-4 0 -4 4l2 6q0 4 4 4h459z" />
    <glyph glyph-name="zdotaccent" unicode="&#x17c;" horiz-adv-x="429" 
d="M279 653q11 0 10 -12l-1 -4q-1 -12 -14 -12h-4q-7 0 -9 2.5t-1 9.5l1 4q1 12 14 12h4zM349 13q3 0 3 -4l-1 -5q-1 -4 -4 -4h-369q-4 0 -3 4l1 5q0 3 4 7l437 481h-348q-3 0 -3 4l1 5q1 4 4 4h361q4 0 3 -4l-1 -5q0 -2 -4 -8l-436 -480h355z" />
    <glyph glyph-name="Zcaron" unicode="&#x17d;" horiz-adv-x="533" 
d="M528 894q6 0 1 -5l-165 -117q-7 -5 -12 -5h-3q-4 0 -9 5l-124 117q-2 1 -1 4q1 1 4 1h9q2 0 7 -3l116 -110l159 110q4 3 10 3h8zM565 710q4 0 4 -4l-1 -4q-1 -5 -4 -8l-570 -679h463q4 0 3 -4l-1 -7q-1 -4 -5 -4h-477q-4 0 -3 4l1 5q0 5 4 10l569 677h-444q-4 0 -4 4l2 6
q0 4 4 4h459z" />
    <glyph glyph-name="zcaron" unicode="&#x17e;" horiz-adv-x="429" 
d="M440 704q6 0 1 -5l-165 -117q-6 -5 -11 -5h-1q-4 0 -10 5l-125 118q-2 4 2 4h9q4 0 7 -3l118 -110l157 110q4 3 10 3h8zM432 510q4 0 3 -4l-1 -5q0 -2 -4 -8l-436 -480h355q3 0 3 -4l-1 -5q-1 -4 -4 -4h-369q-4 0 -3 4l1 5q0 3 4 7l437 481h-348q-3 0 -3 4l1 5q1 4 4 4
h361z" />
    <glyph glyph-name="longs" unicode="&#x17f;" horiz-adv-x="220" 
d="M155 552q20 110 67.5 149t155.5 39q3 0 3 -4l-1 -6q-1 -4 -5 -4q-103 0 -145.5 -34.5t-60.5 -139.5l-96 -548q-1 -4 -5 -4h-6q-4 0 -3 4l87 493h-102q-4 0 -4 4l1 5q1 4 5 4h102z" />
    <glyph glyph-name="florin" unicode="&#x192;" horiz-adv-x="413" 
d="M241 550q37 190 215 190q4 0 4 -4v-6q-1 -4 -5 -4q-90 0 -136 -45.5t-63 -132.5l-36 -183h173q4 0 3 -4v-6q-1 -4 -5 -4h-174l-75 -379q-37 -192 -217 -192q-3 0 -3 4v6q1 4 5 4q89 0 136 46.5t64 133.5l75 377h-164q-4 0 -3 4v6q1 4 5 4h164z" />
    <glyph glyph-name="Aringacute" unicode="&#x1fa;" horiz-adv-x="620" 
d="M507 951q6 3 8 -1l2 -5q1 -3 -2 -5l-185 -78q-3 -2 -6 1l-2 5q-1 2 5 6zM303 771q7 37 35.5 60.5t68.5 23.5q39 0 60 -23.5t14 -60.5q-5 -31 -29 -51.5t-58 -24.5l162 -691q0 -4 -5 -4h-4q-6 0 -6 4l-62 267h-346l-156 -267q-3 -4 -8 -4h-6q-7 0 -3 4l405 691
q-33 4 -50 24.5t-12 51.5zM468 771q5 32 -12 51.5t-50 19.5q-34 0 -59.5 -20t-30.5 -51q-5 -28 12.5 -46t50.5 -18t58.5 18t30.5 46zM410 569q-16 72 -29 124h-1l-71 -123l-168 -285h334z" />
    <glyph glyph-name="aringacute" unicode="&#x1fb;" horiz-adv-x="526" 
d="M417 879q5 3 8 -1l2 -2q3 -2 -2 -5l-186 -85q-3 -1 -6 1l-3 3q-3 2 2 5zM237 671q7 42 36.5 65t73.5 23q43 0 63 -25t12 -67q-7 -42 -35.5 -65t-71.5 -23t-64.5 25t-13.5 67zM410 669q7 36 -10.5 57t-54.5 21q-82 0 -96 -78q-6 -36 12 -57t56 -21q37 0 62 21t31 57z
M65 340q16 96 72.5 140t162.5 44q89 0 151 -28q23 -10 29 -20.5t2 -34.5l-72 -410q-1 -5 -10 -9q-95 -36 -212 -36q-94 0 -130.5 55.5t-19.5 148.5zM444 483q-62 28 -146 28q-98 0 -150.5 -40t-68.5 -131l-27 -150q-16 -88 17.5 -139.5t120.5 -51.5q119 0 206 36l72 406
q3 20 -1 26.5t-23 15.5z" />
    <glyph glyph-name="AEacute" unicode="&#x1fc;" horiz-adv-x="800" 
d="M772 891q5 3 9 -1l2 -3q4 -4 -2 -7l-199 -114q-4 -2 -7 1l-3 4q-2 3 2 6zM707 14q3 0 3 -4l-1 -6q-1 -4 -5 -4h-325q-4 0 -3 4l35 198h-293l-154 -198q-4 -4 -8 -4h-6q-7 0 -3 4l545 701q4 5 8 5h314q4 0 4 -4l-2 -6q0 -4 -4 -4h-299l-58 -330h257q3 0 3 -4l-1 -6
q-1 -4 -5 -4h-257l-59 -338h314zM498 689l-369 -473h284z" />
    <glyph glyph-name="aeacute" unicode="&#x1fd;" horiz-adv-x="780" 
d="M541 710q5 3 9 -1l2 -3q4 -4 -2 -7l-199 -114q-4 -2 -7 1l-3 4q-3 3 2 6zM398 394q28 62 79.5 96t117.5 34q88 0 128 -43.5t21 -123.5q-16 -66 -68 -100t-131 -34q-86 0 -170 23l-12 -69q-31 -178 133 -178q66 0 110 27.5t78 80.5q3 4 5 2l7 -3q2 -1 0 -5
q-74 -115 -202 -115q-117 0 -142 87q-22 -36 -68 -61.5t-112 -25.5q-94 0 -133 37.5t-26 112.5t65 109.5t149 34.5q73 0 139 -14l11 62q6 33 8 56.5t-2 49t-16.5 41.5t-38.5 26t-65 10q-105 0 -169 -91q-2 -3 -5 -2l-6 2q-4 1 -1 6q36 51 79.5 74.5t104.5 23.5
q76 0 105 -34.5t27 -95.5zM731 359q18 74 -19 113t-119 39q-80 0 -134.5 -51t-70.5 -142l-10 -59q76 -23 170 -23q153 0 183 123zM364 254q-68 13 -140 13q-90 0 -137 -32t-60 -101q-12 -69 24 -102t123 -33q39 0 71.5 10t53 26.5t31.5 29.5t18 26q-7 41 2 86z" />
    <glyph glyph-name="Oslashacute" unicode="&#x1fe;" horiz-adv-x="660" 
d="M521 901q5 3 9 -1l2 -3q4 -4 -2 -7l-199 -114q-4 -2 -7 1l-3 4q-2 3 2 6zM673 748q4 0 1 -3l-78 -96q49 -64 29 -170l-45 -254q-20 -114 -97.5 -176.5t-204.5 -62.5q-118 0 -177 56l-68 -84q-3 -3 -8 -3h-7q-4 0 -1 3l75 93q-59 65 -38 180l45 254q20 114 98.5 176.5
t206.5 62.5q126 0 184 -66l70 87q3 3 7 3h8zM578 647q-54 63 -175 63t-195.5 -59.5t-93.5 -169.5l-45 -252q-18 -107 33 -167zM610 481q17 98 -24 155l-475 -583q55 -53 167 -53q119 0 193.5 60.5t93.5 168.5z" />
    <glyph glyph-name="oslashacute" unicode="&#x1ff;" horiz-adv-x="535" 
d="M422 710q5 3 9 -1l2 -3q4 -4 -2 -7l-199 -114q-4 -2 -7 1l-3 4q-3 3 2 6zM504 552q2 0 1 -3l-57 -70q50 -46 37 -121l-36 -206q-13 -77 -78 -121.5t-159 -44.5q-83 0 -133 36l-44 -54q-3 -3 -6 -3h-10q-1 0 -1.5 1t0.5 2l50 62q-49 45 -36 122l36 206q13 77 77.5 121.5
t157.5 44.5q86 0 135 -36l51 62q2 2 5 2h10zM430 476q-48 35 -127 35q-86 0 -147 -41.5t-74 -110.5l-36 -208q-13 -72 30 -110zM87 33q44 -34 126 -34q88 0 148.5 41.5t73.5 110.5l36 208q12 67 -32 108z" />
    <glyph glyph-name="Scommaaccent" unicode="&#x218;" horiz-adv-x="609" 
d="M102 545q16 88 87 133.5t185 45.5q94 0 147 -39t77 -114q2 -5 -3 -6l-3 -2q-5 -1 -6 1q-23 72 -73.5 108.5t-140.5 36.5q-107 0 -174.5 -43t-81.5 -124q-9 -49 5 -83t49 -53t70.5 -28t87.5 -15q43 -5 72 -10.5t62 -19t51 -32t27 -51t1 -75.5q-17 -96 -87.5 -142.5
t-198.5 -46.5q-100 0 -158 43.5t-80 135.5q-1 5 3 7l6 2q4 1 5 -2q23 -90 76.5 -130.5t147.5 -40.5q241 0 272 177q7 40 -2 69.5t-25 46t-49 28.5t-59 16.5t-69 9.5q-53 7 -91 17t-74 31t-50.5 58.5t-5.5 90.5zM196 -245q-2 -5 -6 -5h-4q-6 0 -4 5l73 147q2 4 7 4h5
q5 0 3 -5z" />
    <glyph glyph-name="scommaaccent" unicode="&#x219;" horiz-adv-x="485" 
d="M70 387q25 137 209 137q154 0 175 -110q1 -4 -2 -6l-4 -2q-4 -2 -6 2q-11 51 -48 77t-116 26q-84 0 -133.5 -32.5t-60.5 -93.5q-3 -16 -3.5 -30t3.5 -24.5t7 -19t12.5 -15.5t15 -11.5t19.5 -8.5l21 -6t25.5 -4.5t26 -3t28.5 -2.5q7 -1 11 -1q42 -4 69.5 -10.5t53 -20.5
t35 -40.5t2.5 -65.5q-24 -136 -216 -136q-80 0 -126.5 29.5t-60.5 98.5q0 5 3 6l6 2q4 1 4 -2q12 -65 55.5 -93t119.5 -28q179 0 201 125q6 35 -2.5 58.5t-32.5 36t-49 18t-66 9.5q-99 10 -131 26q-60 29 -45 115zM145 -225q-3 -5 -7 -5h-4q-6 0 -3 5l69 155q2 4 6 4h6
q6 0 3 -4z" />
    <glyph glyph-name="uni021A" unicode="&#x21a;" horiz-adv-x="516" 
d="M571 710q4 0 4 -4l-2 -6q0 -4 -4 -4h-235l-122 -692q-1 -4 -5 -4h-7q-4 0 -3 4l122 692h-235q-4 0 -4 4l2 6q0 4 4 4h485zM141 -236q-3 -5 -6 -5h-4q-7 0 -4 5l73 147q2 4 7 4h5q6 0 3 -5z" />
    <glyph glyph-name="uni021B" unicode="&#x21b;" horiz-adv-x="318" 
d="M193 630q4 0 3 -4l-20 -116h177q4 0 3 -4l-1 -5q0 -4 -4 -4h-177l-57 -324q-18 -105 11.5 -139t132.5 -34q4 0 3 -4l-1 -6q0 -4 -4 -4q-108 0 -142 38.5t-14 148.5l57 324h-123q-4 0 -4 4l1 5q1 4 5 4h123l20 116q1 4 5 4h6zM93 -236q-3 -5 -6 -5h-4q-7 0 -4 5l73 147
q2 4 7 4h5q6 0 3 -5z" />
    <glyph glyph-name="dotlessj" unicode="&#x237;" horiz-adv-x="164" 
d="M122 510q4 0 3 -4l-91 -516q-20 -112 -70 -166t-154 -54q-3 0 -3 4l1 6q1 4 5 4q97 0 143 50t64 155l91 517q1 4 5 4h6z" />
    <glyph glyph-name="circumflex" unicode="&#x2c6;" horiz-adv-x="360" 
d="M262 714q5 0 10 -5l124 -118q4 -4 -3 -4h-6q-5 0 -9 3l-118 112l-157 -112q-5 -3 -8 -3h-11q-7 0 -3 4l167 118q7 5 11 5h3z" />
    <glyph glyph-name="caron" unicode="&#x2c7;" horiz-adv-x="332" 
d="M402 714q6 0 1 -5l-165 -117q-6 -5 -11 -5h-1q-4 0 -10 5l-125 118q-2 4 2 4h9q4 0 7 -3l118 -110l157 110q4 3 10 3h8z" />
    <glyph glyph-name="breve" unicode="&#x2d8;" horiz-adv-x="287" 
d="M366 708q-50 -115 -165 -115q-62 0 -94 27.5t-37 87.5q-2 5 3 5l6 1q4 1 5 -3q4 -54 32 -79t84 -25q107 0 153 105q1 4 5 3l7 -2q2 -1 1 -5z" />
    <glyph glyph-name="dotaccent" unicode="&#x2d9;" horiz-adv-x="216" 
d="M182 663q11 0 10 -12l-1 -4q-1 -12 -14 -12h-4q-7 0 -9 2.5t-1 9.5l1 4q1 12 14 12h4z" />
    <glyph glyph-name="ring" unicode="&#x2da;" horiz-adv-x="240" 
d="M94 632q7 42 36.5 65t73.5 23q43 0 63 -25t12 -67q-7 -42 -35.5 -65t-71.5 -23t-64.5 25t-13.5 67zM267 630q7 36 -10.5 57t-54.5 21q-82 0 -96 -78q-6 -36 12 -57t56 -21q37 0 62 21t31 57z" />
    <glyph glyph-name="ogonek" unicode="&#x2db;" horiz-adv-x="252" 
d="M139 0q-77 -50 -116.5 -105.5t-31.5 -95.5q4 -19 13.5 -26t31.5 -7q44 0 84 37q3 3 4 -1l2 -8q1 -2 -3 -6q-44 -36 -90 -36t-56 41q-9 42 29.5 99.5t114.5 107.5h18z" />
    <glyph glyph-name="tilde" unicode="&#x2dc;" horiz-adv-x="305" 
d="M381 696q4 0 3 -4q-16 -87 -84 -87q-24 0 -45.5 12t-34.5 27t-33 27t-42 12q-27 0 -46 -20.5t-25 -53.5q0 -4 -4 -4h-6q-4 0 -4 4q7 40 29.5 63.5t56.5 23.5q37 0 79.5 -39t74.5 -39q28 0 46 20.5t24 53.5q1 4 5 4h6z" />
    <glyph glyph-name="hungarumlaut" unicode="&#x2dd;" horiz-adv-x="395" 
d="M255 714q4 4 7 3l8 -1q7 -1 1 -5l-138 -122q-2 -2 -4 -2.5t-3 0.5l-6 2q-5 2 0 5zM434 712q4 4 7 3l8 -1q5 -1 1 -5l-142 -118q-3 -4 -7 -2l-6 2q-4 1 0 5z" />
    <glyph glyph-name="uni0326" unicode="&#x326;" horiz-adv-x="0" 
d="M-1 -236q-3 -5 -6 -5h-4q-7 0 -4 5l73 147q2 4 7 4h5q6 0 3 -5z" />
    <glyph glyph-name="pi" unicode="&#x3c0;" horiz-adv-x="584" 
d="M603 510q4 0 3 -4l-1 -5q0 -4 -4 -4h-85l-63 -355q-14 -83 10 -133q2 -5 -3 -7l-5 -3q-3 -2 -6 2q-26 54 -10 141l63 355h-306l-87 -493q-1 -4 -5 -4h-6q-4 0 -3 4l87 493q-70 -1 -138 -38q-6 -4 -7 0l-2 5q-1 3 3 6q70 40 158 40h407z" />
    <glyph glyph-name="uni0401" unicode="&#x401;" horiz-adv-x="565" 
d="M311 828q7 0 8.5 -2t0.5 -9l-1 -6q-2 -11 -13 -11h-6q-11 0 -9 11l1 6q1 11 13 11h6zM498 828q11 0 10 -11l-1 -6q-2 -11 -14 -11h-5q-8 0 -9.5 2t-0.5 9l1 6q1 11 14 11h5zM576 710q4 0 4 -4l-2 -6q0 -4 -4 -4h-402l-58 -329h360q4 0 3 -4l-1 -6q-1 -4 -5 -4h-360
l-59 -339h417q3 0 3 -4l-1 -6q-1 -4 -5 -4h-428q-4 0 -3 4l124 702q0 4 4 4h413z" />
    <glyph glyph-name="uni0410" unicode="&#x410;" horiz-adv-x="620" 
d="M556 4q0 -4 -5 -4h-4q-6 0 -6 4l-60 257h-354l-150 -257q-3 -4 -8 -4h-6q-7 0 -3 4l412 707q3 5 8 5h6q6 0 6 -5zM383 686q0 1 -1 5t-1 7h-1q-3 -9 -5 -12l-240 -411h344z" />
    <glyph glyph-name="uni0411" unicode="&#x411;" horiz-adv-x="622" 
d="M599 710q4 0 4 -4l-2 -6q0 -4 -4 -4h-425l-55 -312h284q92 0 135.5 -51.5t27.5 -143.5q-16 -91 -76 -140t-152 -49h-298q-4 0 -3 4l124 702q0 4 4 4h436zM549 192q15 86 -24 132t-126 46h-285l-62 -356h285q86 0 141.5 46t70.5 132z" />
    <glyph glyph-name="uni0412" unicode="&#x412;" horiz-adv-x="636" 
d="M448 710q87 0 127 -45.5t25 -130.5q-24 -138 -144 -169v-1q64 -13 92.5 -61.5t14.5 -119.5q-17 -89 -74.5 -136t-147.5 -47h-303q-4 0 -3 4l124 702q0 4 4 4h285zM585 534q14 80 -21.5 121t-116.5 41h-275l-58 -326h275q81 0 131.5 42t64.5 122zM548 186q14 81 -24 125.5
t-121 44.5h-291l-60 -342h291q84 0 137 44t68 128z" />
    <glyph glyph-name="uni0413" unicode="&#x413;" horiz-adv-x="511" 
d="M554 710q4 0 4 -4l-2 -6q0 -4 -4 -4h-380l-122 -692q-1 -4 -5 -4h-7q-4 0 -3 4l124 702q0 4 4 4h391z" />
    <glyph glyph-name="uni0414" unicode="&#x414;" horiz-adv-x="687" 
d="M651 710q4 0 4 -4l-122 -692h75q3 0 3 -4l-28 -159q-1 -4 -5 -4h-7q-4 0 -3 4l26 149h-619l-26 -149q-1 -4 -5 -4h-7q-4 0 -3 4l28 159q0 4 5 4h49q21 13 36 25.5t39 47.5t43 83t42 135t43 201l36 200q0 4 4 4h392zM267 696l-34 -190q-23 -134 -49.5 -229t-53.5 -146.5
t-47 -75.5t-44 -41h479l120 682h-371z" />
    <glyph glyph-name="uni0415" unicode="&#x415;" horiz-adv-x="565" 
d="M576 710q4 0 4 -4l-2 -6q0 -4 -4 -4h-402l-58 -329h360q4 0 3 -4l-1 -6q-1 -4 -5 -4h-360l-59 -339h417q3 0 3 -4l-1 -6q-1 -4 -5 -4h-428q-4 0 -3 4l124 702q0 4 4 4h413z" />
    <glyph glyph-name="uni0416" unicode="&#x416;" horiz-adv-x="891" 
d="M926 710q7 0 2 -5l-294 -345q71 -19 99 -104l82 -251q2 -5 -4 -5h-5q-6 0 -7 4l-80 244q-19 57 -51 81t-100 24h-107l-61 -349q-1 -4 -5 -4h-7q-4 0 -3 4l61 349h-107q-65 0 -107.5 -25t-79.5 -80l-166 -244q-4 -4 -9 -4h-5q-7 0 -2 5l170 251q58 85 136 104l-173 345
q-2 5 4 5h3q6 0 9 -4l171 -342q23 3 52 3h107l60 339q0 4 4 4h7q4 0 4 -4l-60 -339h107q27 0 47 -3l293 342q3 4 9 4h6z" />
    <glyph glyph-name="uni0417" unicode="&#x417;" horiz-adv-x="602" 
d="M569 527q-11 -57 -44.5 -101.5t-88.5 -60.5q119 -40 94 -178q-17 -96 -87 -148.5t-192 -52.5q-119 0 -171 45t-61 137q-1 4 4 6h4q5 2 6 -3q9 -89 58 -130t161 -41q115 0 182 49.5t82 139.5q14 77 -21.5 123t-114.5 46h-207q-4 0 -3 4l1 6q0 4 5 4h207q74 0 117.5 45.5
t55.5 111.5q16 87 -29.5 134t-147.5 47q-108 0 -170.5 -39.5t-103.5 -127.5q-2 -4 -7 -2l-4 1q-4 1 -2 6q40 90 107 133t182 43q109 0 157 -52t31 -145z" />
    <glyph glyph-name="uni0418" unicode="&#x418;" horiz-adv-x="689" 
d="M668 710q4 0 4 -4l-124 -702q-1 -4 -5 -4h-7q-4 0 -3 4l89 502q22 118 32 177h-1q-5 -6 -143 -161l-458 -518q-4 -4 -8 -4h-6q-4 0 -3 4l124 702q0 4 4 4h7q5 0 4 -4l-87 -484q-5 -32 -17 -97t-17 -98h1q25 29 77.5 88t78.5 89l446 503q2 3 6 3h6z" />
    <glyph glyph-name="uni0419" unicode="&#x419;" horiz-adv-x="689" 
d="M424 766q-62 0 -93.5 27.5t-36.5 87.5q0 5 3 5l7 1q4 0 4 -3q4 -54 32.5 -79t84.5 -25q55 0 91.5 25t60.5 80q3 4 6 3l6 -2q3 -2 1 -5q-26 -60 -65.5 -87.5t-100.5 -27.5zM668 710q4 0 4 -4l-124 -702q-1 -4 -5 -4h-7q-4 0 -3 4l89 502q22 118 32 177h-1q-5 -6 -143 -161
l-458 -518q-4 -4 -8 -4h-6q-4 0 -3 4l124 702q0 4 4 4h7q5 0 4 -4l-87 -484q-5 -32 -17 -97t-17 -98h1q25 29 77.5 88t78.5 89l446 503q2 3 6 3h6z" />
    <glyph glyph-name="uni041A" unicode="&#x41a;" horiz-adv-x="588" 
d="M514 5q2 -5 -4 -5h-4q-6 0 -7 4l-80 244q-19 56 -50 80.5t-96 24.5h-162l-61 -349q-1 -4 -5 -4h-7q-4 0 -3 4l124 702q0 4 4 4h7q4 0 4 -4l-60 -339h157q20 0 30 -1l309 340q3 4 9 4h7q7 0 2 -5l-311 -342q47 -8 73.5 -34.5t41.5 -72.5z" />
    <glyph glyph-name="uni041B" unicode="&#x41b;" horiz-adv-x="636" 
d="M615 710q4 0 4 -4l-124 -702q-1 -4 -5 -4h-7q-4 0 -3 4l122 692h-370l-41 -230q-21 -118 -43 -201t-40 -129t-45 -76.5t-45 -41.5t-52 -27q-6 -3 -9 -4q-5 -2 -6 1l-2 6q-1 4 3 6q27 13 39.5 19.5t34.5 23t33.5 35.5t29 52.5t30 78t27.5 109t30 148.5l43 240q0 4 4 4h392
z" />
    <glyph glyph-name="uni041C" unicode="&#x41c;" horiz-adv-x="791" 
d="M770 710q4 0 4 -4l-124 -702q-1 -4 -5 -4h-7q-4 0 -3 4l92 520l28 154h-1q-16 -21 -47 -63t-47 -63l-275 -373q-4 -5 -8 -5h-6q-6 0 -7 5l-147 378q-8 20 -23.5 61t-23.5 61h-1l-28 -155l-91 -520q-1 -4 -5 -4h-7q-4 0 -3 4l124 702q0 4 4 4h5q4 0 6 -5l202 -513l378 512
q4 6 9 6h7z" />
    <glyph glyph-name="uni041D" unicode="&#x41d;" horiz-adv-x="678" 
d="M657 710q4 0 4 -4l-124 -702q-1 -4 -5 -4h-7q-4 0 -3 4l61 349h-472l-61 -349q-1 -4 -5 -4h-7q-4 0 -3 4l124 702q0 4 4 4h7q4 0 4 -4l-60 -339h472l60 339q0 4 4 4h7z" />
    <glyph glyph-name="uni041E" unicode="&#x41e;" horiz-adv-x="660" 
d="M99 485q20 114 98.5 176.5t206.5 62.5q127 0 184.5 -65.5t36.5 -179.5l-45 -254q-20 -114 -97.5 -176.5t-204.5 -62.5q-128 0 -186.5 65.5t-37.5 179.5zM610 481q19 108 -34.5 168.5t-172.5 60.5q-121 0 -195.5 -59.5t-93.5 -169.5l-45 -252q-19 -108 34.5 -168.5
t174.5 -60.5q119 0 193.5 60.5t93.5 168.5z" />
    <glyph glyph-name="uni041F" unicode="&#x41f;" horiz-adv-x="671" 
d="M650 710q4 0 4 -4l-124 -702q-1 -4 -5 -4h-7q-4 0 -3 4l122 692h-465l-122 -692q-1 -4 -5 -4h-7q-4 0 -3 4l124 702q0 4 4 4h487z" />
    <glyph glyph-name="uni0420" unicode="&#x420;" horiz-adv-x="612" 
d="M434 710q99 0 147.5 -59t29.5 -158q-19 -98 -85 -151.5t-166 -53.5h-260l-50 -284q-1 -4 -5 -4h-7q-4 0 -3 4l124 702q0 4 4 4h271zM361 302q94 0 157 52t79 144q16 93 -28 145.5t-138 52.5h-259l-70 -394h259z" />
    <glyph glyph-name="uni0421" unicode="&#x421;" horiz-adv-x="631" 
d="M97 483q20 114 97.5 177.5t205.5 63.5q115 0 167.5 -43.5t61.5 -133.5q1 -5 -4 -6l-4 -1q-5 -2 -5 2q-10 88 -59 128t-157 40q-122 0 -196 -60t-92 -166l-44 -254q-19 -108 34 -168t173 -60q111 0 174.5 41.5t104.5 130.5q2 4 6 3l5 -2q4 -1 2 -6q-43 -94 -107.5 -138.5
t-183.5 -44.5q-127 0 -185.5 64.5t-38.5 177.5z" />
    <glyph glyph-name="uni0422" unicode="&#x422;" horiz-adv-x="516" 
d="M571 710q4 0 4 -4l-2 -6q0 -4 -4 -4h-235l-122 -692q-1 -4 -5 -4h-7q-4 0 -3 4l122 692h-235q-4 0 -4 4l2 6q0 4 4 4h485z" />
    <glyph glyph-name="uni0423" unicode="&#x423;" horiz-adv-x="568" 
d="M621 710q5 0 3 -4l-489 -702q-4 -4 -9 -4h-6q-6 0 -2 4l135 195l-182 507q-2 4 3 4h6q4 0 7 -4l176 -494l344 494q3 4 7 4h7z" />
    <glyph glyph-name="uni0424" unicode="&#x424;" horiz-adv-x="817" 
d="M489 735q3 0 3 -4l-14 -81h75q130 0 188 -69t36 -189l-14 -77q-21 -119 -102 -184.5t-212 -65.5h-75l-14 -81q0 -4 -4 -4h-7q-4 0 -4 4l14 81h-75q-130 0 -188 68.5t-36 188.5l14 77q21 120 102 185.5t212 65.5h75l14 81q0 4 5 4h7zM385 636q-124 0 -200.5 -63.5
t-96.5 -176.5l-14 -77q-20 -113 34.5 -176.5t178.5 -63.5h75l98 557h-75zM763 396q20 114 -33.5 177t-179.5 63h-75l-98 -557h75q124 0 200.5 63.5t96.5 176.5z" />
    <glyph glyph-name="uni0425" unicode="&#x425;" horiz-adv-x="594" 
d="M641 710q5 0 3 -4l-326 -347l208 -352q5 -7 -2 -7h-8q-5 0 -6 4l-203 343l-322 -343q-4 -4 -8 -4h-11q-5 0 0 7l333 354l-203 345q-2 4 3 4h8q4 0 7 -4l196 -333l313 333q3 4 7 4h11z" />
    <glyph glyph-name="uni0426" unicode="&#x426;" horiz-adv-x="683" 
d="M604 14q3 0 3 -4l-28 -159q-1 -4 -5 -4h-7q-4 0 -3 4l26 149h-552q-4 0 -3 4l124 702q0 4 4 4h7q4 0 4 -4l-122 -692h462l122 692q0 4 4 4h7q4 0 4 -4l-122 -692h75z" />
    <glyph glyph-name="uni0427" unicode="&#x427;" horiz-adv-x="615" 
d="M594 710q4 0 4 -4l-124 -702q-1 -4 -5 -4h-7q-4 0 -3 4l52 299q-101 -27 -228 -27q-132 0 -178 62.5t-24 185.5l33 182q1 4 4 4h7q4 0 4 -4l-33 -184q-21 -118 20.5 -174.5t168.5 -56.5q125 0 229 26l69 389q0 4 4 4h7z" />
    <glyph glyph-name="uni0428" unicode="&#x428;" horiz-adv-x="897" 
d="M876 710q4 0 4 -4l-124 -702q-1 -4 -5 -4h-713q-4 0 -3 4l124 702q0 4 4 4h7q4 0 4 -4l-122 -692h338l122 692q0 4 4 4h7q4 0 4 -4l-122 -692h338l122 692q0 4 4 4h7z" />
    <glyph glyph-name="uni0429" unicode="&#x429;" horiz-adv-x="912" 
d="M835 14q3 0 3 -4l-28 -159q-1 -4 -5 -4h-7q-4 0 -3 4l26 149h-783q-4 0 -3 4l124 702q0 4 4 4h7q4 0 4 -4l-122 -692h338l122 692q0 4 4 4h7q4 0 4 -4l-122 -692h338l122 692q0 4 4 4h7q4 0 4 -4l-122 -692h77z" />
    <glyph glyph-name="uni042A" unicode="&#x42a;" horiz-adv-x="701" 
d="M471 422q100 0 149 -57.5t31 -155.5q-17 -99 -83.5 -154t-166.5 -55h-273q-4 0 -3 4l122 692h-172q-4 0 -4 4l2 6q0 4 4 4h183q4 0 4 -4l-51 -284h258zM401 14q93 0 156 52.5t79 145.5q16 92 -28 144t-138 52h-259l-69 -394h259z" />
    <glyph glyph-name="uni042B" unicode="&#x42b;" horiz-adv-x="818" 
d="M561 210q-17 -99 -84.5 -154.5t-167.5 -55.5h-271q-4 0 -3 4l124 702q0 4 4 4h7q4 0 4 -4l-51 -284h259q100 0 148.5 -57t30.5 -155zM786 706q0 4 4 4h7q4 0 4 -4l-124 -702q-1 -4 -5 -4h-7q-4 0 -3 4zM546 212q16 92 -28 144t-138 52h-259l-69 -394h258q94 0 157 52.5
t79 145.5z" />
    <glyph glyph-name="uni042C" unicode="&#x42c;" horiz-adv-x="610" 
d="M561 210q-17 -99 -84.5 -154.5t-167.5 -55.5h-271q-4 0 -3 4l124 702q0 4 4 4h7q4 0 4 -4l-51 -284h259q100 0 148.5 -57t30.5 -155zM546 212q16 92 -28 144t-138 52h-259l-69 -394h258q94 0 157 52.5t79 145.5z" />
    <glyph glyph-name="uni042D" unicode="&#x42d;" horiz-adv-x="633" 
d="M90 548q41 90 107 133t181 43q128 0 184.5 -64t36.5 -178l-45 -257q-20 -114 -98 -176.5t-204 -62.5q-118 0 -170.5 45t-61.5 137q-1 4 4 6l4 2q4 2 6 -3q9 -89 58 -131t160 -42q120 0 194.5 60.5t92.5 165.5l22 126h-361q-4 0 -3 4l1 6q0 4 5 4h361l21 119
q18 106 -34.5 165.5t-173.5 59.5q-108 0 -170.5 -39.5t-103.5 -127.5q-2 -4 -7 -2l-4 1q-4 1 -2 6z" />
    <glyph glyph-name="uni042E" unicode="&#x42e;" horiz-adv-x="905" 
d="M347 484q21 114 98.5 177t204.5 63q126 0 182.5 -65t36.5 -179l-45 -258q-20 -113 -97 -174.5t-203 -61.5q-128 0 -185 63.5t-37 176.5l22 127h-213l-61 -349q-1 -4 -5 -4h-7q-4 0 -3 4l124 702q0 4 4 4h7q4 0 4 -4l-60 -339h213zM854 483q19 107 -33.5 167t-171.5 60
q-120 0 -194 -60t-93 -167l-45 -256q-19 -107 34 -167t173 -60t192.5 58.5t92.5 168.5z" />
    <glyph glyph-name="uni042F" unicode="&#x42f;" horiz-adv-x="639" 
d="M97 522q16 91 76 139.5t153 48.5h291q4 0 4 -4l-124 -702q-1 -4 -5 -4h-7q-4 0 -3 4l57 324h-204q-66 0 -108.5 -24.5t-78.5 -80.5l-143 -219q-4 -4 -9 -4h-5q-7 0 -2 5l148 226q47 74 113 97q-86 4 -127 55t-26 139zM325 696q-87 0 -142.5 -45.5t-70.5 -130.5
q-15 -84 25 -131t125 -47h279l63 354h-279z" />
    <glyph glyph-name="uni0430" unicode="&#x430;" horiz-adv-x="526" 
d="M65 340q16 96 72.5 140t162.5 44q89 0 151 -28q23 -10 29 -20.5t2 -34.5l-72 -410q-1 -5 -10 -9q-95 -36 -212 -36q-94 0 -130.5 55.5t-19.5 148.5zM444 483q-62 28 -146 28q-98 0 -150.5 -40t-68.5 -131l-27 -150q-16 -88 17.5 -139.5t120.5 -51.5q119 0 206 36l72 406
q3 20 -1 26.5t-23 15.5z" />
    <glyph glyph-name="uni0431" unicode="&#x431;" horiz-adv-x="549" 
d="M453 734q59 0 88 15q4 3 6 -2l2 -6q0 -2 -4 -5q-30 -16 -94 -16h-39q-146 0 -211 -63t-94 -225l-5 -28q83 100 213 100q104 0 150 -50t31 -139l-25 -144q-16 -88 -78 -136.5t-166 -48.5q-103 0 -149 49.5t-30 137.5l45 259q30 170 99 236t222 66h39zM482 317
q14 82 -28 128t-139 46q-46 0 -86.5 -13.5t-67.5 -35t-40.5 -35.5t-22.5 -27l-36 -207q-15 -82 27.5 -128t138.5 -46q97 0 155.5 46t73.5 128z" />
    <glyph glyph-name="uni0432" unicode="&#x432;" horiz-adv-x="518" 
d="M146 499q65 25 155 25q97 0 138 -38.5t29 -109.5q-15 -85 -101 -110q94 -33 76 -132q-13 -73 -74 -110.5t-159 -37.5q-90 0 -152 28q-22 9 -28 22.5t-2 37.5l64 361q9 46 54 64zM455 378q11 65 -27 99t-127 34q-95 0 -152 -25q-36 -16 -43 -52l-29 -162h242q50 0 88.5 28
t47.5 78zM429 136q10 56 -20 89.5t-88 33.5h-246l-33 -183q-5 -19 -0.5 -29.5t23.5 -19.5q62 -28 146 -28q91 0 148.5 34.5t69.5 102.5z" />
    <glyph glyph-name="uni0433" unicode="&#x433;" horiz-adv-x="488" 
d="M72 404q73 120 218 120q96 0 134 -38t26 -103q-5 -24 -15 -43.5t-20 -32.5t-30 -23t-32.5 -15t-40.5 -9.5t-41 -6t-46 -4.5q-35 -3 -56.5 -6.5t-48.5 -12t-43.5 -21t-30.5 -34t-19 -51.5q-11 -60 27 -92.5t129 -32.5q155 0 220 120q2 4 5 2l6 -3q3 -1 1 -6
q-38 -68 -95 -97t-138 -29q-98 0 -139.5 36.5t-29.5 102.5q6 33 21 57t33 38t47.5 23t52.5 12.5t59 6.5q33 3 51 5t44.5 7.5t42 13.5t32.5 20.5t26.5 31.5t13.5 45q10 60 -24 93t-123 33q-77 0 -122.5 -29t-82.5 -85q-2 -3 -6 -2l-6 3q-2 1 0 6z" />
    <glyph glyph-name="uni0434" unicode="&#x434;" horiz-adv-x="546" 
d="M193 736q0 4 5 4q96 0 154 -15.5t97 -52.5q79 -77 46 -270l-41 -232q-15 -87 -77 -135.5t-164 -48.5q-103 0 -148.5 49t-30.5 137l26 150q16 88 77.5 135.5t164.5 47.5q76 0 122.5 -30.5t55.5 -84.5q35 198 -42 272q-68 65 -243 65q-4 0 -3 4zM467 321q14 81 -28.5 126
t-137.5 45q-97 0 -155 -44.5t-73 -127.5l-26 -150q-14 -81 28.5 -126t138.5 -45q95 0 153.5 45t72.5 126z" />
    <glyph glyph-name="uni0435" unicode="&#x435;" horiz-adv-x="514" 
d="M59 320q17 97 81.5 150.5t163.5 53.5q102 0 149 -44t26 -124q-16 -66 -74.5 -99.5t-149.5 -33.5q-107 0 -196 21l-12 -67q-15 -84 24.5 -131t132.5 -47q76 0 126 27.5t88 80.5q2 4 6 2l5 -3q2 -1 0 -5q-81 -115 -227 -115q-100 0 -142.5 50.5t-26.5 140.5zM465 359
q20 74 -24 113t-139 39q-92 0 -153 -51t-77 -142l-11 -60q85 -22 197 -22q175 0 207 123z" />
    <glyph glyph-name="uni0436" unicode="&#x436;" horiz-adv-x="734" 
d="M408 510q4 0 3 -4l-41 -236h112q18 0 25 -1l214 237q4 4 10 4h6q7 0 2 -5l-216 -240q54 -14 74 -75l60 -186q0 -4 -3 -4h-6q-5 0 -5 3l-60 181q-12 39 -35.5 56t-68.5 17h-112l-44 -253q-1 -4 -5 -4h-6q-4 0 -3 4l44 253h-112q-45 0 -74.5 -17t-55.5 -56l-121 -181
q-3 -3 -7 -3h-8q-5 0 -1 4l126 186q43 65 102 77l-133 238q-2 5 4 5h4q6 0 8 -4l131 -237q9 1 28 1h112l41 236q1 4 5 4h6z" />
    <glyph glyph-name="uni0437" unicode="&#x437;" horiz-adv-x="497" 
d="M61 405q1 5 5 13t20 28.5t38 36t63.5 28.5t93.5 13q86 0 134.5 -39.5t37.5 -103.5q-16 -88 -105 -117v-1q46 -15 63 -47t8 -86q-11 -65 -67.5 -104.5t-154.5 -39.5q-52 0 -90.5 14.5t-56.5 35.5t-28.5 42.5t-11.5 35.5l-2 15q-1 4 4 5l6 2q4 1 4 -3q0 -5 1 -14t10.5 -32
t26 -40.5t52.5 -32t85 -14.5q91 0 144 36.5t63 96.5q11 63 -17.5 93t-102.5 30h-122q-4 0 -3 5l1 4q0 5 5 5h122q131 0 152 113q10 56 -35 91.5t-125 35.5q-48 0 -87 -11t-60 -27t-35 -32.5t-19 -27.5l-4 -11q-1 -6 -6 -4l-5 2q-4 1 -2 6z" />
    <glyph glyph-name="uni0438" unicode="&#x438;" 
d="M504 510q4 0 3 -4l-76 -434q-5 -23 -14 -33.5t-33 -20.5q-83 -32 -180 -32q-189 0 -155 190l58 330q1 4 5 4h6q4 0 3 -4l-58 -329q-31 -178 142 -178q98 0 179 32q28 12 33 41l76 434q1 4 5 4h6z" />
    <glyph glyph-name="uni0439" unicode="&#x439;" 
d="M491 698q-50 -115 -165 -115q-62 0 -94 27.5t-37 87.5q-2 5 3 5l6 1q4 1 5 -3q4 -54 32 -79t84 -25q107 0 153 105q1 4 5 3l7 -2q2 -1 1 -5zM504 510q4 0 3 -4l-76 -434q-5 -23 -14 -33.5t-33 -20.5q-83 -32 -180 -32q-189 0 -155 190l58 330q1 4 5 4h6q4 0 3 -4
l-58 -329q-31 -178 142 -178q98 0 179 32q28 12 33 41l76 434q1 4 5 4h6z" />
    <glyph glyph-name="uni043A" unicode="&#x43a;" horiz-adv-x="507" 
d="M432 4q2 -4 -3 -4h-7q-5 0 -5 3l-60 181q-12 39 -35.5 56t-68.5 17h-172l-44 -253q-1 -4 -5 -4h-6q-4 0 -3 4l88 502q1 4 5 4h6q4 0 3 -4l-41 -236h172h11l229 236q4 4 10 4h5q7 0 2 -5l-230 -238q64 -9 87 -78z" />
    <glyph glyph-name="uni043B" unicode="&#x43b;" horiz-adv-x="530" 
d="M488 510q4 0 3 -4l-88 -502q-1 -4 -5 -4h-6q-4 0 -3 4l86 492h-283l-48 -208q-21 -90 -41.5 -147t-46.5 -87.5t-42.5 -40.5t-51.5 -24q-5 -2 -7 -3q-4 -1 -4 1l-2 7q-1 2 2 4q6 3 22 10t22.5 10.5t21 14t23 22t21.5 33t23 48.5t22 66t24 88l51 216q1 4 5 4h302z" />
    <glyph glyph-name="uni043C" unicode="&#x43c;" horiz-adv-x="632" 
d="M590 510q5 0 4 -5l-89 -500q-1 -5 -6 -5h-3q-6 0 -5 5l66 373q3 17 9.5 51t9.5 51h-1l-63 -86l-220 -298q-4 -5 -9 -5h-3q-6 0 -7 5l-115 291l-36 94h-1l-20 -113l-64 -363q-1 -5 -4 -5h-6q-5 0 -4 5l88 500q1 5 6 5h4q5 0 6 -5l157 -399l293 399q4 5 6 5h7z" />
    <glyph glyph-name="uni043D" unicode="&#x43d;" horiz-adv-x="555" 
d="M513 510q4 0 3 -4l-88 -502q-1 -4 -5 -4h-6q-4 0 -3 4l44 253h-377l-44 -253q-1 -4 -5 -4h-6q-4 0 -3 4l88 502q1 4 5 4h6q4 0 3 -4l-41 -236h377l41 236q1 4 5 4h6z" />
    <glyph glyph-name="uni043E" unicode="&#x43e;" horiz-adv-x="535" 
d="M69 358q13 76 78 121t158 45q95 0 144.5 -44.5t36.5 -121.5l-36 -206q-13 -77 -77.5 -121.5t-158.5 -44.5t-144 45t-37 121zM472 359q13 69 -33.5 110.5t-134.5 41.5q-86 0 -147 -41.5t-74 -110.5l-36 -208q-13 -69 34 -110.5t133 -41.5q88 0 148.5 41.5t73.5 110.5z" />
    <glyph glyph-name="uni043F" unicode="&#x43f;" horiz-adv-x="542" 
d="M143 492q83 32 180 32q189 0 155 -190l-58 -330q-1 -4 -5 -4h-6q-4 0 -3 4l58 329q31 178 -143 178q-97 0 -178 -32q-28 -12 -33 -41l-76 -434q-1 -4 -5 -4h-6q-4 0 -3 4l76 434q5 23 14 33.5t33 20.5z" />
    <glyph glyph-name="uni0440" unicode="&#x440;" horiz-adv-x="530" 
d="M146 496q73 28 161 28q204 0 170 -198l-27 -151q-34 -189 -219 -189q-108 0 -191 53l-45 -255q-1 -4 -5 -4h-6q-4 0 -3 4l116 657q4 24 13.5 34.5t35.5 20.5zM463 326q32 185 -158 185q-85 0 -156 -28q-23 -9 -29 -16t-9 -26l-68 -386q82 -56 190 -56q172 0 203 176z" />
    <glyph glyph-name="uni0441" unicode="&#x441;" horiz-adv-x="510" 
d="M63 337q16 89 77 138t162 49q89 0 129.5 -36t49.5 -104q1 -6 -3 -6l-5 -1q-5 -1 -5 2q-9 67 -47 99t-121 32q-94 0 -151 -46.5t-72 -128.5l-28 -159q-14 -82 27.5 -129t133.5 -47q82 0 134 33.5t85 105.5q1 4 5 3l7 -2q2 -1 1 -5q-34 -76 -90.5 -112.5t-142.5 -36.5
q-99 0 -144.5 51t-29.5 141z" />
    <glyph glyph-name="uni0442" unicode="&#x442;" horiz-adv-x="805" 
d="M410 471q85 53 195 53q169 0 137 -180l-60 -340q-1 -4 -5 -4h-6q-4 0 -3 4l60 339q15 87 -15 127.5t-110 40.5q-104 0 -187 -51q21 -41 9 -116l-60 -340q-1 -4 -5 -4h-6q-4 0 -3 4l60 339q15 86 -17 127t-113 41q-76 0 -137 -29q-29 -13 -34 -44l-76 -434q-1 -4 -5 -4h-6
q-4 0 -3 4l76 434q4 22 14 34t33 23q66 29 140 29q94 0 127 -53z" />
    <glyph glyph-name="uni0443" unicode="&#x443;" horiz-adv-x="546" 
d="M504 510q4 0 3 -4l-97 -551q-38 -215 -242 -215q-134 0 -169 120q-1 4 3 6l5 2q5 2 5 -2q17 -54 53 -83t106 -29q189 0 225 201l13 72q-112 -41 -205 -41q-189 0 -155 190l58 330q1 4 5 4h6q4 0 3 -4l-58 -329q-15 -89 18 -133.5t125 -44.5q96 0 205 42l82 465q1 4 5 4h6
z" />
    <glyph glyph-name="uni0444" unicode="&#x444;" horiz-adv-x="734" 
d="M412 517q45 6 96 7q208 0 174 -196l-26 -150q-9 -49 -29 -85.5t-44 -56.5t-55.5 -32t-57.5 -15t-56 -3q-51 2 -94 7l-37 -209q-1 -4 -5 -4h-6q-4 0 -3 4l37 209q-45 -5 -98 -7q-208 0 -174 197l24 140q11 61 38.5 103.5t64.5 62t70.5 27.5t70.5 8q42 0 96 -7l39 219
q0 4 5 4h6q3 0 3 -4zM48 181q-3 -31 -4.5 -56t7 -43.5t16.5 -31.5t23.5 -22.5t28.5 -14.5t30.5 -8t30.5 -4t29 -1q48 0 99 6l88 498q-50 6 -97 6q-33 0 -64 -7.5t-66 -26t-61 -58.5t-36 -97zM668 330q3 31 4.5 55.5t-7 43t-16.5 32t-23.5 22.5t-28.5 14t-30.5 8t-30.5 4
t-29 1q-46 0 -97 -6l-88 -498q48 -6 95 -6q193 0 225 180z" />
    <glyph glyph-name="uni0445" unicode="&#x445;" horiz-adv-x="460" 
d="M469 510q5 0 1 -3l-239 -246l161 -258q0 -3 -3 -3h-9q-2 0 -4 3l-154 249l-240 -249q-4 -3 -7 -3h-10q-4 0 -1 3l251 260l-153 244q0 3 4 3h7q4 0 5 -3l147 -235l227 235q4 3 7 3h10z" />
    <glyph glyph-name="uni0446" unicode="&#x446;" horiz-adv-x="559" 
d="M118 510q4 0 3 -4l-58 -330q-31 -177 143 -177q45 0 80.5 6t71.5 16t52 13l83 472q1 4 5 4h6q4 0 3 -4l-83 -470q33 5 53.5 -11.5t14.5 -54.5l-18 -105q-1 -4 -3 -4h-6q-5 0 -4 4l18 105q4 26 -7 41.5t-43 12.5q-17 -2 -90 -20t-134 -18q-189 0 -156 189l58 331q1 4 5 4
h6z" />
    <glyph glyph-name="uni0447" unicode="&#x447;" horiz-adv-x="496" 
d="M73 506q1 4 5 4h6q4 0 3 -4l-25 -139q-15 -82 22 -117.5t135 -35.5q73 0 178 30l46 262q1 4 5 4h6q4 0 3 -4l-88 -502q-1 -4 -5 -4h-6q-4 0 -3 4l40 226q-101 -29 -179 -29q-103 0 -143 40.5t-24 128.5z" />
    <glyph glyph-name="uni0448" unicode="&#x448;" horiz-adv-x="799" 
d="M760 510q4 0 3 -4l-76 -434q-5 -23 -14 -35.5t-31 -22.5q-63 -28 -142 -28q-92 0 -126 51q-82 -51 -190 -51q-168 0 -136 183l59 337q1 4 5 4h6q4 0 3 -4l-60 -339q-15 -87 15 -127.5t110 -40.5q96 0 181 48q-23 44 -9 119l60 340q1 4 5 4h6q4 0 3 -4l-61 -342
q-15 -85 17.5 -125t113.5 -40q76 0 137 29q28 13 34 47l76 431q1 4 5 4h6z" />
    <glyph glyph-name="uni0449" unicode="&#x449;" horiz-adv-x="814" 
d="M107 506q1 4 5 4h6q4 0 3 -4l-60 -339q-15 -87 15 -127.5t110 -40.5q96 0 181 48q-23 44 -9 119l60 340q1 4 5 4h6q4 0 3 -4l-61 -342q-15 -85 17.5 -125t113.5 -40q34 0 59 5.5t54 15t50 14.5l84 472q1 4 5 4h6q4 0 3 -4l-83 -469q34 5 54.5 -11.5t14.5 -55.5l-18 -105
q-1 -4 -3 -4h-6q-5 0 -4 4l18 105q4 26 -7 41.5t-43 12.5q-21 -2 -81.5 -20t-104.5 -18q-92 0 -126 51q-82 -51 -190 -51q-168 0 -136 183z" />
    <glyph glyph-name="uni044A" unicode="&#x44a;" horiz-adv-x="596" 
d="M178 302q109 41 205 41q89 0 130.5 -47t26.5 -130q-16 -94 -73 -137t-162 -43q-89 0 -151 28q-23 10 -29 20.5t-2 34.5l76 428h-155q-4 0 -4 4l1 5q1 4 5 4h165q4 0 3 -4zM161 27q62 -28 146 -28q98 0 150.5 40.5t68.5 128.5q14 77 -24 119.5t-120 42.5q-99 0 -206 -43
l-39 -218q-3 -20 1 -26.5t23 -15.5z" />
    <glyph glyph-name="uni044B" unicode="&#x44b;" horiz-adv-x="672" 
d="M86 302q109 41 204 41q89 0 131 -47t27 -130q-16 -94 -73 -137t-162 -43q-89 0 -151 28q-23 10 -29 20.5t-2 34.5l77 437q1 4 5 4h5q5 0 4 -4zM629 510q4 0 3 -4l-88 -502q-1 -4 -5 -4h-6q-4 0 -3 4l88 502q1 4 5 4h6zM69 27q62 -28 146 -28q98 0 150.5 40.5t68.5 128.5
q13 76 -25 119t-120 43q-98 0 -205 -43l-39 -218q-3 -20 1 -26.5t23 -15.5z" />
    <glyph glyph-name="uni044C" unicode="&#x44c;" horiz-adv-x="505" 
d="M86 302q109 41 204 41q89 0 131 -47t27 -130q-16 -94 -73 -137t-162 -43q-89 0 -151 28q-23 10 -29 20.5t-2 34.5l77 437q1 4 5 4h5q5 0 4 -4zM69 27q62 -28 146 -28q98 0 150.5 40.5t68.5 128.5q13 76 -25 119t-120 43q-98 0 -205 -43l-39 -218q-3 -20 1 -26.5t23 -15.5
z" />
    <glyph glyph-name="uni044D" unicode="&#x44d;" horiz-adv-x="508" 
d="M57 385q32 70 84.5 104.5t142.5 34.5q101 0 145 -51t28 -141l-28 -159q-16 -89 -77.5 -138t-161.5 -49q-87 0 -130.5 37t-50.5 112q-1 3 3 5l7 2q4 1 5 -3q7 -72 47 -105.5t122 -33.5q92 0 150 47t73 129l14 79h-262q-4 0 -3 4l1 6q0 4 4 4h262l12 66q15 82 -26 128.5
t-135 46.5q-85 0 -133.5 -30.5t-80.5 -100.5q-2 -4 -5 -2l-6 2q-3 2 -1 6z" />
    <glyph glyph-name="uni044E" unicode="&#x44e;" horiz-adv-x="732" 
d="M275 361q13 76 76.5 119.5t155.5 43.5q93 0 141 -45.5t35 -121.5l-38 -212q-13 -75 -75.5 -117t-156.5 -42q-92 0 -140.5 44t-35.5 119l18 103h-175l-43 -248q-1 -4 -5 -4h-6q-4 0 -3 4l88 502q1 4 5 4h6q4 0 3 -4l-42 -241h175zM670 362q12 68 -33.5 108.5t-131.5 40.5
q-85 0 -145 -41.5t-72 -109.5l-38 -214q-12 -68 34 -107.5t131 -39.5q86 0 145.5 40.5t71.5 108.5z" />
    <glyph glyph-name="uni044F" unicode="&#x44f;" horiz-adv-x="506" 
d="M463 510q6 0 4 -5l-88 -501q-1 -4 -5 -4h-6q-4 0 -3 4l35 200h-216l-177 -200q-4 -4 -9 -4h-6q-7 0 -2 5l177 200q-59 5 -89.5 46.5t-18.5 107.5q13 72 61.5 111.5t121.5 39.5h221zM240 497q-66 0 -110.5 -37.5t-56.5 -103.5q-12 -65 18.5 -102t94.5 -37h216l50 280h-212
z" />
    <glyph glyph-name="uni0451" unicode="&#x451;" horiz-adv-x="514" 
d="M239 664q7 0 8.5 -2t0.5 -9l-1 -6q-2 -11 -13 -11h-6q-11 0 -9 11l1 6q1 11 13 11h6zM426 664q11 0 10 -11l-1 -6q-2 -11 -14 -11h-5q-8 0 -9.5 2t-0.5 9l1 6q1 11 14 11h5zM59 320q17 97 81.5 150.5t163.5 53.5q102 0 149 -44t26 -124q-16 -66 -74.5 -99.5t-149.5 -33.5
q-107 0 -196 21l-12 -67q-15 -84 24.5 -131t132.5 -47q76 0 126 27.5t88 80.5q2 4 6 2l5 -3q2 -1 0 -5q-81 -115 -227 -115q-100 0 -142.5 50.5t-26.5 140.5zM465 359q20 74 -24 113t-139 39q-92 0 -153 -51t-77 -142l-11 -60q85 -22 197 -22q175 0 207 123z" />
    <glyph glyph-name="Wgrave" unicode="&#x1e80;" horiz-adv-x="857" 
d="M434 880q5 5 10 1l161 -109q3 -3 0 -6l-2 -2q-3 -3 -7 -1l-164 108q-5 2 0 7zM901 710q4 0 3 -4l-318 -701q-2 -5 -8 -5h-6q-6 0 -6 5l-63 578q0 2 -3.5 34t-5.5 48h-1q-18 -40 -38 -82l-269 -578q-2 -5 -8 -5h-6q-6 0 -6 5l-70 701q-1 4 3 4h7q5 0 6 -4l59 -603
q3 -24 7 -79h1l36 78l272 584q3 4 7 4h7q5 0 5 -4l64 -586q1 -12 4 -37.5t4 -38.5h1q22 50 32 75l277 607q1 4 6 4h7z" />
    <glyph glyph-name="wgrave" unicode="&#x1e81;" horiz-adv-x="724" 
d="M341 709q4 4 9 1l156 -115q3 -3 0 -6l-1 -1q-4 -4 -7 -1l-158 114q-4 3 0 7zM734 510q5 0 2 -5l-252 -506q-3 -5 -6 -5h-7q-5 0 -5 5l-63 403q-6 44 -10 66h-1q-6 -13 -18 -36t-16 -30l-207 -403q-3 -5 -6 -5h-7q-3 0 -4 5l-73 506q0 5 4 5h6q4 0 4 -5l58 -404l12 -83h1
l43 85l198 383q1 4 6 4h5q4 0 5 -4l60 -378q10 -60 14 -90h1q7 15 22 44.5t22 43.5l199 400q2 4 7 4h6z" />
    <glyph glyph-name="Wacute" unicode="&#x1e82;" horiz-adv-x="857" 
d="M617 891q5 3 9 -1l2 -3q4 -4 -2 -7l-199 -114q-4 -2 -7 1l-3 4q-2 3 2 6zM901 710q4 0 3 -4l-318 -701q-2 -5 -8 -5h-6q-6 0 -6 5l-63 578q0 2 -3.5 34t-5.5 48h-1q-18 -40 -38 -82l-269 -578q-2 -5 -8 -5h-6q-6 0 -6 5l-70 701q-1 4 3 4h7q5 0 6 -4l59 -603q3 -24 7 -79
h1l36 78l272 584q3 4 7 4h7q5 0 5 -4l64 -586q1 -12 4 -37.5t4 -38.5h1q22 50 32 75l277 607q1 4 6 4h7z" />
    <glyph glyph-name="wacute" unicode="&#x1e83;" horiz-adv-x="724" 
d="M519 710q5 3 9 -1l2 -3q4 -4 -2 -7l-199 -114q-4 -2 -7 1l-3 4q-3 3 2 6zM734 510q5 0 2 -5l-252 -506q-3 -5 -6 -5h-7q-5 0 -5 5l-63 403q-6 44 -10 66h-1q-6 -13 -18 -36t-16 -30l-207 -403q-3 -5 -6 -5h-7q-3 0 -4 5l-73 506q0 5 4 5h6q4 0 4 -5l58 -404l12 -83h1
l43 85l198 383q1 4 6 4h5q4 0 5 -4l60 -378q10 -60 14 -90h1q7 15 22 44.5t22 43.5l199 400q2 4 7 4h6z" />
    <glyph glyph-name="Wdieresis" unicode="&#x1e84;" horiz-adv-x="857" 
d="M433 839q7 0 8.5 -2t0.5 -9l-1 -6q-2 -11 -13 -11h-6q-11 0 -9 11l1 6q1 11 13 11h6zM620 839q11 0 10 -11l-1 -6q-2 -11 -14 -11h-5q-8 0 -9.5 2t-0.5 9l1 6q1 11 14 11h5zM901 710q4 0 3 -4l-318 -701q-2 -5 -8 -5h-6q-6 0 -6 5l-63 578q0 2 -3.5 34t-5.5 48h-1
q-18 -40 -38 -82l-269 -578q-2 -5 -8 -5h-6q-6 0 -6 5l-70 701q-1 4 3 4h7q5 0 6 -4l59 -603q3 -24 7 -79h1l36 78l272 584q3 4 7 4h7q5 0 5 -4l64 -586q1 -12 4 -37.5t4 -38.5h1q22 50 32 75l277 607q1 4 6 4h7z" />
    <glyph glyph-name="wdieresis" unicode="&#x1e85;" horiz-adv-x="724" 
d="M336 663q7 0 8.5 -2t0.5 -9l-1 -6q-2 -11 -13 -11h-6q-11 0 -9 11l1 6q1 11 13 11h6zM523 663q11 0 10 -11l-1 -6q-2 -11 -14 -11h-5q-8 0 -9.5 2t-0.5 9l1 6q1 11 14 11h5zM734 510q5 0 2 -5l-252 -506q-3 -5 -6 -5h-7q-5 0 -5 5l-63 403q-6 44 -10 66h-1
q-6 -13 -18 -36t-16 -30l-207 -403q-3 -5 -6 -5h-7q-3 0 -4 5l-73 506q0 5 4 5h6q4 0 4 -5l58 -404l12 -83h1l43 85l198 383q1 4 6 4h5q4 0 5 -4l60 -378q10 -60 14 -90h1q7 15 22 44.5t22 43.5l199 400q2 4 7 4h6z" />
    <glyph glyph-name="Ygrave" unicode="&#x1ef2;" horiz-adv-x="606" 
d="M308 880q5 5 10 1l161 -109q3 -3 0 -6l-2 -2q-3 -3 -7 -1l-164 108q-5 2 0 7zM660 710q5 0 3 -4l-354 -410l-51 -292q-1 -4 -5 -4h-7q-4 0 -3 4l51 293l-207 409q-2 4 3 4h8q4 0 7 -4l199 -394l339 394q3 4 7 4h10z" />
    <glyph glyph-name="ygrave" unicode="&#x1ef3;" horiz-adv-x="546" 
d="M249 709q4 4 9 1l156 -115q3 -3 0 -6l-1 -1q-4 -4 -7 -1l-158 114q-4 3 0 7zM504 510q4 0 3 -4l-97 -551q-38 -215 -242 -215q-134 0 -169 120q-1 4 3 6l5 2q5 2 5 -2q17 -54 53 -83t106 -29q189 0 225 201l13 72q-112 -41 -205 -41q-189 0 -155 190l58 330q1 4 5 4h6
q4 0 3 -4l-58 -329q-15 -89 18 -133.5t125 -44.5q96 0 205 42l82 465q1 4 5 4h6z" />
    <glyph glyph-name="endash" unicode="&#x2013;" horiz-adv-x="583" 
d="M509 275q3 0 3 -4l-1 -6q-1 -4 -5 -4h-444q-4 0 -3 4l1 6q0 4 5 4h444z" />
    <glyph glyph-name="emdash" unicode="&#x2014;" horiz-adv-x="783" 
d="M709 275q3 0 3 -4l-1 -6q-1 -4 -5 -4h-644q-4 0 -3 4l1 6q0 4 5 4h644z" />
    <glyph glyph-name="quoteleft" unicode="&#x2018;" horiz-adv-x="172" 
d="M183 706q1 4 5 4h4q4 0 3 -4l-69 -145q-4 -7 -10 -7h-6q-8 0 -4 7z" />
    <glyph glyph-name="quoteright" unicode="&#x2019;" horiz-adv-x="170" 
d="M117 558q-1 -4 -5 -4h-4q-4 0 -3 4l69 145q4 7 10 7h6q8 0 4 -7z" />
    <glyph glyph-name="quotesinglbase" unicode="&#x201a;" horiz-adv-x="128" 
d="M5 -100q0 -4 -4 -4h-5q-5 0 -4 4l39 206q1 4 4 4h9q4 0 4 -4z" />
    <glyph glyph-name="quotedblleft" unicode="&#x201c;" horiz-adv-x="258" 
d="M183 706q1 4 5 4h4q4 0 3 -4l-69 -145q-4 -7 -10 -7h-6q-8 0 -4 7zM269 706q1 4 5 4h4q4 0 3 -4l-69 -145q-4 -7 -10 -7h-6q-8 0 -4 7z" />
    <glyph glyph-name="quotedblright" unicode="&#x201d;" horiz-adv-x="256" 
d="M117 558q-1 -4 -5 -4h-4q-4 0 -3 4l69 145q4 7 10 7h6q8 0 4 -7zM203 558q-1 -4 -5 -4h-4q-4 0 -3 4l69 145q4 7 10 7h6q8 0 4 -7z" />
    <glyph glyph-name="quotedblbase" unicode="&#x201e;" horiz-adv-x="222" 
d="M-37 -117q-1 -4 -5 -4h-4q-4 0 -3 4l69 145q4 7 10 7h6q8 0 4 -7zM49 -117q-1 -4 -5 -4h-4q-4 0 -3 4l69 145q4 7 10 7h6q8 0 4 -7z" />
    <glyph glyph-name="dagger" unicode="&#x2020;" horiz-adv-x="542" 
d="M527 451q3 0 3 -4l-1 -6q-1 -4 -5 -4h-222l-94 -533q0 -4 -5 -4h-7q-3 0 -3 4l94 533h-224q-4 0 -3 4l1 6q0 4 5 4h224l45 255q0 4 4 4h7q4 0 4 -4l-45 -255h222z" />
    <glyph glyph-name="daggerdbl" unicode="&#x2021;" horiz-adv-x="597" 
d="M375 710q4 0 4 -4l-45 -255h222q3 0 3 -4l-1 -6q-1 -4 -5 -4h-222l-47 -266h222q4 0 3 -4l-1 -6q0 -4 -4 -4h-222l-45 -253q0 -4 -5 -4h-7q-3 0 -3 4l45 253h-224q-4 0 -4 4l1 6q1 4 5 4h224l47 266h-224q-4 0 -3 4l1 6q0 4 5 4h224l45 255q0 4 4 4h7z" />
    <glyph glyph-name="bullet" unicode="&#x2022;" horiz-adv-x="238" 
d="M108 239q-23 0 -20 24q5 24 29 24q11 0 16 -7t3 -17q-1 -10 -9 -17t-19 -7z" />
    <glyph glyph-name="ellipsis" unicode="&#x2026;" horiz-adv-x="497" 
d="M31 26q13 0 10 -13l-1 -4q-3 -13 -16 -13h-4q-8 0 -10 2.5t0 10.5l1 4q3 13 16 13h4zM211 26q13 0 10 -13l-1 -4q-3 -13 -16 -13h-4q-8 0 -10 2.5t0 10.5l1 4q3 13 16 13h4zM391 26q13 0 10 -13l-1 -4q-3 -13 -16 -13h-4q-8 0 -10 2.5t0 10.5l1 4q3 13 16 13h4z" />
    <glyph glyph-name="perthousand" unicode="&#x2030;" horiz-adv-x="1170" 
d="M89 579q12 68 57.5 107t118.5 39q72 0 104 -38.5t20 -107.5l-13 -75q-12 -68 -57.5 -106.5t-118.5 -38.5t-104.5 38.5t-19.5 106.5zM375 579q11 62 -18.5 97t-94.5 35t-106.5 -35t-52.5 -97l-13 -75q-11 -62 18 -96.5t95 -34.5q65 0 106.5 34.5t52.5 96.5zM738 710
q6 0 1 -5l-639 -701q-4 -4 -10 -4h-6q-7 0 -2 5l640 701q3 4 8 4h8zM445 205q12 68 57.5 107t118.5 39q72 0 104 -38.5t20 -107.5l-13 -75q-12 -68 -57.5 -106.5t-118.5 -38.5t-104.5 38.5t-19.5 106.5zM817 205q12 68 57.5 107t118.5 39q72 0 104 -38.5t20 -107.5l-13 -75
q-12 -68 -57.5 -106.5t-118.5 -38.5t-104.5 38.5t-19.5 106.5zM731 205q11 62 -18.5 97t-94.5 35t-106.5 -35t-52.5 -97l-13 -75q-11 -62 18.5 -96.5t94.5 -34.5q66 0 107 34.5t52 96.5zM1103 205q11 62 -18.5 97t-94.5 35t-106.5 -35t-52.5 -97l-13 -75q-11 -62 18.5 -96.5
t94.5 -34.5q66 0 107 34.5t52 96.5z" />
    <glyph glyph-name="guilsinglleft" unicode="&#x2039;" horiz-adv-x="319" 
d="M223 57q3 -3 -1 -6l-4 -2q-5 -3 -7 0l-174 211q-3 3 1 5l249 213q5 3 6 0l4 -6q2 -4 -2 -7l-240 -204z" />
    <glyph glyph-name="guilsinglright" unicode="&#x203a;" horiz-adv-x="320" 
d="M83 469q-3 4 2 7l4 2q5 3 6 0l175 -213q1 -3 -1 -5l-248 -211q-5 -4 -7 0l-4 6q-2 3 1 6l240 204z" />
    <glyph glyph-name="fraction" unicode="&#x2044;" horiz-adv-x="120" 
d="M318 705q4 5 8 5h7q7 0 3 -5l-515 -700q-4 -5 -10 -5h-6q-6 0 -2 5z" />
    <glyph glyph-name="zerosuperior" unicode="&#x2070;" horiz-adv-x="367" 
d="M111 690q11 60 53.5 94t109.5 34q65 0 96 -36.5t20 -96.5l-26 -152q-11 -60 -53.5 -94t-108.5 -34t-97 36t-20 97zM377 687q10 54 -18 86t-87 32q-60 0 -99 -32t-49 -86l-26 -152q-10 -55 17.5 -86t88.5 -31q60 0 98.5 31.5t48.5 85.5z" />
    <glyph glyph-name="foursuperior" unicode="&#x2074;" horiz-adv-x="338" 
d="M358 549q4 0 3 -4v-4q-1 -5 -5 -5h-63l-21 -119q-1 -4 -5 -4h-6q-4 0 -3 4l21 119h-213q-4 0 -4 4l1 3q2 7 3 8l254 255q4 4 10 4h6q5 0 4 -5l-45 -256h63zM324 792l-242 -243h199z" />
    <glyph glyph-name="fivesuperior" unicode="&#x2075;" horiz-adv-x="342" 
d="M379 810q4 0 3 -4l-1 -6q0 -4 -4 -4h-209l-42 -152h100q71 0 101 -31.5t20 -87.5q-9 -53 -48 -86.5t-106 -33.5q-117 0 -125 111q0 6 4 7l6 1q5 1 5 -4q3 -101 112 -101q60 0 95 30.5t43 77.5q9 50 -17.5 76.5t-90.5 26.5h-111q-8 0 -4 7l45 166q3 7 9 7h215z" />
    <glyph glyph-name="sixsuperior" unicode="&#x2076;" horiz-adv-x="365" 
d="M110 607q76 31 149 31q132 0 112 -116q-21 -117 -169 -117q-140 0 -113 157l18 105q26 151 171 151q97 0 118 -76q2 -3 -2 -5l-5 -2q-5 -2 -5 2q-8 29 -34.5 48.5t-73.5 19.5q-64 0 -104 -36.5t-52 -104.5zM102 559q-25 -141 102 -141q134 0 153 106q18 101 -101 101
q-75 0 -149 -34z" />
    <glyph glyph-name="sevensuperior" unicode="&#x2077;" horiz-adv-x="294" 
d="M366 810q4 0 4 -3l-1 -3l-2 -6l-229 -382q-3 -3 -6 -3h-7q-5 0 -2 4l229 380h-244q-4 0 -4 3l1 6q1 4 5 4h256z" />
    <glyph glyph-name="eightsuperior" unicode="&#x2078;" horiz-adv-x="365" 
d="M122 714q9 51 49 77.5t103 26.5q61 0 92 -28.5t23 -74.5q-14 -77 -103 -105q48 -11 67.5 -33t12.5 -61q-20 -111 -164 -111q-68 0 -102.5 27t-25.5 79q14 76 110 106q-77 23 -62 97zM375 717q7 40 -20 64t-83 24t-93 -24.5t-44 -69.5q-8 -43 18 -64t105 -31q20 4 40 11.5
t45.5 31.5t31.5 58zM352 516q7 43 -22 62.5t-115 30.5q-11 -2 -25 -5.5t-38 -14t-41.5 -31.5t-22.5 -49q-8 -44 23 -67.5t93 -23.5q131 0 148 98z" />
    <glyph glyph-name="ninesuperior" unicode="&#x2079;" horiz-adv-x="365" 
d="M365 617q-78 -32 -149 -32q-67 0 -93.5 31t-17.5 87q21 115 168 115q140 0 113 -158l-18 -105q-26 -150 -171 -150q-97 0 -118 76q-2 3 2 5l6 3q5 2 5 -2q8 -29 34 -49t73 -20q64 0 104 36.5t52 104.5zM373 664q25 141 -102 141q-134 0 -153 -106q-16 -101 101 -101
q81 0 149 34z" />
    <glyph glyph-name="zeroinferior" unicode="&#x2080;" horiz-adv-x="366" 
d="M17 158q11 60 53.5 94t109.5 34q65 0 96 -36.5t20 -96.5l-26 -152q-11 -60 -53.5 -94t-108.5 -34t-97 36t-20 97zM283 155q10 54 -18 86t-87 32q-60 0 -99 -32t-49 -86l-26 -152q-10 -55 17.5 -86t88.5 -31q60 0 98.5 31.5t48.5 85.5z" />
    <glyph glyph-name="oneinferior" unicode="&#x2081;" horiz-adv-x="255" 
d="M185 278q4 0 3 -4l-68 -389q-1 -4 -5 -4h-5q-4 0 -3 4l66 375l-170 -85q-4 -2 -5 1l-1 5q-1 3 2 5l176 90q4 2 7 2h3z" />
    <glyph glyph-name="twoinferior" unicode="&#x2082;" horiz-adv-x="341" 
d="M18 169q1 5 4 13t15.5 28t29 35.5t45.5 28t63 12.5q62 0 90 -32t19 -83q-3 -19 -12.5 -34.5t-16.5 -24.5t-27 -19t-26 -12.5t-33 -11t-29 -9.5l-68 -24q-70 -25 -83 -100l-8 -42h247q5 0 5 -4l-1 -5q-1 -4 -6 -4h-253q-7 0 -6 7l9 48q15 84 94 112l68 24q4 1 28.5 9.5
t30.5 11t24 12t24.5 17t14.5 21.5t11 30q8 45 -16.5 72.5t-80.5 27.5q-31 0 -57 -11t-41.5 -26.5t-26 -31t-14.5 -26.5l-4 -11q-1 -4 -5 -4l-6 1q-5 0 -2 5z" />
    <glyph glyph-name="threeinferior" unicode="&#x2083;" horiz-adv-x="354" 
d="M15 171q27 61 67 88t102 27q56 0 81.5 -31.5t17.5 -81.5q-11 -67 -69 -90q59 -27 47 -99q-9 -51 -47 -81t-102 -30t-94.5 28t-36.5 85q-1 5 3 6l7 2q2 1 3 0t1 -4q6 -56 32.5 -80t85.5 -24q57 0 91.5 27t42.5 71q7 39 -11 66t-55 27h-84q-4 0 -4 4l1 5q1 4 5 4h83
q37 0 59 24.5t29 60.5q8 44 -15.5 71t-72.5 27q-55 0 -92 -25.5t-62 -80.5q-1 -6 -6 -4l-6 2q-3 2 -1 6z" />
    <glyph glyph-name="fourinferior" unicode="&#x2084;" horiz-adv-x="339" 
d="M264 17q4 0 3 -4v-4q-1 -5 -5 -5h-63l-21 -119q-1 -4 -5 -4h-6q-4 0 -3 4l21 119h-213q-4 0 -4 4l1 3q2 7 3 8l254 255q4 4 10 4h6q5 0 4 -5l-45 -256h63zM230 260l-242 -243h199z" />
    <glyph glyph-name="fiveinferior" unicode="&#x2085;" horiz-adv-x="342" 
d="M286 278q4 0 3 -4l-1 -6q0 -4 -4 -4h-209l-42 -152h100q71 0 101 -31.5t20 -87.5q-9 -53 -48 -86.5t-106 -33.5q-117 0 -125 111q0 6 4 7l6 1q5 1 5 -4q3 -101 112 -101q60 0 95 30.5t43 77.5q9 50 -17.5 76.5t-90.5 26.5h-111q-7 0 -4 7l45 166q3 7 9 7h215z" />
    <glyph glyph-name="sixinferior" unicode="&#x2086;" horiz-adv-x="365" 
d="M16 75q76 31 149 31q132 0 112 -116q-21 -117 -169 -117q-140 0 -113 157l18 105q26 151 171 151q97 0 118 -76q2 -3 -2 -5l-5 -2q-5 -2 -5 2q-8 29 -34.5 48.5t-73.5 19.5q-64 0 -104 -36.5t-52 -104.5zM8 27q-25 -141 102 -141q134 0 153 106q18 101 -101 101
q-75 0 -149 -34z" />
    <glyph glyph-name="seveninferior" unicode="&#x2087;" horiz-adv-x="294" 
d="M272 278q4 0 4 -3l-1 -3l-2 -6l-229 -382q-3 -3 -6 -3h-7q-5 0 -2 4l229 380h-244q-4 0 -4 3l1 6q1 4 5 4h256z" />
    <glyph glyph-name="eightinferior" unicode="&#x2088;" horiz-adv-x="364" 
d="M28 182q9 51 49 77.5t103 26.5q61 0 92 -28.5t23 -74.5q-14 -77 -103 -105q48 -11 67.5 -33t12.5 -61q-20 -111 -164 -111q-68 0 -102.5 27t-25.5 79q14 76 110 106q-77 23 -62 97zM281 185q7 40 -20 64t-83 24t-93 -24.5t-44 -69.5q-8 -43 18 -64t105 -31q20 4 40 11.5
t45.5 31.5t31.5 58zM258 -16q7 43 -22 62.5t-115 30.5q-11 -2 -25 -5.5t-38 -14t-41.5 -31.5t-22.5 -49q-8 -44 23 -67.5t93 -23.5q131 0 148 98z" />
    <glyph glyph-name="nineinferior" unicode="&#x2089;" horiz-adv-x="364" 
d="M271 85q-78 -32 -149 -32q-67 0 -93.5 31t-17.5 87q21 115 168 115q140 0 113 -158l-18 -105q-26 -150 -171 -150q-97 0 -118 76q-2 3 2 5l6 3q5 2 5 -2q8 -29 34 -49t73 -20q64 0 104 36.5t52 104.5zM279 132q25 141 -102 141q-134 0 -153 -106q-16 -101 101 -101
q81 0 149 34z" />
    <glyph glyph-name="Euro" unicode="&#x20ac;" horiz-adv-x="720" 
d="M185 484q21 114 99.5 177.5t206.5 63.5q96 0 147 -31t70 -95q2 -6 -3 -6l-6 -1q-5 0 -5 3q-18 60 -66.5 88t-139.5 28q-121 0 -194.5 -60t-91.5 -166l-10 -53h372q4 0 3 -4l-4 -6q-1 -4 -6 -4h-367l-24 -136h328q5 0 2 -4l-3 -6q-3 -4 -7 -4h-323l-7 -42
q-18 -106 35 -166.5t172 -60.5q95 0 155 31.5t99 96.5q3 4 6 3l6 -3q4 -1 1 -6q-41 -68 -105 -102t-165 -34q-126 0 -183 64t-37 178l7 41h-114q-6 0 -3 4l3 6q3 4 6 4h111l24 136h-80q-5 0 -4 4l4 6q1 4 5 4h77z" />
    <glyph glyph-name="uni20BD" unicode="&#x20bd;" horiz-adv-x="627" 
d="M94 179h395q4 0 4 -5l-1 -4q-1 -5 -6 -5h-395l-28 -161q-1 -4 -5 -4h-7q-4 0 -3 4l28 161h-58q-5 0 -4 5l1 4q0 5 6 5h58l93 527q0 4 4 4h270q100 0 148 -54.5t32 -149.5q-17 -94 -84 -146t-167 -52h-259zM119 322h258q94 0 156 49t78 137q16 89 -29 138.5t-139 49.5
h-258z" />
    <glyph glyph-name="uni2113" unicode="&#x2113;" horiz-adv-x="418" 
d="M184 582q13 77 54 113.5t96 36.5t83 -36.5t15 -113.5q-28 -156 -291 -330l-17 -96q-13 -77 5.5 -112.5t84.5 -35.5q28 0 55 9.5t40 18.5l13 10q5 3 5 1l5 -7q3 -3 -2 -5q-50 -41 -118 -41q-74 0 -96 39t-7 123l15 85q-17 -11 -53.5 -34.5t-54.5 -35.5q-4 -3 -5 1l-3 10
q-2 3 2 5q85 54 117 75zM417 582q12 70 -12 103t-73 33t-85 -33.5t-48 -102.5l-55 -309q114 77 186.5 152.5t86.5 156.5z" />
    <glyph glyph-name="uni2116" unicode="&#x2116;" horiz-adv-x="1030" 
d="M1007 502q-12 -68 -57.5 -105.5t-118.5 -37.5q-72 0 -103.5 40t-19.5 109l13 75q12 68 57 105t118 37q72 0 104 -39.5t20 -108.5zM721 504q-11 -62 18 -96.5t95 -34.5q65 0 106.5 34.5t52.5 96.5l13 75q11 62 -18.5 97t-94.5 35t-106.5 -35t-52.5 -97zM651 710q4 0 4 -4
l-124 -702q-1 -4 -5 -4h-6q-4 0 -6 4l-297 563q-5 10 -26.5 51.5t-33.5 63.5h-1q-17 -92 -26 -151l-93 -527q-1 -4 -5 -4h-7q-4 0 -3 4l124 702q0 4 4 4h4l6 -3l289 -546q48 -88 71 -132h1q5 28 14.5 85t14.5 86l90 507q0 3 4 3h7zM964 276q4 0 3 -4l-1 -6q-1 -4 -5 -4h-294
q-4 0 -3 4l1 6q1 4 5 4h294z" />
    <glyph glyph-name="uni2117" unicode="&#x2117;" horiz-adv-x="818" 
d="M59 351q26 150 149 254.5t274 104.5q150 0 235.5 -104.5t59.5 -254.5q-27 -151 -149 -255t-272 -104t-236.5 105t-60.5 254zM74 351q-26 -146 56 -245.5t228 -99.5q145 0 262 99.5t142 245.5t-56 245.5t-226 99.5q-146 0 -263.5 -99.5t-142.5 -245.5zM480 547
q66 0 98.5 -36t20.5 -101q-11 -64 -56 -100t-111 -36h-136l-22 -126q0 -4 -5 -4h-7q-3 0 -3 4l69 393q1 6 7 6h145zM434 288q60 0 100 31.5t50 90.5t-18.5 91t-88.5 32h-135l-43 -245h135z" />
    <glyph glyph-name="trademark" unicode="&#x2122;" horiz-adv-x="620" 
d="M323 695q4 0 4 -5l-1 -4q-1 -4 -6 -4h-98l-41 -234q-1 -5 -7 -5h-3q-5 0 -4 5l41 234h-100q-4 0 -3 4l1 4q0 5 5 5h212zM607 695q3 0 3 -4l-43 -243q-1 -5 -6 -5h-4q-5 0 -4 5l29 166l10 53q-3 -4 -15 -18.5t-19 -22.5l-101 -121q-2 -3 -6 -3h-2q-4 0 -6 3l-57 119
q-12 28 -20 44l-10 -54l-29 -166q-1 -5 -5 -5h-5q-5 0 -4 5l43 242q0 5 6 5h2q4 0 5 -3l83 -173l143 172q3 4 7 4h5z" />
    <glyph glyph-name="Omega" unicode="&#x2126;" horiz-adv-x="732" 
d="M77 380q26 151 128 247.5t236 96.5t203 -96.5t43 -247.5q-22 -124 -94.5 -217.5t-178.5 -148.5h218q3 0 3 -4l-1 -6q-1 -4 -5 -4h-245q-5 0 -3 5l1 4q0 4 4 6q113 54 188.5 146t97.5 219q26 145 -39.5 237.5t-192.5 92.5t-224.5 -92.5t-123.5 -237.5q-43 -239 157 -365
q3 -2 3 -6l-1 -4q-2 -5 -5 -5h-245q-4 0 -3 4l1 6q0 4 5 4h219q-91 57 -129 151.5t-17 214.5z" />
    <glyph glyph-name="estimated" unicode="&#x212e;" horiz-adv-x="827" 
d="M795 342q-1 -12 -15 -12h-559l-40 -229q83 -71 189 -71q98 0 188 54t143 140q6 10 20 10h21q8 0 9.5 -2t-2.5 -9q-58 -105 -163.5 -171.5t-223.5 -66.5q-153 0 -242 108.5t-62 261.5t154.5 261.5t280.5 108.5t242.5 -108.5t62.5 -261.5zM675 614q-76 71 -189 71
q-112 0 -215 -70l-42 -241h404z" />
    <glyph glyph-name="uni2153" unicode="&#x2153;" horiz-adv-x="905" 
d="M277 719q4 0 3 -4l-68 -389q-1 -4 -5 -4h-5q-4 0 -3 4l66 375l-170 -85q-4 -2 -5 1l-1 5q-1 3 2 5l176 90q4 2 7 2h3zM705 710q7 0 3 -5l-515 -700q-4 -5 -10 -5h-6q-6 0 -2 5l515 700q4 5 8 5h7zM582 290q27 61 67 88t102 27q56 0 81.5 -31.5t17.5 -81.5
q-11 -67 -69 -90q59 -27 47 -99q-9 -51 -47 -81t-102 -30t-94.5 28t-36.5 85q-1 5 3 6l7 2q2 1 3 0t1 -4q6 -56 32.5 -80t85.5 -24q57 0 91.5 27t42.5 71q7 39 -11 66t-55 27h-84q-4 0 -4 4l1 5q1 4 5 4h83q37 0 59 24.5t29 60.5q8 44 -15.5 71t-72.5 27q-55 0 -92 -25.5
t-62 -80.5q-1 -6 -6 -4l-6 2q-3 2 -1 6z" />
    <glyph glyph-name="uni2154" unicode="&#x2154;" horiz-adv-x="904" 
d="M105 610q1 5 4 13t15.5 28t29 35.5t45.5 28t63 12.5q62 0 90 -32t19 -83q-3 -19 -12.5 -34.5t-16.5 -24.5t-27 -19t-26 -12.5t-33 -11t-29 -9.5l-68 -24q-70 -25 -83 -100l-8 -42h247q5 0 5 -4l-1 -5q-1 -4 -6 -4h-253q-7 0 -6 7l9 48q15 84 94 112l68 24q4 1 28.5 9.5
t30.5 11t24 12t24.5 17t14.5 21.5t11 30q8 45 -16.5 72.5t-80.5 27.5q-31 0 -57 -11t-41.5 -26.5t-26 -31t-14.5 -26.5l-4 -11q-1 -4 -5 -4l-6 1q-5 0 -2 5zM745 710q7 0 3 -5l-515 -700q-4 -5 -10 -5h-6q-6 0 -2 5l515 700q4 5 8 5h7zM586 290q27 61 67 88t102 27
q56 0 81.5 -31.5t17.5 -81.5q-11 -67 -69 -90q59 -27 47 -99q-9 -51 -47 -81t-102 -30t-94.5 28t-36.5 85q-1 5 3 6l7 2q2 1 3 0t1 -4q6 -56 32.5 -80t85.5 -24q57 0 91.5 27t42.5 71q7 39 -11 66t-55 27h-84q-4 0 -4 4l1 5q1 4 5 4h83q37 0 59 24.5t29 60.5q8 44 -15.5 71
t-72.5 27q-55 0 -92 -25.5t-62 -80.5q-1 -6 -6 -4l-6 2q-3 2 -1 6z" />
    <glyph glyph-name="oneeighth" unicode="&#x215b;" horiz-adv-x="884" 
d="M277 719q4 0 3 -4l-68 -389q-1 -4 -5 -4h-5q-4 0 -3 4l66 375l-170 -85q-4 -2 -5 1l-1 5q-1 3 2 5l176 90q4 2 7 2h3zM686 710q7 0 3 -5l-515 -700q-4 -5 -10 -5h-6q-6 0 -2 5l515 700q4 5 8 5h7zM563 301q9 51 49 77.5t103 26.5q61 0 92 -28.5t23 -74.5
q-14 -77 -103 -105q48 -11 67.5 -33t12.5 -61q-20 -111 -164 -111q-68 0 -102.5 27t-25.5 79q14 76 110 106q-77 23 -62 97zM816 304q7 40 -20 64t-83 24t-93 -24.5t-44 -69.5q-8 -43 18 -64t105 -31q20 4 40 11.5t45.5 31.5t31.5 58zM793 103q7 43 -22 62.5t-115 30.5
q-11 -2 -25 -5.5t-38 -14t-41.5 -31.5t-22.5 -49q-8 -44 23 -67.5t93 -23.5q131 0 148 98z" />
    <glyph glyph-name="threeeighths" unicode="&#x215c;" horiz-adv-x="930" 
d="M99 612q27 61 67 88t102 27q56 0 81.5 -31.5t17.5 -81.5q-11 -67 -69 -90q59 -27 47 -99q-9 -51 -47 -81t-102 -30t-94.5 28t-36.5 85q-1 5 3 6l7 2q2 1 3 0t1 -4q6 -56 32.5 -80t85.5 -24q57 0 91.5 27t42.5 71q7 39 -11 66t-55 27h-84q-4 0 -4 4l1 5q1 4 5 4h83
q37 0 59 24.5t29 60.5q8 44 -15.5 71t-72.5 27q-55 0 -92 -25.5t-62 -80.5q-1 -6 -6 -4l-6 2q-3 2 -1 6zM740 710q7 0 3 -5l-515 -700q-4 -5 -10 -5h-6q-6 0 -2 5l515 700q4 5 8 5h7zM614 301q9 51 49 77.5t103 26.5q61 0 92 -28.5t23 -74.5q-14 -77 -103 -105
q48 -11 67.5 -33t12.5 -61q-20 -111 -164 -111q-68 0 -102.5 27t-25.5 79q14 76 110 106q-77 23 -62 97zM867 304q7 40 -20 64t-83 24t-93 -24.5t-44 -69.5q-8 -43 18 -64t105 -31q20 4 40 11.5t45.5 31.5t31.5 58zM844 103q7 43 -22 62.5t-115 30.5q-11 -2 -25 -5.5
t-38 -14t-41.5 -31.5t-22.5 -49q-8 -44 23 -67.5t93 -23.5q131 0 148 98z" />
    <glyph glyph-name="fiveeighths" unicode="&#x215d;" horiz-adv-x="902" 
d="M368 719q4 0 3 -4l-1 -6q0 -4 -4 -4h-209l-42 -152h100q71 0 101 -31.5t20 -87.5q-9 -53 -48 -86.5t-106 -33.5q-117 0 -125 111q0 6 4 7l6 1q5 1 5 -4q3 -101 112 -101q60 0 95 30.5t43 77.5q9 50 -17.5 76.5t-90.5 26.5h-111q-7 0 -4 7l45 166q3 7 9 7h215zM714 710
q7 0 3 -5l-515 -700q-4 -5 -10 -5h-6q-6 0 -2 5l515 700q4 5 8 5h7zM585 301q9 51 49 77.5t103 26.5q61 0 92 -28.5t23 -74.5q-14 -77 -103 -105q48 -11 67.5 -33t12.5 -61q-20 -111 -164 -111q-68 0 -102.5 27t-25.5 79q14 76 110 106q-77 23 -62 97zM838 304q7 40 -20 64
t-83 24t-93 -24.5t-44 -69.5q-8 -43 18 -64t105 -31q20 4 40 11.5t45.5 31.5t31.5 58zM815 103q7 43 -22 62.5t-115 30.5q-11 -2 -25 -5.5t-38 -14t-41.5 -31.5t-22.5 -49q-8 -44 23 -67.5t93 -23.5q131 0 148 98z" />
    <glyph glyph-name="seveneighths" unicode="&#x215e;" horiz-adv-x="888" 
d="M364 719q4 0 4 -3l-1 -3l-2 -6l-229 -382q-3 -3 -6 -3h-7q-5 0 -2 4l229 380h-244q-4 0 -4 3l1 6q1 4 5 4h256zM663 710q7 0 3 -5l-515 -700q-4 -5 -10 -5h-6q-6 0 -2 5l515 700q4 5 8 5h7zM564 301q9 51 49 77.5t103 26.5q61 0 92 -28.5t23 -74.5q-14 -77 -103 -105
q48 -11 67.5 -33t12.5 -61q-20 -111 -164 -111q-68 0 -102.5 27t-25.5 79q14 76 110 106q-77 23 -62 97zM817 304q7 40 -20 64t-83 24t-93 -24.5t-44 -69.5q-8 -43 18 -64t105 -31q20 4 40 11.5t45.5 31.5t31.5 58zM794 103q7 43 -22 62.5t-115 30.5q-11 -2 -25 -5.5
t-38 -14t-41.5 -31.5t-22.5 -49q-8 -44 23 -67.5t93 -23.5q131 0 148 98z" />
    <glyph glyph-name="arrowleft" unicode="&#x2190;" horiz-adv-x="745" 
d="M702 341q4 0 3 -4l-1 -6q0 -4 -4 -4h-646l200 -244q3 -4 -2 -7l-4 -4q-4 -3 -7 1l-211 256q-4 5 2 10l301 256q4 4 7 1l3 -4q4 -4 -1 -7l-286 -244h646z" />
    <glyph glyph-name="arrowup" unicode="&#x2191;" horiz-adv-x="745" 
d="M653 413q3 -4 0 -7l-5 -4q-4 -4 -7 0l-201 243l-114 -646q-1 -4 -5 -4h-6q-4 0 -3 4l114 646l-287 -243q-4 -3 -7 0l-3 4q-3 3 2 7l301 256q6 5 10 0z" />
    <glyph glyph-name="arrowright" unicode="&#x2192;" horiz-adv-x="745" 
d="M728 339q4 -5 -2 -10l-301 -256q-5 -4 -7 -1l-4 4q-2 4 2 7l286 244h-646q-4 0 -4 4l1 6q1 4 5 4h646l-200 244q-2 4 1 7l5 4q3 3 7 -1z" />
    <glyph glyph-name="arrowdown" unicode="&#x2193;" horiz-adv-x="745" 
d="M441 673q4 0 3 -4l-114 -646l287 243q3 4 7 0l3 -4q3 -3 -2 -7l-301 -256q-6 -5 -10 0l-211 256q-3 4 0 7l5 4q4 4 7 0l201 -243l114 646q1 4 5 4h6z" />
    <glyph glyph-name="uni2196" unicode="&#x2196;" horiz-adv-x="745" 
d="M641 574q7 0 6 -7l-64 -362q-1 -5 -5 -5h-5q-5 0 -4 5l61 345l-539 -458q-3 -3 -6 0l-3 4q-2 2 1 6l539 458h-345q-6 0 -4 5l1 5q0 4 5 4h362z" />
    <glyph glyph-name="uni2197" unicode="&#x2197;" horiz-adv-x="745" 
d="M564 574q5 0 5 -4l-1 -5q-2 -5 -6 -5h-345l377 -458q2 -2 -1 -6l-5 -4q-3 -3 -6 0l-377 458l-61 -345q-1 -5 -6 -5h-5q-4 0 -3 5l64 362q1 7 8 7h362z" />
    <glyph glyph-name="uni2198" unicode="&#x2198;" horiz-adv-x="745" 
d="M171 572q3 3 6 0l377 -458l61 345q1 5 6 5h5q4 0 3 -5l-64 -362q-1 -7 -8 -7h-362q-5 0 -4 4v5q2 5 6 5h345l-377 458q-3 2 1 6z" />
    <glyph glyph-name="uni2199" unicode="&#x2199;" horiz-adv-x="745" 
d="M664 572q3 3 6 0l3 -4q3 -2 -1 -6l-539 -458h345q6 0 4 -5v-5q-1 -4 -6 -4h-362q-7 0 -6 7l64 362q1 5 5 5h5q5 0 4 -5l-61 -345z" />
    <glyph glyph-name="partialdiff" unicode="&#x2202;" horiz-adv-x="546" 
d="M213 736q0 4 5 4q181 0 244 -83.5t33 -254.5l-41 -232q-15 -87 -78 -136t-165 -49q-103 0 -148 50.5t-30 138.5l26 150q16 87 78 134t166 47q75 0 120 -29t57 -81q29 174 -30 253t-235 79q-4 0 -3 4zM467 321q14 81 -28.5 126t-137.5 45q-96 0 -155 -45.5t-73 -126.5
l-26 -150q-14 -81 28.5 -126.5t138.5 -45.5q95 0 153.5 45.5t72.5 126.5z" />
    <glyph glyph-name="Delta" unicode="&#x2206;" horiz-adv-x="602" 
d="M380 710q6 0 7 -4l134 -687q1 -2 1 -9l-1 -6q-1 -4 -5 -4h-529q-4 0 -3 4l1 6q0 2 3 9l378 687q1 4 7 4h7zM414 489l-39 202h-1l-111 -202l-261 -474h505z" />
    <glyph glyph-name="product" unicode="&#x220f;" horiz-adv-x="665" 
d="M698 710q4 0 4 -4l-2 -6q0 -4 -4 -4h-82l-140 -792q0 -4 -5 -4h-7q-3 0 -3 4l140 792h-390l-140 -792q0 -4 -5 -4h-7q-3 0 -3 4l140 792h-85q-4 0 -4 4l2 6q0 4 4 4h587z" />
    <glyph glyph-name="summation" unicode="&#x2211;" horiz-adv-x="555" 
d="M287 315q1 -4 -2 -9l-299 -392h446q4 0 3 -4l-1 -6q0 -4 -5 -4h-461q-3 0 -3 4l1 5q0 1 2 5l305 398l-165 382q-1 4 0 7v4q1 5 5 5h456q3 0 2 -5l-1 -5q0 -4 -3 -4h-443z" />
    <glyph glyph-name="minus" unicode="&#x2212;" horiz-adv-x="612" 
d="M542 332q3 0 3 -4l-1 -6q-1 -4 -5 -4h-464q-4 0 -3 4l1 6q0 4 5 4h464z" />
    <glyph glyph-name="uni2215" unicode="&#x2215;" horiz-adv-x="560" 
d="M599 705q4 5 11 5h6q8 0 2 -6l-637 -699q-5 -5 -12 -5h-6q-7 0 -1 6z" />
    <glyph glyph-name="uni2219" unicode="&#x2219;" horiz-adv-x="167" 
d="M73 219q13 0 10 -13l-1 -4q-3 -13 -16 -13h-4q-8 0 -10 2.5t0 10.5l1 4q3 13 16 13h4z" />
    <glyph glyph-name="radical" unicode="&#x221a;" horiz-adv-x="659" 
d="M720 750q4 0 3 -4l-406 -849q-2 -3 -7 -3h-7q-4 0 -4 3l-89 529h-153q-4 0 -3 4l1 5q0 5 5 5h157q6 0 7 -5l67 -403q3 -19 9.5 -58t9.5 -58h1q9 20 27.5 59t28.5 58l341 714q1 3 6 3h6z" />
    <glyph glyph-name="infinity" unicode="&#x221e;" horiz-adv-x="723" 
d="M361 305q16 27 36 51t60.5 48.5t84.5 24.5q62 0 96 -42t23 -106q-10 -60 -56.5 -99.5t-105.5 -39.5q-35 0 -62 13t-43.5 34.5t-25 38.5t-13.5 36q-11 -18 -25.5 -35.5t-37.5 -39t-55 -34.5t-66 -13q-59 0 -92.5 41t-23.5 101q11 64 58 104.5t109 40.5q33 0 59.5 -13
t42 -35t24 -40t13.5 -36zM351 285q-1 6 -3.5 17t-11.5 32t-22.5 38t-38 30t-54.5 13q-56 0 -98 -37t-53 -95q-10 -54 19.5 -90.5t82.5 -36.5q32 0 62 13t49.5 30t36 37.5t23 32t8.5 16.5zM646 283q10 58 -19.5 95t-85.5 37q-31 0 -60.5 -13.5t-48.5 -30.5t-36.5 -39
t-23 -31.5t-8.5 -16.5q3 -11 4.5 -17.5t12 -30.5t23.5 -38.5t38.5 -28t57.5 -13.5q52 0 94 36.5t52 90.5z" />
    <glyph glyph-name="integral" unicode="&#x222b;" horiz-adv-x="366" 
d="M223 572q15 86 62 127t140 41q3 0 3 -4l-1 -6q-1 -4 -5 -4q-85 0 -127.5 -37.5t-56.5 -116.5l-110 -624q-16 -86 -62 -127t-139 -41q-4 0 -3 4l1 6q1 4 5 4q85 0 127 37.5t56 116.5z" />
    <glyph glyph-name="approxequal" unicode="&#x2248;" horiz-adv-x="564" 
d="M88 404q65 50 121 50q41 0 96.5 -24t92.5 -24q55 0 113 46q3 3 6 0l3 -4q2 -2 -1 -6q-63 -50 -122 -50q-41 0 -96 24t-92 24q-53 0 -112 -46q-5 -3 -6 0l-4 4q-2 3 1 6zM56 221q63 50 121 50q41 0 96 -24t92 -24q57 0 113 46q4 3 6 0l4 -4q2 -3 -1 -6q-65 -50 -122 -50
q-41 0 -96.5 24t-92.5 24q-53 0 -112 -46q-3 -3 -6 0l-3 4q-3 3 1 6z" />
    <glyph glyph-name="notequal" unicode="&#x2260;" horiz-adv-x="630" 
d="M262 235h273q4 0 4 -4l-1 -6q-1 -4 -5 -4h-280l-103 -150q-2 -2 -7 -2h-9q-3 0 0 3l102 149h-167q-4 0 -3 4l1 6q0 4 4 4h175l126 184h-268q-4 0 -3 4l1 6q0 4 4 4h276l101 148q2 2 6 2h10q3 0 0 -3l-101 -147h172q4 0 4 -4l-1 -6q-1 -4 -5 -4h-179z" />
    <glyph glyph-name="lessequal" unicode="&#x2264;" horiz-adv-x="600" 
d="M555 601q-1 -4 -6 -7l-413 -174v-1l352 -173q4 -3 3 -8l-1 -5q-1 -5 -5 -3l-366 183q-4 3 -3 6l1 4q0 4 5 6l430 182q2 1 3.5 0.5t0.5 -3.5zM465 118q5 0 4 -4l-1 -7q-1 -4 -6 -4h-397q-5 0 -4 5l1 5q1 5 6 5h397z" />
    <glyph glyph-name="greaterequal" unicode="&#x2265;" horiz-adv-x="592" 
d="M154 608q1 5 6 3l366 -182q3 -1 3 -6l-1 -4q-1 -3 -5 -6l-430 -183q-5 -2 -5 1v2l1 7q1 6 7 8l412 174v1l-351 173q-5 2 -4 7zM470 118q5 0 4 -5l-1 -5q-1 -5 -6 -5h-397q-5 0 -4 4l1 7q1 4 6 4h397z" />
    <glyph glyph-name="lozenge" unicode="&#x25ca;" horiz-adv-x="504" 
d="M326 710q4 0 6 -3l143 -346q2 -5 -2 -12l-266 -346q-3 -3 -7 -3h-4q-4 0 -5 3l-144 346q-3 5 2 12l265 345q3 4 6 4h6zM320 694l-259 -339l139 -338h1l260 338l-140 339h-1z" />
    <glyph glyph-name="zero.denom" horiz-adv-x="366" 
d="M38 277q11 60 53.5 94t109.5 34q65 0 96 -36.5t20 -96.5l-26 -152q-11 -60 -53.5 -94t-108.5 -34t-97 36t-20 97zM304 274q10 54 -18 86t-87 32q-60 0 -99 -32t-49 -86l-26 -152q-10 -55 17.5 -86t88.5 -31q60 0 98.5 31.5t48.5 85.5z" />
    <glyph glyph-name="one.denom" horiz-adv-x="255" 
d="M206 397q4 0 3 -4l-68 -389q-1 -4 -5 -4h-5q-4 0 -3 4l66 375l-170 -85q-4 -2 -5 1l-1 5q-1 3 2 5l176 90q4 2 7 2h3z" />
    <glyph glyph-name="two.denom" horiz-adv-x="341" 
d="M39 288q1 5 4 13t15.5 28t29 35.5t45.5 28t63 12.5q62 0 90 -32t19 -83q-3 -19 -12.5 -34.5t-16.5 -24.5t-27 -19t-26 -12.5t-33 -11t-29 -9.5l-68 -24q-70 -25 -83 -100l-8 -42h247q5 0 5 -4l-1 -5q-1 -4 -6 -4h-253q-7 0 -6 7l9 48q15 84 94 112l68 24q4 1 28.5 9.5
t30.5 11t24 12t24.5 17t14.5 21.5t11 30q8 45 -16.5 72.5t-80.5 27.5q-31 0 -57 -11t-41.5 -26.5t-26 -31t-14.5 -26.5l-4 -11q-1 -4 -5 -4l-6 1q-5 0 -2 5z" />
    <glyph glyph-name="three.denom" horiz-adv-x="354" 
d="M36 290q27 61 67 88t102 27q56 0 81.5 -31.5t17.5 -81.5q-11 -67 -69 -90q59 -27 47 -99q-9 -51 -47 -81t-102 -30t-94.5 28t-36.5 85q-1 5 3 6l7 2q2 1 3 0t1 -4q6 -56 32.5 -80t85.5 -24q57 0 91.5 27t42.5 71q7 39 -11 66t-55 27h-84q-4 0 -4 4l1 5q1 4 5 4h83
q37 0 59 24.5t29 60.5q8 44 -15.5 71t-72.5 27q-55 0 -92 -25.5t-62 -80.5q-1 -6 -6 -4l-6 2q-3 2 -1 6z" />
    <glyph glyph-name="four.denom" horiz-adv-x="338" 
d="M285 136q4 0 3 -4v-4q-1 -5 -5 -5h-63l-21 -119q-1 -4 -5 -4h-6q-4 0 -3 4l21 119h-213q-4 0 -4 4l1 3q2 7 3 8l254 255q4 4 10 4h6q5 0 4 -5l-45 -256h63zM251 379l-242 -243h199z" />
    <glyph glyph-name="five.denom" horiz-adv-x="342" 
d="M307 397q4 0 3 -4l-1 -6q0 -4 -4 -4h-209l-42 -152h100q71 0 101 -31.5t20 -87.5q-9 -53 -48 -86.5t-106 -33.5q-117 0 -125 111q0 6 4 7l6 1q5 1 5 -4q3 -101 112 -101q60 0 95 30.5t43 77.5q9 50 -17.5 76.5t-90.5 26.5h-111q-8 0 -4 7l45 166q3 7 9 7h215z" />
    <glyph glyph-name="six.denom" horiz-adv-x="364" 
d="M37 194q76 31 149 31q132 0 112 -116q-21 -117 -169 -117q-140 0 -113 157l18 105q26 151 171 151q97 0 118 -76q2 -3 -2 -5l-5 -2q-5 -2 -5 2q-8 29 -34.5 48.5t-73.5 19.5q-64 0 -104 -36.5t-52 -104.5zM29 146q-25 -141 102 -141q134 0 153 106q18 101 -101 101
q-75 0 -149 -34z" />
    <glyph glyph-name="seven.denom" horiz-adv-x="293" 
d="M292 397q4 0 4 -3l-1 -3l-2 -6l-229 -382q-3 -3 -6 -3h-7q-5 0 -2 4l229 380h-244q-4 0 -4 3l1 6q1 4 5 4h256z" />
    <glyph glyph-name="eight.denom" horiz-adv-x="364" 
d="M49 301q9 51 49 77.5t103 26.5q61 0 92 -28.5t23 -74.5q-14 -77 -103 -105q48 -11 67.5 -33t12.5 -61q-20 -111 -164 -111q-68 0 -102.5 27t-25.5 79q14 76 110 106q-77 23 -62 97zM302 304q7 40 -20 64t-83 24t-93 -24.5t-44 -69.5q-8 -43 18 -64t105 -31q20 4 40 11.5
t45.5 31.5t31.5 58zM279 103q7 43 -22 62.5t-115 30.5q-11 -2 -25 -5.5t-38 -14t-41.5 -31.5t-22.5 -49q-8 -44 23 -67.5t93 -23.5q131 0 148 98z" />
    <glyph glyph-name="nine.denom" horiz-adv-x="364" 
d="M292 204q-78 -32 -149 -32q-67 0 -93.5 31t-17.5 87q21 115 168 115q140 0 113 -158l-18 -105q-26 -150 -171 -150q-97 0 -118 76q-2 3 2 5l6 3q5 2 5 -2q8 -29 34 -49t73 -20q64 0 104 36.5t52 104.5zM300 251q25 141 -102 141q-134 0 -153 -106q-16 -101 101 -101
q81 0 149 34z" />
    <glyph glyph-name="zero.num" horiz-adv-x="367" 
d="M95 599q11 60 53.5 94t109.5 34q65 0 96 -36.5t20 -96.5l-26 -152q-11 -60 -53.5 -94t-108.5 -34t-97 36t-20 97zM361 596q10 54 -18 86t-87 32q-60 0 -99 -32t-49 -86l-26 -152q-10 -55 17.5 -86t88.5 -31q60 0 98.5 31.5t48.5 85.5z" />
    <glyph glyph-name="one.num" horiz-adv-x="255" 
d="M263 719q4 0 3 -4l-68 -389q-1 -4 -5 -4h-5q-4 0 -3 4l66 375l-170 -85q-4 -2 -5 1l-1 5q-1 3 2 5l176 90q4 2 7 2h3z" />
    <glyph glyph-name="two.num" horiz-adv-x="340" 
d="M95 610q1 5 4 13t15.5 28t29 35.5t45.5 28t63 12.5q62 0 90 -32t19 -83q-3 -19 -12.5 -34.5t-16.5 -24.5t-27 -19t-26 -12.5t-33 -11t-29 -9.5l-68 -24q-70 -25 -83 -100l-8 -42h247q5 0 5 -4l-1 -5q-1 -4 -6 -4h-253q-7 0 -6 7l9 48q15 84 94 112l68 24q4 1 28.5 9.5
t30.5 11t24 12t24.5 17t14.5 21.5t11 30q8 45 -16.5 72.5t-80.5 27.5q-31 0 -57 -11t-41.5 -26.5t-26 -31t-14.5 -26.5l-4 -11q-1 -4 -5 -4l-6 1q-5 0 -2 5z" />
    <glyph glyph-name="three.num" horiz-adv-x="354" 
d="M93 612q27 61 67 88t102 27q56 0 81.5 -31.5t17.5 -81.5q-11 -67 -69 -90q59 -27 47 -99q-9 -51 -47 -81t-102 -30t-94.5 28t-36.5 85q-1 5 3 6l7 2q2 1 3 0t1 -4q6 -56 32.5 -80t85.5 -24q57 0 91.5 27t42.5 71q7 39 -11 66t-55 27h-84q-4 0 -4 4l1 5q1 4 5 4h83
q37 0 59 24.5t29 60.5q8 44 -15.5 71t-72.5 27q-55 0 -92 -25.5t-62 -80.5q-1 -6 -6 -4l-6 2q-3 2 -1 6z" />
    <glyph glyph-name="four.num" horiz-adv-x="339" 
d="M343 458q4 0 3 -4v-4q-1 -5 -5 -5h-63l-21 -119q-1 -4 -5 -4h-6q-4 0 -3 4l21 119h-213q-4 0 -4 4l1 3q2 7 3 8l254 255q4 4 10 4h6q5 0 4 -5l-45 -256h63zM309 701l-242 -243h199z" />
    <glyph glyph-name="five.num" horiz-adv-x="342" 
d="M363 719q4 0 3 -4l-1 -6q0 -4 -4 -4h-209l-42 -152h100q71 0 101 -31.5t20 -87.5q-9 -53 -48 -86.5t-106 -33.5q-117 0 -125 111q0 6 4 7l6 1q5 1 5 -4q3 -101 112 -101q60 0 95 30.5t43 77.5q9 50 -17.5 76.5t-90.5 26.5h-111q-8 0 -4 7l45 166q3 7 9 7h215z" />
    <glyph glyph-name="six.num" horiz-adv-x="364" 
d="M93 516q76 31 149 31q132 0 112 -116q-21 -117 -169 -117q-140 0 -113 157l18 105q26 151 171 151q97 0 118 -76q2 -3 -2 -5l-5 -2q-5 -2 -5 2q-8 29 -34.5 48.5t-73.5 19.5q-64 0 -104 -36.5t-52 -104.5zM85 468q-25 -141 102 -141q134 0 153 106q18 101 -101 101
q-75 0 -149 -34z" />
    <glyph glyph-name="seven.num" horiz-adv-x="293" 
d="M349 719q4 0 4 -3l-1 -3l-2 -6l-229 -382q-3 -3 -6 -3h-7q-5 0 -2 4l229 380h-244q-4 0 -4 3l1 6q1 4 5 4h256z" />
    <glyph glyph-name="eight.num" horiz-adv-x="365" 
d="M106 623q9 51 49 77.5t103 26.5q61 0 92 -28.5t23 -74.5q-14 -77 -103 -105q48 -11 67.5 -33t12.5 -61q-20 -111 -164 -111q-68 0 -102.5 27t-25.5 79q14 76 110 106q-77 23 -62 97zM359 626q7 40 -20 64t-83 24t-93 -24.5t-44 -69.5q-8 -43 18 -64t105 -31q20 4 40 11.5
t45.5 31.5t31.5 58zM336 425q7 43 -22 62.5t-115 30.5q-11 -2 -25 -5.5t-38 -14t-41.5 -31.5t-22.5 -49q-8 -44 23 -67.5t93 -23.5q131 0 148 98z" />
    <glyph glyph-name="nine.num" horiz-adv-x="365" 
d="M349 526q-78 -32 -149 -32q-67 0 -93.5 31t-17.5 87q21 115 168 115q140 0 113 -158l-18 -105q-26 -150 -171 -150q-97 0 -118 76q-2 3 2 5l6 3q5 2 5 -2q8 -29 34 -49t73 -20q64 0 104 36.5t52 104.5zM357 573q25 141 -102 141q-134 0 -153 -106q-16 -101 101 -101
q81 0 149 34z" />
    <glyph glyph-name="CR" horiz-adv-x="322" 
 />
    <glyph glyph-name="acute.case" horiz-adv-x="257" 
d="M326 891q5 3 9 -1l2 -3q4 -4 -2 -7l-199 -114q-4 -2 -7 1l-3 4q-2 3 2 6z" />
    <glyph glyph-name="breve.case" horiz-adv-x="287" 
d="M396 881q-26 -60 -65.5 -87.5t-100.5 -27.5q-62 0 -93.5 27.5t-36.5 87.5q0 5 3 5l7 1q4 0 4 -3q4 -54 32.5 -79t84.5 -25q55 0 91.5 25t60.5 80q3 4 6 3l6 -2q3 -2 1 -5z" />
    <glyph glyph-name="caron.case" horiz-adv-x="332" 
d="M434 894q6 0 1 -5l-165 -117q-7 -5 -12 -5h-3q-4 0 -9 5l-124 117q-2 1 -1 4q1 1 4 1h9q2 0 7 -3l116 -110l159 110q4 3 10 3h8z" />
    <glyph glyph-name="cedilla.case" horiz-adv-x="251" 
d="M45 -91q18 5 40 5q41 0 60.5 -18t14.5 -51q-7 -43 -39 -67t-80 -24q-52 0 -84 25q-5 4 -4 11l1 6q2 6 4 2q31 -31 85 -31q42 0 69.5 20.5t34.5 57.5q4 28 -13.5 42.5t-54.5 14.5q-27 0 -44 -7q-6 -2 -7.5 0.5t1.5 8.5l51 96h13z" />
    <glyph glyph-name="circumflex.case" horiz-adv-x="360" 
d="M293 893q5 0 11 -5l124 -118q2 -4 -4 -4h-6q-5 0 -8 3l-118 110l-157 -110q-4 -3 -9 -3h-11q-8 0 -2 4l167 118q6 5 10 5h3z" />
    <glyph glyph-name="dieresis.case" horiz-adv-x="439" 
d="M228 839q7 0 8.5 -2t0.5 -9l-1 -6q-2 -11 -13 -11h-6q-11 0 -9 11l1 6q1 11 13 11h6zM415 839q11 0 10 -11l-1 -6q-2 -11 -14 -11h-5q-8 0 -9.5 2t-0.5 9l1 6q1 11 14 11h5z" />
    <glyph glyph-name="dotaccent.case" horiz-adv-x="216" 
d="M212 834q13 0 10 -12l-1 -4q-1 -12 -14 -12h-4q-7 0 -9 2.5t-1 9.5l1 4q3 12 14 12h4z" />
    <glyph glyph-name="grave.case" horiz-adv-x="257" 
d="M139 880q5 5 10 1l161 -109q3 -3 0 -6l-2 -2q-3 -3 -7 -1l-164 108q-5 2 0 7z" />
    <glyph glyph-name="hungarumlaut.case" horiz-adv-x="395" 
d="M286 890q4 4 7 3l8 -1q7 -1 1 -5l-138 -122q-2 -2 -4 -2.5t-3 0.5l-6 2q-5 2 0 5zM463 890q4 4 7 3l8 -1q7 -1 1 -5l-138 -122q-2 -2 -4 -2.5t-3 0.5l-6 2q-5 2 0 5z" />
    <glyph glyph-name="macron.case" horiz-adv-x="352" 
d="M394 827q4 0 3 -4l-1 -5q0 -4 -4 -4h-240q-4 0 -4 4l1 5q1 4 5 4h240z" />
    <glyph glyph-name="ogonek.case" horiz-adv-x="252" 
d="M139 0q-73 -48 -114.5 -104.5t-33.5 -93.5q7 -35 47 -35q45 0 83 35q3 3 4 -1l1 -7q0 -3 -3 -6q-44 -36 -91 -36q-49 0 -56 42q-9 42 30 99.5t115 106.5h18z" />
    <glyph glyph-name="ring.case" horiz-adv-x="240" 
d="M132 845q7 42 36.5 66t73.5 24q43 0 63 -24t12 -66t-36 -66t-71 -24q-44 0 -64.5 24t-13.5 66zM305 845q6 36 -11 57t-54 21q-38 0 -64 -21t-32 -57t12 -57t56 -21q37 0 62 21t31 57z" />
    <glyph glyph-name="tilde.case" horiz-adv-x="305" 
d="M411 867q4 0 3 -4q-7 -40 -29 -63.5t-57 -23.5q-31 0 -55 19.5t-47 39t-50 19.5t-46.5 -20.5t-24.5 -53.5q-1 -4 -5 -4h-6q-4 0 -3 4q7 39 30 63t57 24q31 0 55.5 -19.5t47 -39t49.5 -19.5q28 0 46 20.5t24 53.5q1 4 5 4h6z" />
    <glyph glyph-name="uni0326.alt" horiz-adv-x="0" 
d="M218 734q4 5 7 5h4q7 0 3 -5l-82 -147q-3 -4 -7 -4h-5q-7 0 -3 5z" />
    <glyph glyph-name="_375" horiz-adv-x="664" 
d="M412 710q6 0 7 -4l134 -687q1 -2 1 -9l-1 -6q-1 -4 -5 -4h-529q-4 0 -3 4l1 6q0 2 3 9l378 687q1 4 7 4h7zM425 590q-3 17 -9.5 50.5t-9.5 50.5h-1l-56 -102l-315 -574h505z" />
    <glyph glyph-name="_376" horiz-adv-x="744" 
d="M89 380q24 137 124 233.5t239 96.5t205 -96.5t42 -233.5q-22 -124 -94.5 -217.5t-178.5 -148.5h218q3 0 3 -4l-1 -6q-1 -4 -5 -4h-245q-5 0 -3 5l1 4q0 4 4 6q113 54 188.5 146t97.5 219q23 131 -39 223.5t-195 92.5t-228 -92.5t-118 -223.5q-43 -239 157 -365q3 -2 3 -6
l-1 -4q-2 -5 -5 -5h-245q-4 0 -3 4l1 6q0 4 5 4h219q-91 57 -129 151.5t-17 214.5z" />
    </font>
</defs>
</svg>
